<?xml version="1.0" encoding="UTF-8"?>
<svg xmlns="http://www.w3.org/2000/svg" xmlns:xlink="http://www.w3.org/1999/xlink" width="504pt" height="360pt" viewBox="0 0 504 360" version="1.1">
<defs>
<clipPath id="clip1">
  <path d="M 48.734375 6.972656 L 498 6.972656 L 498 335 L 48.734375 335 Z M 48.734375 6.972656 "/>
</clipPath>
</defs>
<g id="surface51">
<rect x="0" y="0" width="504" height="360" style="fill:rgb(100%,100%,100%);fill-opacity:1;stroke:none;"/>
<path style="fill:none;stroke-width:1.81063;stroke-linecap:round;stroke-linejoin:round;stroke:rgb(100%,100%,100%);stroke-opacity:1;stroke-miterlimit:10;" d="M 0 0 L 504 0 L 504 360 L 0 360 Z M 0 0 "/>
<g clip-path="url(#clip1)" clip-rule="nonzero">
<path style=" stroke:none;fill-rule:nonzero;fill:rgb(100%,100%,100%);fill-opacity:1;" d="M 48.734375 6.972656 L 497.023438 6.972656 L 497.023438 334.210938 L 48.734375 334.210938 Z M 48.734375 6.972656 "/>
</g>
<path style="fill-rule:nonzero;fill:rgb(20%,20%,20%);fill-opacity:1;stroke-width:0.944882;stroke-linecap:round;stroke-linejoin:round;stroke:rgb(20%,20%,20%);stroke-opacity:1;stroke-miterlimit:10;" d="M 115.234375 132.175781 C 115.234375 135.449219 110.324219 135.449219 110.324219 132.175781 C 110.324219 128.902344 115.234375 128.902344 115.234375 132.175781 "/>
<path style="fill-rule:nonzero;fill:rgb(20%,20%,20%);fill-opacity:1;stroke-width:0.944882;stroke-linecap:round;stroke-linejoin:round;stroke:rgb(20%,20%,20%);stroke-opacity:1;stroke-miterlimit:10;" d="M 115.234375 21.847656 C 115.234375 25.121094 110.324219 25.121094 110.324219 21.847656 C 110.324219 18.574219 115.234375 18.574219 115.234375 21.847656 "/>
<path style="fill-rule:nonzero;fill:rgb(20%,20%,20%);fill-opacity:1;stroke-width:0.944882;stroke-linecap:round;stroke-linejoin:round;stroke:rgb(20%,20%,20%);stroke-opacity:1;stroke-miterlimit:10;" d="M 115.234375 136.117188 C 115.234375 139.390625 110.324219 139.390625 110.324219 136.117188 C 110.324219 132.84375 115.234375 132.84375 115.234375 136.117188 "/>
<path style="fill-rule:nonzero;fill:rgb(20%,20%,20%);fill-opacity:1;stroke-width:0.944882;stroke-linecap:round;stroke-linejoin:round;stroke:rgb(20%,20%,20%);stroke-opacity:1;stroke-miterlimit:10;" d="M 115.234375 112.472656 C 115.234375 115.746094 110.324219 115.746094 110.324219 112.472656 C 110.324219 109.203125 115.234375 109.203125 115.234375 112.472656 "/>
<path style="fill-rule:nonzero;fill:rgb(20%,20%,20%);fill-opacity:1;stroke-width:0.944882;stroke-linecap:round;stroke-linejoin:round;stroke:rgb(20%,20%,20%);stroke-opacity:1;stroke-miterlimit:10;" d="M 115.234375 151.878906 C 115.234375 155.148438 110.324219 155.148438 110.324219 151.878906 C 110.324219 148.605469 115.234375 148.605469 115.234375 151.878906 "/>
<path style="fill-rule:nonzero;fill:rgb(20%,20%,20%);fill-opacity:1;stroke-width:0.944882;stroke-linecap:round;stroke-linejoin:round;stroke:rgb(20%,20%,20%);stroke-opacity:1;stroke-miterlimit:10;" d="M 115.234375 155.816406 C 115.234375 159.089844 110.324219 159.089844 110.324219 155.816406 C 110.324219 152.542969 115.234375 152.542969 115.234375 155.816406 "/>
<path style="fill-rule:nonzero;fill:rgb(20%,20%,20%);fill-opacity:1;stroke-width:0.944882;stroke-linecap:round;stroke-linejoin:round;stroke:rgb(20%,20%,20%);stroke-opacity:1;stroke-miterlimit:10;" d="M 115.234375 151.878906 C 115.234375 155.148438 110.324219 155.148438 110.324219 151.878906 C 110.324219 148.605469 115.234375 148.605469 115.234375 151.878906 "/>
<path style="fill-rule:nonzero;fill:rgb(20%,20%,20%);fill-opacity:1;stroke-width:0.944882;stroke-linecap:round;stroke-linejoin:round;stroke:rgb(20%,20%,20%);stroke-opacity:1;stroke-miterlimit:10;" d="M 115.234375 158.378906 C 115.234375 161.652344 110.324219 161.652344 110.324219 158.378906 C 110.324219 155.105469 115.234375 155.105469 115.234375 158.378906 "/>
<path style="fill-rule:nonzero;fill:rgb(20%,20%,20%);fill-opacity:1;stroke-width:0.944882;stroke-linecap:round;stroke-linejoin:round;stroke:rgb(20%,20%,20%);stroke-opacity:1;stroke-miterlimit:10;" d="M 115.234375 171.578125 C 115.234375 174.851562 110.324219 174.851562 110.324219 171.578125 C 110.324219 168.304688 115.234375 168.304688 115.234375 171.578125 "/>
<path style="fill:none;stroke-width:1.422638;stroke-linecap:butt;stroke-linejoin:round;stroke:rgb(20%,20%,20%);stroke-opacity:1;stroke-miterlimit:10;" d="M 112.777344 230.683594 L 112.777344 174.925781 "/>
<path style="fill:none;stroke-width:1.422638;stroke-linecap:butt;stroke-linejoin:round;stroke:rgb(20%,20%,20%);stroke-opacity:1;stroke-miterlimit:10;" d="M 112.777344 270.085938 L 112.777344 319.339844 "/>
<path style="fill-rule:nonzero;fill:rgb(100%,100%,100%);fill-opacity:1;stroke-width:1.422638;stroke-linecap:round;stroke-linejoin:round;stroke:rgb(20%,20%,20%);stroke-opacity:1;stroke-miterlimit:10;" d="M 72.75 230.683594 L 72.75 270.085938 L 152.804688 270.085938 L 152.804688 230.683594 Z M 72.75 230.683594 "/>
<path style="fill:none;stroke-width:2.845276;stroke-linecap:butt;stroke-linejoin:round;stroke:rgb(20%,20%,20%);stroke-opacity:1;stroke-miterlimit:10;" d="M 72.75 250.382812 L 152.804688 250.382812 "/>
<path style="fill-rule:nonzero;fill:rgb(20%,20%,20%);fill-opacity:1;stroke-width:0.944882;stroke-linecap:round;stroke-linejoin:round;stroke:rgb(20%,20%,20%);stroke-opacity:1;stroke-miterlimit:10;" d="M 221.96875 67.359375 C 221.96875 70.632812 217.058594 70.632812 217.058594 67.359375 C 217.058594 64.085938 221.96875 64.085938 221.96875 67.359375 "/>
<path style="fill-rule:nonzero;fill:rgb(20%,20%,20%);fill-opacity:1;stroke-width:0.944882;stroke-linecap:round;stroke-linejoin:round;stroke:rgb(20%,20%,20%);stroke-opacity:1;stroke-miterlimit:10;" d="M 221.96875 38.003906 C 221.96875 41.277344 217.058594 41.277344 217.058594 38.003906 C 217.058594 34.730469 221.96875 34.730469 221.96875 38.003906 "/>
<path style="fill-rule:nonzero;fill:rgb(20%,20%,20%);fill-opacity:1;stroke-width:0.944882;stroke-linecap:round;stroke-linejoin:round;stroke:rgb(20%,20%,20%);stroke-opacity:1;stroke-miterlimit:10;" d="M 221.96875 102.625 C 221.96875 105.898438 217.058594 105.898438 217.058594 102.625 C 217.058594 99.351562 221.96875 99.351562 221.96875 102.625 "/>
<path style="fill-rule:nonzero;fill:rgb(20%,20%,20%);fill-opacity:1;stroke-width:0.944882;stroke-linecap:round;stroke-linejoin:round;stroke:rgb(20%,20%,20%);stroke-opacity:1;stroke-miterlimit:10;" d="M 221.96875 108.535156 C 221.96875 111.808594 217.058594 111.808594 217.058594 108.535156 C 217.058594 105.261719 221.96875 105.261719 221.96875 108.535156 "/>
<path style="fill-rule:nonzero;fill:rgb(20%,20%,20%);fill-opacity:1;stroke-width:0.944882;stroke-linecap:round;stroke-linejoin:round;stroke:rgb(20%,20%,20%);stroke-opacity:1;stroke-miterlimit:10;" d="M 221.96875 59.871094 C 221.96875 63.144531 217.058594 63.144531 217.058594 59.871094 C 217.058594 56.597656 221.96875 56.597656 221.96875 59.871094 "/>
<path style="fill-rule:nonzero;fill:rgb(20%,20%,20%);fill-opacity:1;stroke-width:0.944882;stroke-linecap:round;stroke-linejoin:round;stroke:rgb(20%,20%,20%);stroke-opacity:1;stroke-miterlimit:10;" d="M 221.96875 92.773438 C 221.96875 96.046875 217.058594 96.046875 217.058594 92.773438 C 217.058594 89.5 221.96875 89.5 221.96875 92.773438 "/>
<path style="fill-rule:nonzero;fill:rgb(20%,20%,20%);fill-opacity:1;stroke-width:0.944882;stroke-linecap:round;stroke-linejoin:round;stroke:rgb(20%,20%,20%);stroke-opacity:1;stroke-miterlimit:10;" d="M 221.96875 82.921875 C 221.96875 86.195312 217.058594 86.195312 217.058594 82.921875 C 217.058594 79.648438 221.96875 79.648438 221.96875 82.921875 "/>
<path style="fill-rule:nonzero;fill:rgb(20%,20%,20%);fill-opacity:1;stroke-width:0.944882;stroke-linecap:round;stroke-linejoin:round;stroke:rgb(20%,20%,20%);stroke-opacity:1;stroke-miterlimit:10;" d="M 221.96875 40.171875 C 221.96875 43.445312 217.058594 43.445312 217.058594 40.171875 C 217.058594 36.898438 221.96875 36.898438 221.96875 40.171875 "/>
<path style="fill-rule:nonzero;fill:rgb(20%,20%,20%);fill-opacity:1;stroke-width:0.944882;stroke-linecap:round;stroke-linejoin:round;stroke:rgb(20%,20%,20%);stroke-opacity:1;stroke-miterlimit:10;" d="M 221.96875 75.4375 C 221.96875 78.707031 217.058594 78.707031 217.058594 75.4375 C 217.058594 72.164062 221.96875 72.164062 221.96875 75.4375 "/>
<path style="fill:none;stroke-width:1.422638;stroke-linecap:butt;stroke-linejoin:round;stroke:rgb(20%,20%,20%);stroke-opacity:1;stroke-miterlimit:10;" d="M 219.511719 205.660156 L 219.511719 118.976562 "/>
<path style="fill:none;stroke-width:1.422638;stroke-linecap:butt;stroke-linejoin:round;stroke:rgb(20%,20%,20%);stroke-opacity:1;stroke-miterlimit:10;" d="M 219.511719 266.144531 L 219.511719 319.339844 "/>
<path style="fill-rule:nonzero;fill:rgb(100%,100%,100%);fill-opacity:1;stroke-width:1.422638;stroke-linecap:round;stroke-linejoin:round;stroke:rgb(20%,20%,20%);stroke-opacity:1;stroke-miterlimit:10;" d="M 179.488281 205.660156 L 179.488281 266.144531 L 259.539062 266.144531 L 259.539062 205.660156 Z M 179.488281 205.660156 "/>
<path style="fill:none;stroke-width:2.845276;stroke-linecap:butt;stroke-linejoin:round;stroke:rgb(20%,20%,20%);stroke-opacity:1;stroke-miterlimit:10;" d="M 179.488281 236.789062 L 259.539062 236.789062 "/>
<path style="fill:none;stroke-width:1.422638;stroke-linecap:butt;stroke-linejoin:round;stroke:rgb(20%,20%,20%);stroke-opacity:1;stroke-miterlimit:10;" d="M 326.25 82.378906 L 326.25 56.71875 "/>
<path style="fill:none;stroke-width:1.422638;stroke-linecap:butt;stroke-linejoin:round;stroke:rgb(20%,20%,20%);stroke-opacity:1;stroke-miterlimit:10;" d="M 326.25 191.28125 L 326.25 240.53125 "/>
<path style="fill-rule:nonzero;fill:rgb(100%,100%,100%);fill-opacity:1;stroke-width:1.422638;stroke-linecap:round;stroke-linejoin:round;stroke:rgb(20%,20%,20%);stroke-opacity:1;stroke-miterlimit:10;" d="M 286.222656 82.378906 L 286.222656 191.28125 L 366.273438 191.28125 L 366.273438 82.378906 Z M 286.222656 82.378906 "/>
<path style="fill:none;stroke-width:2.845276;stroke-linecap:butt;stroke-linejoin:round;stroke:rgb(20%,20%,20%);stroke-opacity:1;stroke-miterlimit:10;" d="M 286.222656 139.5625 L 366.273438 139.5625 "/>
<path style="fill:none;stroke-width:1.422638;stroke-linecap:butt;stroke-linejoin:round;stroke:rgb(20%,20%,20%);stroke-opacity:1;stroke-miterlimit:10;" d="M 432.984375 110.40625 L 432.984375 70.3125 "/>
<path style="fill:none;stroke-width:1.422638;stroke-linecap:butt;stroke-linejoin:round;stroke:rgb(20%,20%,20%);stroke-opacity:1;stroke-miterlimit:10;" d="M 432.984375 190.589844 L 432.984375 230.683594 "/>
<path style="fill-rule:nonzero;fill:rgb(100%,100%,100%);fill-opacity:1;stroke-width:1.422638;stroke-linecap:round;stroke-linejoin:round;stroke:rgb(20%,20%,20%);stroke-opacity:1;stroke-miterlimit:10;" d="M 392.957031 110.40625 L 392.957031 190.589844 L 473.011719 190.589844 L 473.011719 110.40625 Z M 392.957031 110.40625 "/>
<path style="fill:none;stroke-width:2.845276;stroke-linecap:butt;stroke-linejoin:round;stroke:rgb(20%,20%,20%);stroke-opacity:1;stroke-miterlimit:10;" d="M 392.957031 150.496094 L 473.011719 150.496094 "/>
<path style="fill:none;stroke-width:1.422638;stroke-linecap:butt;stroke-linejoin:round;stroke:rgb(0%,0%,0%);stroke-opacity:1;stroke-miterlimit:10;" d="M 48.734375 334.210938 L 48.734375 6.972656 "/>
<path style=" stroke:none;fill-rule:evenodd;fill:rgb(0%,0%,0%);fill-opacity:1;" d="M 30.238281 250.378906 L 30.234375 250.652344 L 30.226562 250.917969 L 30.214844 251.171875 L 30.195312 251.421875 L 30.171875 251.660156 L 30.140625 251.886719 L 30.105469 252.109375 L 30.066406 252.320312 L 30.019531 252.523438 L 29.96875 252.71875 L 29.917969 252.902344 L 29.859375 253.082031 L 29.796875 253.253906 L 29.730469 253.414062 L 29.660156 253.574219 L 29.585938 253.722656 L 29.507812 253.863281 L 29.429688 254 L 29.34375 254.128906 L 29.253906 254.25 L 29.160156 254.363281 L 29.066406 254.46875 L 28.96875 254.566406 L 28.867188 254.660156 L 28.761719 254.75 L 28.652344 254.828125 L 28.539062 254.902344 L 28.425781 254.96875 L 28.308594 255.03125 L 28.1875 255.082031 L 28.0625 255.132812 L 27.9375 255.175781 L 27.679688 255.246094 L 27.550781 255.273438 L 27.417969 255.296875 L 27.285156 255.3125 L 27.148438 255.324219 L 27.011719 255.332031 L 26.875 255.335938 L 26.734375 255.332031 L 26.597656 255.324219 L 26.460938 255.3125 L 26.324219 255.296875 L 26.195312 255.273438 L 26.0625 255.246094 L 25.933594 255.210938 L 25.808594 255.175781 L 25.683594 255.132812 L 25.441406 255.03125 L 25.324219 254.96875 L 25.210938 254.902344 L 25.101562 254.828125 L 24.992188 254.75 L 24.886719 254.660156 L 24.785156 254.566406 L 24.6875 254.46875 L 24.59375 254.363281 L 24.5 254.25 L 24.414062 254.128906 L 24.332031 254.003906 L 24.25 253.867188 L 24.175781 253.726562 L 24.105469 253.578125 L 24.035156 253.421875 L 23.96875 253.257812 L 23.910156 253.085938 L 23.851562 252.910156 L 23.796875 252.726562 L 23.75 252.53125 L 23.707031 252.328125 L 23.667969 252.113281 L 23.636719 251.894531 L 23.609375 251.664062 L 23.585938 251.425781 L 23.566406 251.175781 L 23.554688 250.921875 L 23.546875 250.65625 L 23.542969 250.378906 L 23.546875 250.09375 L 23.554688 249.816406 L 23.566406 249.550781 L 23.585938 249.296875 L 23.609375 249.050781 L 23.636719 248.816406 L 23.667969 248.589844 L 23.707031 248.375 L 23.75 248.167969 L 23.796875 247.972656 L 23.851562 247.785156 L 23.910156 247.605469 L 23.972656 247.433594 L 24.035156 247.269531 L 24.105469 247.113281 L 24.179688 246.964844 L 24.253906 246.824219 L 24.335938 246.691406 L 24.421875 246.566406 L 24.507812 246.449219 L 24.601562 246.339844 L 24.695312 246.234375 L 24.792969 246.140625 L 24.894531 246.050781 L 25 245.96875 L 25.109375 245.890625 L 25.21875 245.824219 L 25.335938 245.761719 L 25.453125 245.703125 L 25.574219 245.65625 L 25.699219 245.613281 L 25.824219 245.574219 L 25.953125 245.539062 L 26.085938 245.507812 L 26.21875 245.480469 L 26.351562 245.460938 L 26.488281 245.445312 L 26.628906 245.433594 L 26.769531 245.425781 L 27.050781 245.425781 L 27.1875 245.433594 L 27.320312 245.445312 L 27.453125 245.460938 L 27.582031 245.480469 L 27.710938 245.507812 L 27.839844 245.539062 L 27.960938 245.574219 L 28.085938 245.613281 L 28.207031 245.65625 L 28.328125 245.703125 L 28.445312 245.761719 L 28.558594 245.824219 L 28.667969 245.890625 L 28.777344 245.96875 L 28.878906 246.050781 L 28.980469 246.140625 L 29.078125 246.234375 L 29.175781 246.339844 L 29.265625 246.449219 L 29.355469 246.566406 L 29.4375 246.691406 L 29.519531 246.824219 L 29.597656 246.964844 L 29.667969 247.113281 L 29.738281 247.269531 L 29.804688 247.433594 L 29.867188 247.605469 L 29.921875 247.785156 L 29.976562 247.972656 L 30.027344 248.167969 L 30.070312 248.375 L 30.109375 248.589844 L 30.144531 248.816406 L 30.171875 249.050781 L 30.195312 249.296875 L 30.214844 249.550781 L 30.226562 249.816406 L 30.234375 250.09375 Z M 28.984375 250.378906 L 28.984375 250.15625 L 28.980469 249.9375 L 28.972656 249.726562 L 28.964844 249.523438 L 28.953125 249.328125 L 28.9375 249.140625 L 28.917969 248.964844 L 28.898438 248.792969 L 28.875 248.628906 L 28.847656 248.472656 L 28.820312 248.324219 L 28.789062 248.179688 L 28.753906 248.042969 L 28.71875 247.910156 L 28.679688 247.785156 L 28.636719 247.667969 L 28.59375 247.554688 L 28.546875 247.449219 L 28.5 247.347656 L 28.390625 247.167969 L 28.335938 247.082031 L 28.273438 247.007812 L 28.214844 246.933594 L 28.148438 246.867188 L 28.082031 246.804688 L 28.011719 246.75 L 27.941406 246.699219 L 27.867188 246.652344 L 27.789062 246.613281 L 27.632812 246.542969 L 27.550781 246.515625 L 27.378906 246.46875 L 27.292969 246.453125 L 27.199219 246.4375 L 27.105469 246.429688 L 27.011719 246.425781 L 26.914062 246.421875 L 26.710938 246.429688 L 26.613281 246.4375 L 26.425781 246.46875 L 26.246094 246.515625 L 26.164062 246.542969 L 26.078125 246.578125 L 26 246.613281 L 25.84375 246.699219 L 25.703125 246.808594 L 25.632812 246.871094 L 25.566406 246.9375 L 25.503906 247.011719 L 25.441406 247.089844 L 25.386719 247.175781 L 25.328125 247.261719 L 25.277344 247.355469 L 25.226562 247.457031 L 25.179688 247.5625 L 25.136719 247.675781 L 25.09375 247.792969 L 25.054688 247.917969 L 25.019531 248.046875 L 24.984375 248.1875 L 24.953125 248.328125 L 24.925781 248.480469 L 24.898438 248.636719 L 24.875 248.796875 L 24.855469 248.96875 L 24.839844 249.148438 L 24.824219 249.335938 L 24.8125 249.527344 L 24.800781 249.730469 L 24.792969 249.9375 L 24.789062 250.15625 L 24.789062 250.597656 L 24.792969 250.808594 L 24.800781 251.011719 L 24.8125 251.210938 L 24.824219 251.398438 L 24.839844 251.582031 L 24.855469 251.757812 L 24.875 251.929688 L 24.898438 252.089844 L 24.925781 252.246094 L 24.957031 252.394531 L 24.988281 252.539062 L 25.023438 252.675781 L 25.058594 252.804688 L 25.101562 252.929688 L 25.140625 253.050781 L 25.1875 253.164062 L 25.234375 253.273438 L 25.285156 253.375 L 25.335938 253.46875 L 25.390625 253.558594 L 25.449219 253.644531 L 25.511719 253.722656 L 25.574219 253.796875 L 25.636719 253.863281 L 25.707031 253.929688 L 25.777344 253.988281 L 25.847656 254.039062 L 25.921875 254.089844 L 26 254.132812 L 26.078125 254.171875 L 26.242188 254.234375 L 26.328125 254.261719 L 26.414062 254.28125 L 26.503906 254.300781 L 26.691406 254.324219 L 26.886719 254.332031 L 26.984375 254.328125 L 27.078125 254.324219 L 27.171875 254.3125 L 27.261719 254.300781 L 27.433594 254.261719 L 27.519531 254.234375 L 27.683594 254.171875 L 27.761719 254.132812 L 27.839844 254.089844 L 27.914062 254.039062 L 27.984375 253.988281 L 28.054688 253.929688 L 28.1875 253.796875 L 28.246094 253.722656 L 28.308594 253.644531 L 28.363281 253.558594 L 28.417969 253.46875 L 28.472656 253.375 L 28.523438 253.273438 L 28.570312 253.164062 L 28.617188 253.050781 L 28.660156 252.929688 L 28.699219 252.804688 L 28.738281 252.675781 L 28.773438 252.539062 L 28.804688 252.394531 L 28.835938 252.246094 L 28.863281 252.089844 L 28.890625 251.929688 L 28.914062 251.757812 L 28.933594 251.582031 L 28.949219 251.398438 L 28.960938 251.210938 L 28.972656 251.011719 L 28.980469 250.808594 L 28.984375 250.597656 Z M 28.984375 250.378906 "/>
<path style=" stroke:none;fill-rule:evenodd;fill:rgb(0%,0%,0%);fill-opacity:1;" d="M 32.0625 255.199219 L 32.0625 253.703125 L 33.394531 253.703125 L 33.394531 255.199219 Z M 32.0625 255.199219 "/>
<path style=" stroke:none;fill-rule:evenodd;fill:rgb(0%,0%,0%);fill-opacity:1;" d="M 41.871094 252.0625 L 41.871094 252.207031 L 41.863281 252.347656 L 41.851562 252.484375 L 41.835938 252.621094 L 41.816406 252.753906 L 41.792969 252.886719 L 41.765625 253.015625 L 41.695312 253.265625 L 41.652344 253.386719 L 41.605469 253.507812 L 41.558594 253.621094 L 41.503906 253.734375 L 41.445312 253.84375 L 41.382812 253.949219 L 41.3125 254.050781 L 41.242188 254.148438 L 41.167969 254.246094 L 41.003906 254.425781 L 40.914062 254.511719 L 40.824219 254.589844 L 40.726562 254.667969 L 40.625 254.742188 L 40.519531 254.808594 L 40.410156 254.875 L 40.296875 254.9375 L 40.179688 254.992188 L 40.058594 255.046875 L 39.929688 255.097656 L 39.800781 255.140625 L 39.667969 255.183594 L 39.53125 255.21875 L 39.390625 255.25 L 39.242188 255.277344 L 39.09375 255.296875 L 38.941406 255.316406 L 38.78125 255.328125 L 38.621094 255.332031 L 38.453125 255.335938 L 38.304688 255.335938 L 38.15625 255.328125 L 38.015625 255.320312 L 37.878906 255.308594 L 37.742188 255.292969 L 37.613281 255.273438 L 37.484375 255.25 L 37.363281 255.222656 L 37.242188 255.191406 L 37.128906 255.160156 L 37.015625 255.121094 L 36.910156 255.082031 L 36.707031 254.996094 L 36.609375 254.949219 L 36.515625 254.898438 L 36.425781 254.847656 L 36.339844 254.789062 L 36.257812 254.734375 L 36.175781 254.671875 L 36.101562 254.609375 L 36.027344 254.542969 L 35.957031 254.476562 L 35.890625 254.40625 L 35.765625 254.257812 L 35.710938 254.183594 L 35.65625 254.105469 L 35.554688 253.941406 L 35.511719 253.859375 L 35.46875 253.773438 L 35.433594 253.6875 L 35.394531 253.597656 L 35.332031 253.417969 L 35.304688 253.328125 L 35.277344 253.234375 L 35.253906 253.140625 L 35.234375 253.046875 L 36.476562 252.902344 L 36.492188 252.957031 L 36.511719 253.011719 L 36.527344 253.066406 L 36.546875 253.117188 L 36.570312 253.171875 L 36.589844 253.226562 L 36.613281 253.277344 L 36.636719 253.332031 L 36.664062 253.382812 L 36.691406 253.4375 L 36.71875 253.484375 L 36.75 253.535156 L 36.78125 253.582031 L 36.851562 253.675781 L 36.890625 253.722656 L 36.96875 253.808594 L 37.015625 253.851562 L 37.058594 253.894531 L 37.109375 253.933594 L 37.160156 253.96875 L 37.210938 254.007812 L 37.265625 254.039062 L 37.324219 254.074219 L 37.382812 254.105469 L 37.445312 254.132812 L 37.507812 254.164062 L 37.574219 254.191406 L 37.640625 254.214844 L 37.710938 254.238281 L 37.785156 254.257812 L 37.941406 254.289062 L 38.023438 254.300781 L 38.109375 254.3125 L 38.289062 254.328125 L 38.382812 254.332031 L 38.480469 254.332031 L 38.667969 254.324219 L 38.761719 254.316406 L 38.851562 254.308594 L 38.9375 254.296875 L 39.023438 254.28125 L 39.109375 254.261719 L 39.191406 254.238281 L 39.269531 254.214844 L 39.347656 254.1875 L 39.425781 254.15625 L 39.574219 254.085938 L 39.640625 254.046875 L 39.710938 254.003906 L 39.773438 253.957031 L 39.839844 253.910156 L 39.898438 253.859375 L 39.957031 253.804688 L 40.011719 253.75 L 40.066406 253.691406 L 40.121094 253.628906 L 40.167969 253.566406 L 40.214844 253.5 L 40.261719 253.429688 L 40.300781 253.359375 L 40.339844 253.285156 L 40.378906 253.207031 L 40.410156 253.128906 L 40.441406 253.046875 L 40.472656 252.960938 L 40.496094 252.875 L 40.519531 252.785156 L 40.539062 252.691406 L 40.554688 252.597656 L 40.570312 252.5 L 40.578125 252.402344 L 40.585938 252.300781 L 40.59375 252.195312 L 40.59375 252 L 40.585938 251.914062 L 40.582031 251.828125 L 40.558594 251.664062 L 40.542969 251.582031 L 40.523438 251.503906 L 40.5 251.425781 L 40.476562 251.351562 L 40.421875 251.203125 L 40.386719 251.128906 L 40.351562 251.058594 L 40.316406 250.992188 L 40.277344 250.925781 L 40.234375 250.863281 L 40.1875 250.804688 L 40.140625 250.742188 L 40.09375 250.6875 L 39.984375 250.578125 L 39.929688 250.527344 L 39.867188 250.480469 L 39.808594 250.433594 L 39.675781 250.347656 L 39.605469 250.308594 L 39.535156 250.273438 L 39.460938 250.242188 L 39.304688 250.179688 L 39.226562 250.15625 L 39.144531 250.132812 L 39.058594 250.113281 L 38.886719 250.082031 L 38.605469 250.058594 L 38.449219 250.058594 L 38.386719 250.0625 L 38.328125 250.0625 L 38.269531 250.066406 L 38.214844 250.074219 L 38.15625 250.078125 L 37.992188 250.101562 L 37.789062 250.148438 L 37.738281 250.164062 L 37.691406 250.179688 L 37.640625 250.195312 L 37.546875 250.226562 L 37.5 250.246094 L 37.328125 250.324219 L 37.285156 250.347656 L 37.246094 250.367188 L 37.128906 250.4375 L 37.089844 250.464844 L 37.050781 250.488281 L 37.015625 250.515625 L 36.980469 250.539062 L 36.949219 250.566406 L 36.914062 250.589844 L 36.878906 250.617188 L 36.847656 250.640625 L 36.8125 250.667969 L 36.71875 250.75 L 35.515625 250.75 L 35.835938 245.566406 L 41.3125 245.566406 L 41.3125 246.613281 L 36.957031 246.613281 L 36.773438 249.667969 L 36.839844 249.621094 L 36.910156 249.570312 L 36.984375 249.523438 L 37.0625 249.480469 L 37.140625 249.433594 L 37.226562 249.394531 L 37.3125 249.351562 L 37.402344 249.3125 L 37.496094 249.273438 L 37.691406 249.203125 L 37.796875 249.171875 L 37.90625 249.144531 L 38.015625 249.121094 L 38.25 249.082031 L 38.371094 249.070312 L 38.628906 249.054688 L 38.902344 249.054688 L 39.042969 249.0625 L 39.179688 249.074219 L 39.3125 249.089844 L 39.445312 249.109375 L 39.570312 249.132812 L 39.695312 249.160156 L 39.9375 249.230469 L 40.054688 249.273438 L 40.167969 249.316406 L 40.277344 249.367188 L 40.382812 249.421875 L 40.484375 249.476562 L 40.585938 249.539062 L 40.679688 249.601562 L 40.773438 249.667969 L 40.863281 249.742188 L 40.949219 249.816406 L 41.03125 249.894531 L 41.109375 249.976562 L 41.183594 250.058594 L 41.257812 250.148438 L 41.324219 250.238281 L 41.449219 250.425781 L 41.558594 250.628906 L 41.609375 250.734375 L 41.652344 250.84375 L 41.695312 250.957031 L 41.730469 251.070312 L 41.765625 251.1875 L 41.792969 251.304688 L 41.816406 251.425781 L 41.835938 251.546875 L 41.851562 251.671875 L 41.863281 251.800781 L 41.871094 251.929688 Z M 41.871094 252.0625 "/>
<path style=" stroke:none;fill-rule:evenodd;fill:rgb(0%,0%,0%);fill-opacity:1;" d="M 24.0625 156.691406 L 24.0625 155.648438 L 26.519531 155.648438 L 26.519531 148.238281 L 24.34375 149.789062 L 24.34375 148.625 L 26.621094 147.0625 L 27.753906 147.0625 L 27.753906 155.648438 L 30.101562 155.648438 L 30.101562 156.691406 Z M 24.0625 156.691406 "/>
<path style=" stroke:none;fill-rule:evenodd;fill:rgb(0%,0%,0%);fill-opacity:1;" d="M 32.0625 156.691406 L 32.0625 155.195312 L 33.394531 155.195312 L 33.394531 156.691406 Z M 32.0625 156.691406 "/>
<path style=" stroke:none;fill-rule:evenodd;fill:rgb(0%,0%,0%);fill-opacity:1;" d="M 41.914062 151.875 L 41.910156 152.148438 L 41.902344 152.410156 L 41.890625 152.667969 L 41.871094 152.914062 L 41.847656 153.152344 L 41.816406 153.382812 L 41.78125 153.601562 L 41.742188 153.8125 L 41.695312 154.015625 L 41.644531 154.210938 L 41.59375 154.398438 L 41.535156 154.574219 L 41.472656 154.746094 L 41.40625 154.910156 L 41.335938 155.066406 L 41.261719 155.214844 L 41.183594 155.359375 L 41.105469 155.492188 L 41.019531 155.621094 L 40.929688 155.742188 L 40.835938 155.855469 L 40.742188 155.960938 L 40.644531 156.0625 L 40.542969 156.15625 L 40.4375 156.242188 L 40.328125 156.320312 L 40.214844 156.394531 L 40.101562 156.460938 L 39.984375 156.523438 L 39.863281 156.578125 L 39.738281 156.625 L 39.613281 156.667969 L 39.484375 156.707031 L 39.355469 156.738281 L 39.226562 156.765625 L 39.09375 156.789062 L 38.960938 156.808594 L 38.824219 156.820312 L 38.6875 156.828125 L 38.410156 156.828125 L 38.273438 156.820312 L 38.136719 156.808594 L 38 156.789062 L 37.871094 156.765625 L 37.738281 156.738281 L 37.609375 156.707031 L 37.484375 156.667969 L 37.359375 156.625 L 37.238281 156.578125 L 37.117188 156.523438 L 37 156.460938 L 36.886719 156.394531 L 36.777344 156.320312 L 36.667969 156.242188 L 36.5625 156.15625 L 36.460938 156.0625 L 36.363281 155.960938 L 36.269531 155.855469 L 36.175781 155.742188 L 36.089844 155.621094 L 36.007812 155.496094 L 35.925781 155.363281 L 35.851562 155.21875 L 35.78125 155.070312 L 35.710938 154.914062 L 35.644531 154.75 L 35.585938 154.582031 L 35.527344 154.402344 L 35.472656 154.21875 L 35.425781 154.023438 L 35.382812 153.820312 L 35.34375 153.609375 L 35.3125 153.386719 L 35.285156 153.15625 L 35.261719 152.917969 L 35.242188 152.671875 L 35.230469 152.414062 L 35.222656 152.148438 L 35.21875 151.875 L 35.222656 151.585938 L 35.230469 151.3125 L 35.242188 151.046875 L 35.261719 150.789062 L 35.285156 150.542969 L 35.3125 150.308594 L 35.34375 150.082031 L 35.382812 149.867188 L 35.425781 149.664062 L 35.472656 149.46875 L 35.527344 149.28125 L 35.585938 149.101562 L 35.648438 148.929688 L 35.710938 148.765625 L 35.78125 148.609375 L 35.855469 148.460938 L 35.929688 148.320312 L 36.011719 148.183594 L 36.097656 148.058594 L 36.183594 147.941406 L 36.277344 147.832031 L 36.371094 147.730469 L 36.46875 147.632812 L 36.570312 147.542969 L 36.675781 147.460938 L 36.785156 147.386719 L 36.894531 147.316406 L 37.011719 147.253906 L 37.128906 147.199219 L 37.25 147.148438 L 37.375 147.105469 L 37.5 147.066406 L 37.628906 147.03125 L 37.761719 147 L 38.027344 146.953125 L 38.164062 146.9375 L 38.304688 146.925781 L 38.445312 146.917969 L 38.726562 146.917969 L 38.863281 146.925781 L 38.996094 146.9375 L 39.128906 146.953125 L 39.386719 147 L 39.515625 147.03125 L 39.636719 147.066406 L 39.761719 147.105469 L 39.882812 147.148438 L 40.003906 147.199219 L 40.121094 147.253906 L 40.234375 147.316406 L 40.34375 147.386719 L 40.453125 147.460938 L 40.554688 147.542969 L 40.65625 147.632812 L 40.753906 147.730469 L 40.851562 147.832031 L 40.941406 147.941406 L 41.03125 148.058594 L 41.113281 148.183594 L 41.195312 148.320312 L 41.273438 148.460938 L 41.34375 148.609375 L 41.414062 148.765625 L 41.480469 148.929688 L 41.542969 149.101562 L 41.597656 149.28125 L 41.652344 149.46875 L 41.703125 149.664062 L 41.746094 149.867188 L 41.785156 150.082031 L 41.820312 150.308594 L 41.847656 150.542969 L 41.871094 150.789062 L 41.890625 151.046875 L 41.902344 151.3125 L 41.910156 151.585938 Z M 40.660156 151.875 L 40.660156 151.648438 L 40.65625 151.429688 L 40.648438 151.21875 L 40.640625 151.015625 L 40.628906 150.824219 L 40.613281 150.636719 L 40.59375 150.457031 L 40.574219 150.285156 L 40.550781 150.121094 L 40.523438 149.964844 L 40.496094 149.816406 L 40.464844 149.671875 L 40.429688 149.535156 L 40.394531 149.402344 L 40.355469 149.28125 L 40.3125 149.160156 L 40.269531 149.046875 L 40.222656 148.941406 L 40.175781 148.84375 L 40.121094 148.75 L 40.066406 148.660156 L 40.011719 148.578125 L 39.949219 148.5 L 39.890625 148.425781 L 39.824219 148.359375 L 39.757812 148.296875 L 39.6875 148.242188 L 39.617188 148.191406 L 39.542969 148.148438 L 39.464844 148.105469 L 39.386719 148.070312 L 39.308594 148.039062 L 39.226562 148.007812 L 39.140625 147.984375 L 38.96875 147.945312 L 38.78125 147.921875 L 38.6875 147.917969 L 38.589844 147.914062 L 38.386719 147.921875 L 38.289062 147.933594 L 38.195312 147.945312 L 38.101562 147.964844 L 38.011719 147.984375 L 37.921875 148.007812 L 37.839844 148.039062 L 37.753906 148.070312 L 37.675781 148.105469 L 37.597656 148.148438 L 37.519531 148.195312 L 37.449219 148.246094 L 37.378906 148.300781 L 37.308594 148.363281 L 37.242188 148.433594 L 37.179688 148.503906 L 37.117188 148.582031 L 37.0625 148.667969 L 37.003906 148.757812 L 36.953125 148.851562 L 36.902344 148.949219 L 36.855469 149.054688 L 36.8125 149.167969 L 36.769531 149.285156 L 36.730469 149.410156 L 36.695312 149.542969 L 36.660156 149.679688 L 36.628906 149.824219 L 36.601562 149.972656 L 36.574219 150.128906 L 36.550781 150.292969 L 36.53125 150.460938 L 36.515625 150.640625 L 36.5 150.828125 L 36.488281 151.023438 L 36.476562 151.222656 L 36.46875 151.433594 L 36.464844 151.648438 L 36.464844 152.089844 L 36.46875 152.300781 L 36.476562 152.507812 L 36.488281 152.703125 L 36.5 152.894531 L 36.515625 153.078125 L 36.53125 153.253906 L 36.550781 153.421875 L 36.574219 153.585938 L 36.601562 153.738281 L 36.632812 153.886719 L 36.664062 154.03125 L 36.699219 154.167969 L 36.734375 154.300781 L 36.777344 154.425781 L 36.816406 154.542969 L 36.863281 154.65625 L 36.910156 154.765625 L 36.960938 154.867188 L 37.011719 154.964844 L 37.066406 155.050781 L 37.125 155.136719 L 37.1875 155.214844 L 37.25 155.289062 L 37.3125 155.359375 L 37.382812 155.421875 L 37.453125 155.480469 L 37.523438 155.535156 L 37.597656 155.582031 L 37.675781 155.625 L 37.753906 155.664062 L 37.835938 155.699219 L 37.917969 155.726562 L 38.003906 155.753906 L 38.089844 155.773438 L 38.179688 155.792969 L 38.273438 155.808594 L 38.367188 155.816406 L 38.464844 155.824219 L 38.660156 155.824219 L 38.847656 155.808594 L 38.9375 155.792969 L 39.109375 155.753906 L 39.195312 155.726562 L 39.277344 155.699219 L 39.359375 155.664062 L 39.4375 155.625 L 39.515625 155.582031 L 39.589844 155.535156 L 39.660156 155.480469 L 39.730469 155.421875 L 39.796875 155.359375 L 39.863281 155.289062 L 39.921875 155.214844 L 39.984375 155.136719 L 40.09375 154.964844 L 40.148438 154.867188 L 40.199219 154.765625 L 40.246094 154.65625 L 40.292969 154.542969 L 40.335938 154.425781 L 40.375 154.300781 L 40.414062 154.167969 L 40.449219 154.03125 L 40.480469 153.886719 L 40.511719 153.738281 L 40.539062 153.585938 L 40.566406 153.421875 L 40.589844 153.253906 L 40.609375 153.078125 L 40.625 152.894531 L 40.636719 152.703125 L 40.648438 152.507812 L 40.65625 152.300781 L 40.660156 152.089844 Z M 40.660156 151.875 "/>
<path style=" stroke:none;fill-rule:evenodd;fill:rgb(0%,0%,0%);fill-opacity:1;" d="M 24.0625 58.1875 L 24.0625 57.140625 L 26.519531 57.140625 L 26.519531 49.730469 L 24.34375 51.28125 L 24.34375 50.121094 L 26.621094 48.554688 L 27.753906 48.554688 L 27.753906 57.140625 L 30.101562 57.140625 L 30.101562 58.1875 Z M 24.0625 58.1875 "/>
<path style=" stroke:none;fill-rule:evenodd;fill:rgb(0%,0%,0%);fill-opacity:1;" d="M 32.0625 58.1875 L 32.0625 56.6875 L 33.394531 56.6875 L 33.394531 58.1875 Z M 32.0625 58.1875 "/>
<path style=" stroke:none;fill-rule:evenodd;fill:rgb(0%,0%,0%);fill-opacity:1;" d="M 41.871094 55.046875 L 41.871094 55.191406 L 41.863281 55.332031 L 41.851562 55.472656 L 41.835938 55.609375 L 41.816406 55.742188 L 41.792969 55.875 L 41.765625 56.003906 L 41.695312 56.253906 L 41.652344 56.375 L 41.558594 56.609375 L 41.503906 56.722656 L 41.445312 56.828125 L 41.382812 56.933594 L 41.3125 57.039062 L 41.242188 57.136719 L 41.167969 57.230469 L 41.085938 57.324219 L 41.003906 57.414062 L 40.914062 57.5 L 40.824219 57.578125 L 40.726562 57.65625 L 40.625 57.726562 L 40.519531 57.796875 L 40.410156 57.863281 L 40.296875 57.921875 L 40.179688 57.980469 L 40.058594 58.035156 L 39.800781 58.128906 L 39.667969 58.171875 L 39.53125 58.207031 L 39.390625 58.238281 L 39.09375 58.285156 L 38.941406 58.300781 L 38.78125 58.3125 L 38.621094 58.320312 L 38.453125 58.324219 L 38.15625 58.316406 L 38.015625 58.308594 L 37.742188 58.277344 L 37.613281 58.257812 L 37.484375 58.234375 L 37.363281 58.210938 L 37.242188 58.179688 L 37.015625 58.109375 L 36.910156 58.070312 L 36.808594 58.027344 L 36.707031 57.980469 L 36.609375 57.933594 L 36.515625 57.886719 L 36.425781 57.832031 L 36.339844 57.777344 L 36.175781 57.660156 L 36.101562 57.597656 L 36.027344 57.53125 L 35.957031 57.460938 L 35.890625 57.390625 L 35.828125 57.320312 L 35.765625 57.246094 L 35.65625 57.089844 L 35.605469 57.011719 L 35.554688 56.929688 L 35.46875 56.757812 L 35.433594 56.671875 L 35.394531 56.585938 L 35.332031 56.40625 L 35.304688 56.316406 L 35.277344 56.222656 L 35.253906 56.128906 L 35.234375 56.03125 L 36.476562 55.890625 L 36.492188 55.945312 L 36.511719 56 L 36.527344 56.050781 L 36.546875 56.105469 L 36.570312 56.160156 L 36.589844 56.210938 L 36.613281 56.265625 L 36.636719 56.316406 L 36.664062 56.371094 L 36.71875 56.472656 L 36.75 56.523438 L 36.78125 56.570312 L 36.851562 56.664062 L 36.890625 56.707031 L 36.929688 56.753906 L 36.96875 56.796875 L 37.015625 56.839844 L 37.058594 56.878906 L 37.160156 56.957031 L 37.210938 56.992188 L 37.265625 57.027344 L 37.382812 57.089844 L 37.445312 57.121094 L 37.507812 57.148438 L 37.640625 57.203125 L 37.710938 57.222656 L 37.785156 57.242188 L 37.863281 57.261719 L 37.941406 57.277344 L 38.023438 57.289062 L 38.109375 57.300781 L 38.199219 57.308594 L 38.289062 57.3125 L 38.382812 57.316406 L 38.574219 57.316406 L 38.667969 57.3125 L 38.761719 57.304688 L 38.851562 57.296875 L 39.023438 57.265625 L 39.109375 57.246094 L 39.191406 57.226562 L 39.269531 57.203125 L 39.347656 57.175781 L 39.425781 57.144531 L 39.5 57.109375 L 39.574219 57.070312 L 39.640625 57.03125 L 39.710938 56.988281 L 39.773438 56.945312 L 39.839844 56.898438 L 39.898438 56.847656 L 39.957031 56.792969 L 40.011719 56.738281 L 40.066406 56.679688 L 40.121094 56.617188 L 40.167969 56.554688 L 40.214844 56.488281 L 40.261719 56.417969 L 40.300781 56.347656 L 40.339844 56.273438 L 40.378906 56.195312 L 40.472656 55.949219 L 40.496094 55.859375 L 40.519531 55.773438 L 40.539062 55.679688 L 40.554688 55.585938 L 40.570312 55.488281 L 40.578125 55.390625 L 40.585938 55.285156 L 40.59375 55.183594 L 40.59375 54.988281 L 40.585938 54.902344 L 40.582031 54.816406 L 40.558594 54.652344 L 40.542969 54.570312 L 40.523438 54.492188 L 40.476562 54.335938 L 40.421875 54.1875 L 40.351562 54.046875 L 40.316406 53.980469 L 40.277344 53.914062 L 40.234375 53.851562 L 40.1875 53.789062 L 40.140625 53.730469 L 40.09375 53.675781 L 39.984375 53.566406 L 39.929688 53.515625 L 39.867188 53.46875 L 39.808594 53.421875 L 39.675781 53.335938 L 39.605469 53.296875 L 39.535156 53.261719 L 39.460938 53.226562 L 39.382812 53.195312 L 39.226562 53.140625 L 39.144531 53.121094 L 38.972656 53.082031 L 38.886719 53.070312 L 38.792969 53.058594 L 38.699219 53.050781 L 38.605469 53.046875 L 38.386719 53.046875 L 38.269531 53.054688 L 38.214844 53.058594 L 38.15625 53.066406 L 37.992188 53.089844 L 37.789062 53.136719 L 37.738281 53.152344 L 37.691406 53.164062 L 37.640625 53.179688 L 37.59375 53.195312 L 37.546875 53.214844 L 37.5 53.230469 L 37.371094 53.289062 L 37.328125 53.3125 L 37.285156 53.332031 L 37.089844 53.449219 L 37.050781 53.476562 L 37.015625 53.5 L 36.980469 53.527344 L 36.949219 53.550781 L 36.914062 53.578125 L 36.878906 53.601562 L 36.847656 53.628906 L 36.8125 53.65625 L 36.78125 53.683594 L 36.75 53.707031 L 36.71875 53.734375 L 35.515625 53.734375 L 35.835938 48.554688 L 41.3125 48.554688 L 41.3125 49.601562 L 36.957031 49.601562 L 36.773438 52.65625 L 36.839844 52.605469 L 36.910156 52.558594 L 36.984375 52.511719 L 37.0625 52.464844 L 37.140625 52.421875 L 37.226562 52.378906 L 37.3125 52.339844 L 37.402344 52.300781 L 37.496094 52.261719 L 37.691406 52.191406 L 37.796875 52.160156 L 38.015625 52.105469 L 38.132812 52.085938 L 38.25 52.070312 L 38.371094 52.058594 L 38.5 52.046875 L 38.628906 52.042969 L 38.761719 52.039062 L 38.902344 52.042969 L 39.042969 52.050781 L 39.179688 52.058594 L 39.3125 52.074219 L 39.445312 52.09375 L 39.695312 52.148438 L 39.816406 52.179688 L 39.9375 52.21875 L 40.054688 52.257812 L 40.167969 52.304688 L 40.277344 52.355469 L 40.382812 52.40625 L 40.585938 52.523438 L 40.773438 52.65625 L 40.863281 52.726562 L 40.949219 52.804688 L 41.03125 52.882812 L 41.109375 52.960938 L 41.257812 53.132812 L 41.324219 53.222656 L 41.386719 53.316406 L 41.449219 53.414062 L 41.558594 53.617188 L 41.609375 53.722656 L 41.652344 53.832031 L 41.695312 53.945312 L 41.730469 54.058594 L 41.765625 54.175781 L 41.792969 54.292969 L 41.816406 54.414062 L 41.835938 54.535156 L 41.851562 54.660156 L 41.863281 54.789062 L 41.871094 54.917969 Z M 41.871094 55.046875 "/>
<path style="fill:none;stroke-width:1.81063;stroke-linecap:butt;stroke-linejoin:round;stroke:rgb(20%,20%,20%);stroke-opacity:1;stroke-miterlimit:10;" d="M 45.25 250.382812 L 48.734375 250.382812 "/>
<path style="fill:none;stroke-width:1.81063;stroke-linecap:butt;stroke-linejoin:round;stroke:rgb(20%,20%,20%);stroke-opacity:1;stroke-miterlimit:10;" d="M 45.25 151.878906 L 48.734375 151.878906 "/>
<path style="fill:none;stroke-width:1.81063;stroke-linecap:butt;stroke-linejoin:round;stroke:rgb(20%,20%,20%);stroke-opacity:1;stroke-miterlimit:10;" d="M 45.25 53.371094 L 48.734375 53.371094 "/>
<path style="fill:none;stroke-width:1.422638;stroke-linecap:butt;stroke-linejoin:round;stroke:rgb(0%,0%,0%);stroke-opacity:1;stroke-miterlimit:10;" d="M 48.734375 334.210938 L 497.027344 334.210938 "/>
<path style="fill:none;stroke-width:1.81063;stroke-linecap:butt;stroke-linejoin:round;stroke:rgb(20%,20%,20%);stroke-opacity:1;stroke-miterlimit:10;" d="M 112.777344 337.699219 L 112.777344 334.210938 "/>
<path style="fill:none;stroke-width:1.81063;stroke-linecap:butt;stroke-linejoin:round;stroke:rgb(20%,20%,20%);stroke-opacity:1;stroke-miterlimit:10;" d="M 219.511719 337.699219 L 219.511719 334.210938 "/>
<path style="fill:none;stroke-width:1.81063;stroke-linecap:butt;stroke-linejoin:round;stroke:rgb(20%,20%,20%);stroke-opacity:1;stroke-miterlimit:10;" d="M 326.25 337.699219 L 326.25 334.210938 "/>
<path style="fill:none;stroke-width:1.81063;stroke-linecap:butt;stroke-linejoin:round;stroke:rgb(20%,20%,20%);stroke-opacity:1;stroke-miterlimit:10;" d="M 432.984375 337.699219 L 432.984375 334.210938 "/>
<path style=" stroke:none;fill-rule:evenodd;fill:rgb(0%,0%,0%);fill-opacity:1;" d="M 110.316406 341.917969 L 113.269531 341.917969 L 113.488281 338.800781 L 114.582031 338.800781 L 114.570312 339.136719 L 114.558594 339.46875 L 114.542969 339.792969 L 114.53125 340.113281 L 114.515625 340.425781 L 114.496094 340.738281 L 114.480469 341.039062 L 114.460938 341.339844 L 114.441406 341.628906 L 114.417969 341.917969 L 118.574219 341.917969 L 118.574219 342.957031 L 114.308594 342.957031 L 114.238281 343.589844 L 114.15625 344.195312 L 114.066406 344.773438 L 113.96875 345.324219 L 113.859375 345.847656 L 113.738281 346.347656 L 113.609375 346.816406 L 113.46875 347.261719 L 113.320312 347.679688 L 113.160156 348.070312 L 112.988281 348.441406 L 112.800781 348.808594 L 112.59375 349.164062 L 112.371094 349.515625 L 112.136719 349.855469 L 111.878906 350.1875 L 111.609375 350.511719 L 111.324219 350.828125 L 111.019531 351.132812 L 110.699219 351.433594 L 109.824219 350.667969 L 110.113281 350.410156 L 110.386719 350.144531 L 110.648438 349.867188 L 110.894531 349.582031 L 111.128906 349.285156 L 111.351562 348.980469 L 111.558594 348.664062 L 111.75 348.339844 L 111.929688 348.003906 L 112.09375 347.660156 L 112.246094 347.296875 L 112.390625 346.910156 L 112.523438 346.5 L 112.644531 346.066406 L 112.757812 345.609375 L 112.859375 345.125 L 112.949219 344.621094 L 113.03125 344.089844 L 113.101562 343.535156 L 113.160156 342.957031 L 110.316406 342.957031 Z M 116.058594 339.128906 L 116.265625 339.261719 L 116.46875 339.398438 L 116.667969 339.539062 L 116.863281 339.679688 L 117.058594 339.824219 L 117.433594 340.128906 L 117.617188 340.285156 L 117.796875 340.441406 L 117.972656 340.605469 L 117.261719 341.480469 L 117.074219 341.285156 L 116.699219 340.917969 L 116.507812 340.746094 L 116.320312 340.578125 L 116.125 340.417969 L 115.933594 340.261719 L 115.542969 339.972656 L 115.347656 339.839844 Z M 114.691406 344.160156 L 115.785156 344.160156 L 115.785156 349.625 L 115.789062 349.675781 L 115.796875 349.722656 L 115.820312 349.800781 L 115.851562 349.863281 L 115.871094 349.890625 L 115.894531 349.910156 L 115.921875 349.929688 L 115.957031 349.945312 L 116.003906 349.960938 L 116.0625 349.972656 L 116.132812 349.980469 L 116.214844 349.992188 L 116.3125 350 L 116.421875 350.003906 L 116.542969 350.007812 L 116.675781 350.011719 L 116.824219 350.011719 L 116.972656 350.007812 L 117.109375 350 L 117.234375 349.980469 L 117.347656 349.960938 L 117.453125 349.929688 L 117.546875 349.894531 L 117.628906 349.851562 L 117.699219 349.800781 L 117.757812 349.746094 L 117.808594 349.683594 L 117.851562 349.609375 L 117.890625 349.515625 L 117.925781 349.40625 L 117.957031 349.28125 L 117.988281 349.136719 L 118.011719 348.976562 L 118.035156 348.796875 L 118.054688 348.597656 L 118.070312 348.382812 L 118.082031 348.152344 L 119.121094 348.589844 L 119.074219 348.914062 L 119.027344 349.214844 L 118.972656 349.492188 L 118.914062 349.742188 L 118.855469 349.964844 L 118.789062 350.160156 L 118.722656 350.332031 L 118.648438 350.480469 L 118.574219 350.601562 L 118.492188 350.695312 L 118.402344 350.773438 L 118.292969 350.84375 L 118.171875 350.902344 L 118.027344 350.957031 L 117.871094 351.003906 L 117.695312 351.039062 L 117.503906 351.066406 L 117.292969 351.089844 L 117.066406 351.101562 L 116.824219 351.105469 L 116.5625 351.101562 L 116.316406 351.09375 L 116.09375 351.078125 L 115.886719 351.058594 L 115.703125 351.03125 L 115.539062 350.996094 L 115.394531 350.957031 L 115.265625 350.914062 L 115.160156 350.863281 L 115.074219 350.804688 L 115 350.738281 L 114.9375 350.667969 L 114.878906 350.585938 L 114.828125 350.5 L 114.789062 350.402344 L 114.753906 350.296875 L 114.726562 350.183594 L 114.707031 350.0625 L 114.695312 349.929688 L 114.691406 349.792969 Z M 109.660156 338.800781 L 110.753906 339.128906 L 110.632812 339.445312 L 110.503906 339.761719 L 110.375 340.074219 L 110.238281 340.390625 L 110.097656 340.699219 L 109.953125 341.011719 L 109.804688 341.320312 L 109.652344 341.632812 L 109.496094 341.9375 L 109.332031 342.246094 L 109.332031 351.378906 L 108.238281 351.378906 L 108.238281 343.996094 L 107.839844 344.511719 L 107.703125 344.679688 L 107.570312 344.84375 L 107.429688 345.007812 L 107.292969 345.167969 L 106.871094 345.636719 L 106.324219 344.542969 L 106.78125 343.992188 L 107.210938 343.4375 L 107.613281 342.878906 L 107.988281 342.3125 L 108.335938 341.738281 L 108.652344 341.164062 L 108.945312 340.582031 L 109.210938 339.992188 L 109.449219 339.398438 Z M 109.660156 338.800781 "/>
<path style=" stroke:none;fill-rule:evenodd;fill:rgb(0%,0%,0%);fill-opacity:1;" d="M 219.402344 338.746094 L 219.5 338.890625 L 219.59375 339.035156 L 219.679688 339.1875 L 219.761719 339.339844 L 219.839844 339.496094 L 219.914062 339.65625 L 219.984375 339.820312 L 220.050781 339.988281 L 220.113281 340.160156 L 220.167969 340.332031 L 223.886719 340.332031 L 223.886719 345.910156 L 219.675781 345.910156 L 219.792969 346.167969 L 219.921875 346.421875 L 220.058594 346.667969 L 220.210938 346.90625 L 220.375 347.140625 L 220.550781 347.367188 L 220.738281 347.585938 L 220.9375 347.800781 L 221.148438 348.007812 L 221.371094 348.207031 L 221.742188 348.058594 L 222.101562 347.902344 L 222.453125 347.734375 L 222.800781 347.558594 L 223.136719 347.371094 L 223.464844 347.175781 L 223.789062 346.96875 L 224.101562 346.753906 L 224.410156 346.527344 L 224.707031 346.292969 L 225.472656 347.167969 L 225.167969 347.382812 L 224.859375 347.585938 L 224.550781 347.785156 L 224.242188 347.972656 L 223.929688 348.152344 L 223.617188 348.324219 L 223.304688 348.484375 L 222.988281 348.636719 L 222.671875 348.78125 L 222.355469 348.917969 L 222.636719 349.089844 L 222.929688 349.253906 L 223.238281 349.410156 L 223.554688 349.554688 L 223.886719 349.695312 L 224.234375 349.828125 L 224.59375 349.957031 L 224.964844 350.074219 L 225.351562 350.183594 L 225.746094 350.285156 L 225.144531 351.433594 L 224.203125 351.121094 L 223.324219 350.757812 L 222.507812 350.339844 L 221.75 349.867188 L 221.058594 349.339844 L 220.429688 348.761719 L 219.859375 348.128906 L 219.355469 347.445312 L 218.910156 346.703125 L 218.527344 345.910156 L 216.011719 345.910156 L 216.011719 350.121094 L 216.414062 350.042969 L 216.800781 349.964844 L 217.179688 349.886719 L 217.542969 349.804688 L 217.898438 349.722656 L 218.246094 349.640625 L 218.578125 349.558594 L 218.902344 349.472656 L 219.210938 349.386719 L 219.511719 349.300781 L 219.730469 350.394531 L 219.355469 350.503906 L 218.964844 350.609375 L 218.5625 350.71875 L 218.148438 350.824219 L 217.722656 350.925781 L 217.285156 351.03125 L 216.835938 351.132812 L 216.371094 351.234375 L 215.898438 351.335938 L 215.410156 351.433594 L 214.863281 350.886719 L 214.863281 340.332031 L 218.910156 340.332031 L 218.855469 340.203125 L 218.796875 340.074219 L 218.738281 339.949219 L 218.675781 339.824219 L 218.542969 339.582031 L 218.476562 339.464844 L 218.40625 339.351562 L 218.332031 339.238281 L 218.253906 339.128906 Z M 216.011719 341.371094 L 216.011719 342.628906 L 222.738281 342.628906 L 222.738281 341.371094 Z M 216.011719 343.613281 L 216.011719 344.871094 L 222.738281 344.871094 L 222.738281 343.613281 Z M 216.011719 343.613281 "/>
<path style=" stroke:none;fill-rule:evenodd;fill:rgb(0%,0%,0%);fill-opacity:1;" d="M 298.960938 340.550781 L 300.710938 340.550781 L 300.765625 340.386719 L 300.816406 340.21875 L 300.867188 340.046875 L 300.921875 339.875 L 300.96875 339.703125 L 301.019531 339.527344 L 301.113281 339.167969 L 301.15625 338.984375 L 301.203125 338.800781 L 302.1875 339.019531 L 302.152344 339.183594 L 302.117188 339.34375 L 302.046875 339.65625 L 302.007812 339.8125 L 301.96875 339.964844 L 301.890625 340.261719 L 301.804688 340.550781 L 303.992188 340.550781 L 303.992188 341.589844 L 301.476562 341.589844 L 301.363281 341.945312 L 301.25 342.292969 L 301.128906 342.628906 L 301.003906 342.953125 L 300.875 343.269531 L 300.742188 343.578125 L 300.601562 343.875 L 300.460938 344.164062 L 300.3125 344.4375 L 300.164062 344.707031 L 301.695312 344.707031 L 301.695312 342.957031 L 302.679688 342.957031 L 302.679688 344.707031 L 304.046875 344.707031 L 304.046875 345.636719 L 302.679688 345.636719 L 302.679688 347.332031 L 303.9375 347.003906 L 304.101562 347.988281 L 303.96875 348.03125 L 303.832031 348.074219 L 303.695312 348.113281 L 303.558594 348.15625 L 303.417969 348.191406 L 303.273438 348.230469 L 303.128906 348.265625 L 302.980469 348.304688 L 302.832031 348.335938 L 302.679688 348.371094 L 302.679688 351.378906 L 301.695312 351.378906 L 301.695312 348.589844 L 299.179688 349.027344 L 298.960938 347.933594 L 299.253906 347.890625 L 299.542969 347.847656 L 299.828125 347.800781 L 300.382812 347.714844 L 300.921875 347.628906 L 301.183594 347.582031 L 301.441406 347.539062 L 301.695312 347.496094 L 301.695312 345.636719 L 299.179688 345.636719 L 298.960938 344.707031 L 299.121094 344.429688 L 299.28125 344.144531 L 299.433594 343.851562 L 299.582031 343.550781 L 299.726562 343.242188 L 299.867188 342.929688 L 300 342.605469 L 300.132812 342.273438 L 300.257812 341.9375 L 300.382812 341.589844 L 298.960938 341.589844 Z M 308.09375 343.996094 L 307.828125 344.199219 L 307.550781 344.390625 L 307.269531 344.570312 L 306.980469 344.738281 L 306.683594 344.898438 L 306.378906 345.046875 L 306.066406 345.183594 L 305.746094 345.308594 L 305.421875 345.421875 L 305.085938 345.527344 L 304.375 344.488281 L 305.0625 344.292969 L 305.707031 344.058594 L 306.304688 343.785156 L 306.859375 343.472656 L 307.367188 343.121094 L 307.832031 342.730469 L 308.25 342.296875 L 308.625 341.828125 L 308.957031 341.320312 L 309.242188 340.769531 L 304.976562 340.769531 L 304.976562 339.785156 L 310.5 339.785156 L 310.5 340.605469 L 310.375 340.898438 L 310.242188 341.183594 L 310.105469 341.460938 L 309.957031 341.734375 L 309.800781 342 L 309.640625 342.257812 L 309.46875 342.511719 L 309.292969 342.757812 L 309.105469 342.996094 L 308.914062 343.230469 L 309.476562 343.457031 L 309.757812 343.578125 L 310.03125 343.703125 L 310.308594 343.832031 L 310.578125 343.964844 L 310.851562 344.101562 L 311.382812 344.390625 L 311.648438 344.542969 L 311.15625 345.582031 L 310.847656 345.390625 L 310.542969 345.203125 L 310.238281 345.027344 L 309.929688 344.855469 L 309.625 344.691406 L 309.316406 344.539062 L 309.011719 344.390625 L 308.707031 344.25 L 308.398438 344.121094 Z M 305.140625 346.128906 L 310.9375 346.128906 L 310.9375 347.113281 L 308.476562 347.113281 L 308.476562 350.121094 L 311.320312 350.121094 L 311.320312 351.105469 L 304.265625 351.105469 L 304.265625 350.121094 L 307.382812 350.121094 L 307.382812 347.113281 L 305.140625 347.113281 Z M 305.140625 346.128906 "/>
<path style=" stroke:none;fill-rule:evenodd;fill:rgb(0%,0%,0%);fill-opacity:1;" d="M 319.796875 338.746094 L 319.921875 338.949219 L 319.984375 339.054688 L 320.039062 339.164062 L 320.097656 339.277344 L 320.148438 339.394531 L 320.203125 339.515625 L 320.25 339.636719 L 320.34375 339.894531 L 325.210938 339.894531 L 325.210938 340.878906 L 315.257812 340.878906 L 315.257812 345.144531 L 315.242188 345.835938 L 315.199219 346.515625 L 315.128906 347.175781 L 315.03125 347.820312 L 314.902344 348.453125 L 314.746094 349.070312 L 314.558594 349.667969 L 314.347656 350.253906 L 314.105469 350.824219 L 313.835938 351.378906 L 312.796875 350.722656 L 312.945312 350.410156 L 313.082031 350.101562 L 313.214844 349.796875 L 313.335938 349.5 L 313.445312 349.210938 L 313.546875 348.925781 L 313.640625 348.648438 L 313.722656 348.378906 L 313.796875 348.113281 L 313.863281 347.851562 L 313.917969 347.589844 L 313.96875 347.316406 L 314.015625 347.035156 L 314.054688 346.738281 L 314.089844 346.4375 L 314.113281 346.121094 L 314.136719 345.796875 L 314.152344 345.460938 L 314.160156 345.117188 L 314.164062 344.761719 L 314.164062 339.894531 L 319.140625 339.894531 L 319.070312 339.722656 L 319.03125 339.636719 L 318.992188 339.554688 L 318.949219 339.46875 L 318.902344 339.390625 L 318.855469 339.308594 L 318.808594 339.230469 L 318.753906 339.152344 L 318.703125 339.074219 Z M 315.53125 342.300781 L 317.609375 342.300781 L 317.609375 341.261719 L 318.648438 341.261719 L 318.648438 342.300781 L 321.984375 342.300781 L 321.984375 341.261719 L 323.023438 341.261719 L 323.023438 342.300781 L 325.101562 342.300781 L 325.101562 343.230469 L 323.023438 343.230469 L 323.023438 345.417969 L 317.609375 345.417969 L 317.609375 343.230469 L 315.53125 343.230469 Z M 321.984375 344.488281 L 321.984375 343.230469 L 318.648438 343.230469 L 318.648438 344.488281 Z M 316.078125 346.347656 L 324.226562 346.347656 L 324.226562 347.167969 L 324.03125 347.4375 L 323.820312 347.699219 L 323.59375 347.953125 L 323.351562 348.199219 L 323.089844 348.4375 L 322.816406 348.671875 L 322.523438 348.894531 L 322.214844 349.109375 L 321.886719 349.320312 L 321.546875 349.519531 L 321.851562 349.632812 L 322.179688 349.742188 L 322.53125 349.835938 L 322.902344 349.921875 L 323.296875 349.996094 L 323.710938 350.0625 L 324.148438 350.121094 L 324.609375 350.167969 L 325.089844 350.203125 L 325.59375 350.230469 L 325.265625 351.324219 L 324.652344 351.292969 L 324.066406 351.242188 L 323.503906 351.175781 L 322.964844 351.085938 L 322.449219 350.980469 L 321.957031 350.859375 L 321.488281 350.714844 L 321.046875 350.554688 L 320.628906 350.375 L 320.234375 350.175781 L 319.824219 350.335938 L 319.398438 350.488281 L 318.964844 350.632812 L 318.519531 350.769531 L 318.058594 350.898438 L 317.589844 351.023438 L 317.105469 351.136719 L 316.609375 351.242188 L 316.105469 351.34375 L 315.585938 351.433594 L 314.929688 350.449219 L 315.414062 350.378906 L 315.882812 350.308594 L 316.335938 350.226562 L 316.773438 350.144531 L 317.199219 350.050781 L 317.605469 349.957031 L 318 349.855469 L 318.375 349.75 L 318.738281 349.636719 L 319.085938 349.519531 L 318.835938 349.347656 L 318.589844 349.167969 L 318.351562 348.972656 L 318.113281 348.765625 L 317.882812 348.546875 L 317.65625 348.320312 L 317.429688 348.074219 L 317.210938 347.820312 L 317 347.554688 L 316.789062 347.277344 L 316.078125 347.277344 Z M 318.15625 347.277344 L 318.363281 347.5 L 318.574219 347.710938 L 318.789062 347.910156 L 319.003906 348.101562 L 319.222656 348.273438 L 319.441406 348.4375 L 319.664062 348.589844 L 319.886719 348.730469 L 320.113281 348.855469 L 320.34375 348.972656 L 320.621094 348.828125 L 320.890625 348.675781 L 321.148438 348.519531 L 321.394531 348.359375 L 321.628906 348.191406 L 321.851562 348.019531 L 322.066406 347.84375 L 322.269531 347.660156 L 322.460938 347.472656 L 322.640625 347.277344 Z M 318.15625 347.277344 "/>
<path style=" stroke:none;fill-rule:evenodd;fill:rgb(0%,0%,0%);fill-opacity:1;" d="M 328.21875 338.910156 L 328.457031 339.042969 L 328.691406 339.183594 L 328.921875 339.328125 L 329.367188 339.632812 L 329.796875 339.960938 L 330.003906 340.136719 L 330.207031 340.3125 L 330.40625 340.496094 L 329.695312 341.425781 L 329.476562 341.222656 L 329.253906 341.023438 L 329.03125 340.832031 L 328.8125 340.648438 L 328.585938 340.46875 L 328.363281 340.296875 L 328.136719 340.132812 L 327.910156 339.972656 L 327.679688 339.820312 L 327.453125 339.675781 Z M 327.671875 342.300781 L 327.886719 342.421875 L 328.101562 342.546875 L 328.3125 342.675781 L 328.519531 342.808594 L 328.722656 342.941406 L 328.925781 343.082031 L 329.121094 343.222656 L 329.316406 343.367188 L 329.507812 343.515625 L 329.695312 343.667969 L 328.929688 344.597656 L 328.742188 344.414062 L 328.550781 344.238281 L 328.355469 344.070312 L 328.160156 343.90625 L 327.957031 343.75 L 327.753906 343.601562 L 327.546875 343.457031 L 327.335938 343.320312 L 327.121094 343.191406 L 326.90625 343.066406 Z M 328.929688 345.746094 L 329.859375 346.402344 L 329.722656 346.914062 L 329.570312 347.421875 L 329.410156 347.929688 L 329.238281 348.433594 L 329.050781 348.929688 L 328.855469 349.425781 L 328.644531 349.921875 L 328.421875 350.410156 L 328.191406 350.894531 L 327.945312 351.378906 L 326.851562 350.613281 L 327.109375 350.152344 L 327.355469 349.683594 L 327.589844 349.210938 L 327.8125 348.730469 L 328.027344 348.246094 L 328.230469 347.757812 L 328.421875 347.261719 L 328.601562 346.761719 L 328.769531 346.257812 Z M 331.992188 339.292969 L 338.335938 339.292969 L 338.335938 340.332031 L 331.992188 340.332031 Z M 332.921875 343.613281 L 330.679688 343.613281 L 330.679688 342.574219 L 339.375 342.574219 L 339.375 343.613281 L 334.015625 343.613281 L 333.46875 345.910156 L 338.554688 345.910156 L 338.550781 346.65625 L 338.539062 347.339844 L 338.515625 347.960938 L 338.488281 348.515625 L 338.453125 349.011719 L 338.40625 349.445312 L 338.351562 349.820312 L 338.292969 350.128906 L 338.222656 350.375 L 338.144531 350.558594 L 338.054688 350.703125 L 337.953125 350.835938 L 337.835938 350.949219 L 337.707031 351.046875 L 337.5625 351.132812 L 337.40625 351.203125 L 337.234375 351.253906 L 337.050781 351.292969 L 336.851562 351.316406 L 336.640625 351.324219 L 336.410156 351.324219 L 336.171875 351.320312 L 335.9375 351.3125 L 335.695312 351.304688 L 335.449219 351.296875 L 335.203125 351.285156 L 334.953125 351.269531 L 334.695312 351.253906 L 334.441406 351.234375 L 334.179688 351.214844 L 333.851562 350.175781 L 334.152344 350.195312 L 334.449219 350.214844 L 334.734375 350.230469 L 335.015625 350.246094 L 335.285156 350.257812 L 335.550781 350.265625 L 335.808594 350.273438 L 336.054688 350.28125 L 336.296875 350.285156 L 336.53125 350.285156 L 336.636719 350.28125 L 336.734375 350.265625 L 336.828125 350.242188 L 336.910156 350.207031 L 336.988281 350.160156 L 337.058594 350.109375 L 337.121094 350.042969 L 337.179688 349.96875 L 337.226562 349.886719 L 337.269531 349.792969 L 337.304688 349.675781 L 337.335938 349.523438 L 337.367188 349.332031 L 337.390625 349.101562 L 337.414062 348.835938 L 337.429688 348.53125 L 337.441406 348.191406 L 337.453125 347.816406 L 337.457031 347.402344 L 337.460938 346.949219 L 332.15625 346.949219 Z M 332.921875 343.613281 "/>
<path style=" stroke:none;fill-rule:evenodd;fill:rgb(0%,0%,0%);fill-opacity:1;" d="M 342.765625 338.746094 L 343.21875 338.949219 L 343.4375 339.054688 L 343.65625 339.164062 L 343.871094 339.277344 L 344.082031 339.394531 L 344.292969 339.515625 L 344.496094 339.636719 L 344.699219 339.765625 L 344.898438 339.894531 L 344.460938 340.878906 L 344.242188 340.71875 L 344.023438 340.566406 L 343.808594 340.421875 L 343.59375 340.285156 L 343.378906 340.152344 L 343.167969 340.03125 L 342.957031 339.917969 L 342.746094 339.8125 L 342.535156 339.710938 L 342.328125 339.621094 Z M 341.726562 340.660156 L 341.933594 340.75 L 342.136719 340.839844 L 342.339844 340.9375 L 342.539062 341.035156 L 342.738281 341.136719 L 342.933594 341.242188 L 343.125 341.351562 L 343.316406 341.464844 L 343.507812 341.582031 L 343.695312 341.699219 L 343.203125 342.738281 L 343.015625 342.578125 L 342.828125 342.425781 L 342.640625 342.285156 L 342.449219 342.152344 L 342.257812 342.027344 L 342.066406 341.910156 L 341.875 341.804688 L 341.679688 341.707031 L 341.484375 341.617188 L 341.289062 341.535156 Z M 344.242188 342.464844 L 345.007812 343.011719 L 344.792969 343.304688 L 344.570312 343.59375 L 344.335938 343.882812 L 344.089844 344.167969 L 343.832031 344.445312 L 343.5625 344.722656 L 343.285156 345 L 342.996094 345.269531 L 342.695312 345.535156 L 342.382812 345.800781 L 341.617188 345.035156 L 341.929688 344.773438 L 342.230469 344.511719 L 342.519531 344.253906 L 342.796875 343.992188 L 343.066406 343.734375 L 343.324219 343.480469 L 343.570312 343.222656 L 343.804688 342.96875 L 344.027344 342.714844 Z M 347.359375 338.746094 L 348.398438 338.746094 L 348.398438 340.167969 L 351.023438 340.167969 L 351.023438 343.832031 L 351.027344 343.894531 L 351.046875 343.949219 L 351.082031 344 L 351.128906 344.042969 L 351.1875 344.078125 L 351.257812 344.109375 L 351.34375 344.128906 L 351.441406 344.148438 L 351.554688 344.15625 L 351.679688 344.160156 L 351.761719 344.15625 L 351.839844 344.148438 L 351.914062 344.136719 L 351.980469 344.121094 L 352.042969 344.097656 L 352.09375 344.070312 L 352.144531 344.039062 L 352.1875 344.003906 L 352.222656 343.960938 L 352.253906 343.914062 L 352.28125 343.855469 L 352.304688 343.785156 L 352.328125 343.695312 L 352.347656 343.589844 L 352.371094 343.46875 L 352.386719 343.332031 L 352.402344 343.179688 L 352.417969 343.011719 L 352.433594 342.828125 L 352.445312 342.628906 L 353.429688 342.847656 L 353.40625 343.132812 L 353.375 343.394531 L 353.339844 343.636719 L 353.300781 343.859375 L 353.257812 344.058594 L 353.207031 344.234375 L 353.15625 344.390625 L 353.097656 344.527344 L 353.03125 344.640625 L 352.964844 344.734375 L 352.886719 344.8125 L 352.800781 344.882812 L 352.703125 344.941406 L 352.597656 344.996094 L 352.480469 345.042969 L 352.351562 345.078125 L 352.210938 345.105469 L 352.0625 345.128906 L 351.902344 345.140625 L 351.734375 345.144531 L 351.53125 345.140625 L 351.34375 345.136719 L 351.171875 345.128906 L 351.011719 345.113281 L 350.867188 345.097656 L 350.734375 345.074219 L 350.613281 345.050781 L 350.507812 345.023438 L 350.417969 344.988281 L 350.339844 344.953125 L 350.269531 344.914062 L 350.210938 344.867188 L 350.15625 344.816406 L 350.113281 344.761719 L 350.074219 344.699219 L 350.039062 344.632812 L 350.015625 344.5625 L 349.996094 344.488281 L 349.988281 344.410156 L 349.984375 344.324219 L 349.984375 341.152344 L 348.34375 341.152344 L 348.261719 341.746094 L 348.125 342.308594 L 347.933594 342.832031 L 347.6875 343.320312 L 347.386719 343.777344 L 347.03125 344.195312 L 346.621094 344.582031 L 346.15625 344.933594 L 345.636719 345.246094 L 345.0625 345.527344 L 344.515625 344.597656 L 344.984375 344.367188 L 345.410156 344.109375 L 345.792969 343.828125 L 346.132812 343.519531 L 346.429688 343.1875 L 346.679688 342.832031 L 346.886719 342.449219 L 347.050781 342.042969 L 347.171875 341.609375 L 347.25 341.152344 L 345.28125 341.152344 L 345.28125 340.167969 L 347.359375 340.167969 Z M 341.179688 346.128906 L 346.648438 346.128906 L 346.648438 345.089844 L 347.742188 345.089844 L 347.742188 346.128906 L 353.265625 346.128906 L 353.265625 347.113281 L 348.507812 347.113281 L 348.921875 347.476562 L 349.359375 347.816406 L 349.8125 348.140625 L 350.292969 348.441406 L 350.789062 348.726562 L 351.308594 348.988281 L 351.847656 349.234375 L 352.410156 349.457031 L 352.992188 349.664062 L 353.59375 349.847656 L 352.992188 350.996094 L 352.347656 350.746094 L 351.730469 350.472656 L 351.140625 350.175781 L 350.578125 349.859375 L 350.039062 349.519531 L 349.527344 349.160156 L 349.039062 348.777344 L 348.582031 348.371094 L 348.148438 347.945312 L 347.742188 347.496094 L 347.742188 351.433594 L 346.648438 351.433594 L 346.648438 347.496094 L 346.261719 347.914062 L 345.851562 348.316406 L 345.414062 348.703125 L 344.949219 349.070312 L 344.460938 349.421875 L 343.945312 349.761719 L 343.402344 350.078125 L 342.832031 350.382812 L 342.238281 350.671875 L 341.617188 350.941406 L 340.90625 350.011719 L 341.496094 349.785156 L 342.066406 349.546875 L 342.613281 349.292969 L 343.136719 349.023438 L 343.640625 348.738281 L 344.121094 348.441406 L 344.582031 348.132812 L 345.019531 347.804688 L 345.433594 347.46875 L 345.828125 347.113281 L 341.179688 347.113281 Z M 341.179688 346.128906 "/>
<path style=" stroke:none;fill-rule:evenodd;fill:rgb(0%,0%,0%);fill-opacity:1;" d="M 417.507812 340.878906 L 417.507812 347.605469 L 416.414062 347.605469 L 416.414062 346.730469 L 412.476562 346.730469 L 412.476562 351.488281 L 411.382812 351.488281 L 411.382812 346.730469 L 407.609375 346.730469 L 407.609375 347.714844 L 406.515625 347.714844 L 406.515625 340.878906 L 411.382812 340.878906 L 411.382812 338.746094 L 412.476562 338.746094 L 412.476562 340.878906 Z M 407.609375 345.691406 L 411.382812 345.691406 L 411.382812 341.917969 L 407.609375 341.917969 Z M 412.476562 341.917969 L 412.476562 345.691406 L 416.414062 345.691406 L 416.414062 341.917969 Z M 412.476562 341.917969 "/>
<path style=" stroke:none;fill-rule:evenodd;fill:rgb(0%,0%,0%);fill-opacity:1;" d="M 426.53125 338.746094 L 426.597656 338.847656 L 426.660156 338.949219 L 426.71875 339.054688 L 426.777344 339.164062 L 426.832031 339.277344 L 426.886719 339.394531 L 426.988281 339.636719 L 427.035156 339.765625 L 427.078125 339.894531 L 431.945312 339.894531 L 431.945312 340.878906 L 421.992188 340.878906 L 421.992188 345.144531 L 421.976562 345.835938 L 421.9375 346.515625 L 421.863281 347.175781 L 421.765625 347.820312 L 421.636719 348.453125 L 421.480469 349.070312 L 421.296875 349.667969 L 421.082031 350.253906 L 420.839844 350.824219 L 420.570312 351.378906 L 419.53125 350.722656 L 419.679688 350.410156 L 419.820312 350.101562 L 419.949219 349.796875 L 420.070312 349.5 L 420.179688 349.210938 L 420.28125 348.925781 L 420.375 348.648438 L 420.460938 348.378906 L 420.535156 348.113281 L 420.597656 347.851562 L 420.65625 347.589844 L 420.707031 347.316406 L 420.75 347.035156 L 420.789062 346.738281 L 420.824219 346.4375 L 420.851562 346.121094 L 420.871094 345.796875 L 420.886719 345.460938 L 420.894531 345.117188 L 420.898438 344.761719 L 420.898438 339.894531 L 425.875 339.894531 L 425.804688 339.722656 L 425.765625 339.636719 L 425.726562 339.554688 L 425.683594 339.46875 L 425.640625 339.390625 L 425.59375 339.308594 L 425.492188 339.152344 L 425.4375 339.074219 Z M 422.265625 342.300781 L 424.34375 342.300781 L 424.34375 341.261719 L 425.382812 341.261719 L 425.382812 342.300781 L 428.71875 342.300781 L 428.71875 341.261719 L 429.757812 341.261719 L 429.757812 342.300781 L 431.835938 342.300781 L 431.835938 343.230469 L 429.757812 343.230469 L 429.757812 345.417969 L 424.34375 345.417969 L 424.34375 343.230469 L 422.265625 343.230469 Z M 428.71875 344.488281 L 428.71875 343.230469 L 425.382812 343.230469 L 425.382812 344.488281 Z M 422.8125 346.347656 L 430.960938 346.347656 L 430.960938 347.167969 L 430.765625 347.4375 L 430.554688 347.699219 L 430.328125 347.953125 L 430.085938 348.199219 L 429.828125 348.4375 L 429.550781 348.671875 L 429.257812 348.894531 L 428.949219 349.109375 L 428.625 349.320312 L 428.28125 349.519531 L 428.585938 349.632812 L 428.914062 349.742188 L 429.265625 349.835938 L 429.636719 349.921875 L 430.03125 349.996094 L 430.445312 350.0625 L 430.882812 350.121094 L 431.34375 350.167969 L 431.824219 350.203125 L 432.328125 350.230469 L 432 351.324219 L 431.390625 351.292969 L 430.800781 351.242188 L 430.238281 351.175781 L 429.699219 351.085938 L 429.183594 350.980469 L 428.691406 350.859375 L 428.226562 350.714844 L 427.78125 350.554688 L 427.363281 350.375 L 426.96875 350.175781 L 426.558594 350.335938 L 426.136719 350.488281 L 425.699219 350.632812 L 425.253906 350.769531 L 424.796875 350.898438 L 424.324219 351.023438 L 423.839844 351.136719 L 423.347656 351.242188 L 422.839844 351.34375 L 422.320312 351.433594 L 421.664062 350.449219 L 422.148438 350.378906 L 422.617188 350.308594 L 423.070312 350.226562 L 423.511719 350.144531 L 423.933594 350.050781 L 424.34375 349.957031 L 424.734375 349.855469 L 425.113281 349.75 L 425.472656 349.636719 L 425.820312 349.519531 L 425.570312 349.347656 L 425.328125 349.167969 L 425.085938 348.972656 L 424.847656 348.765625 L 424.617188 348.546875 L 424.390625 348.320312 L 424.167969 348.074219 L 423.949219 347.820312 L 423.734375 347.554688 L 423.523438 347.277344 L 422.8125 347.277344 Z M 424.890625 347.277344 L 425.101562 347.5 L 425.3125 347.710938 L 425.523438 347.910156 L 425.738281 348.101562 L 425.957031 348.273438 L 426.175781 348.4375 L 426.398438 348.589844 L 426.625 348.730469 L 426.851562 348.855469 L 427.078125 348.972656 L 427.355469 348.828125 L 427.625 348.675781 L 427.882812 348.519531 L 428.128906 348.359375 L 428.363281 348.191406 L 428.585938 348.019531 L 428.800781 347.84375 L 429.003906 347.660156 L 429.195312 347.472656 L 429.375 347.277344 Z M 424.890625 347.277344 "/>
<path style=" stroke:none;fill-rule:evenodd;fill:rgb(0%,0%,0%);fill-opacity:1;" d="M 434.953125 338.910156 L 435.191406 339.042969 L 435.425781 339.183594 L 435.65625 339.328125 L 435.882812 339.480469 L 436.101562 339.632812 L 436.320312 339.796875 L 436.53125 339.960938 L 436.738281 340.136719 L 436.941406 340.3125 L 437.140625 340.496094 L 436.429688 341.425781 L 436.210938 341.222656 L 435.992188 341.023438 L 435.769531 340.832031 L 435.546875 340.648438 L 435.324219 340.46875 L 435.097656 340.296875 L 434.871094 340.132812 L 434.644531 339.972656 L 434.417969 339.820312 L 434.1875 339.675781 Z M 434.40625 342.300781 L 434.625 342.421875 L 434.835938 342.546875 L 435.046875 342.675781 L 435.460938 342.941406 L 435.859375 343.222656 L 436.050781 343.367188 L 436.242188 343.515625 L 436.429688 343.667969 L 435.664062 344.597656 L 435.476562 344.414062 L 435.285156 344.238281 L 435.09375 344.070312 L 434.894531 343.90625 L 434.695312 343.75 L 434.488281 343.601562 L 434.28125 343.457031 L 434.070312 343.320312 L 433.859375 343.191406 L 433.640625 343.066406 Z M 435.664062 345.746094 L 436.59375 346.402344 L 436.457031 346.914062 L 436.308594 347.421875 L 436.144531 347.929688 L 435.972656 348.433594 L 435.789062 348.929688 L 435.589844 349.425781 L 435.378906 349.921875 L 435.160156 350.410156 L 434.925781 350.894531 L 434.679688 351.378906 L 433.585938 350.613281 L 433.84375 350.152344 L 434.089844 349.683594 L 434.324219 349.210938 L 434.546875 348.730469 L 434.761719 348.246094 L 434.964844 347.757812 L 435.15625 347.261719 L 435.335938 346.761719 L 435.503906 346.257812 Z M 438.726562 339.292969 L 445.070312 339.292969 L 445.070312 340.332031 L 438.726562 340.332031 Z M 439.65625 343.613281 L 437.414062 343.613281 L 437.414062 342.574219 L 446.109375 342.574219 L 446.109375 343.613281 L 440.75 343.613281 L 440.203125 345.910156 L 445.289062 345.910156 L 445.285156 346.65625 L 445.273438 347.339844 L 445.253906 347.960938 L 445.222656 348.515625 L 445.1875 349.011719 L 445.140625 349.445312 L 445.089844 349.820312 L 445.027344 350.128906 L 444.957031 350.375 L 444.878906 350.558594 L 444.789062 350.703125 L 444.6875 350.835938 L 444.570312 350.949219 L 444.441406 351.046875 L 444.296875 351.132812 L 444.140625 351.203125 L 443.96875 351.253906 L 443.785156 351.292969 L 443.585938 351.316406 L 443.375 351.324219 L 443.144531 351.324219 L 442.910156 351.320312 L 442.671875 351.3125 L 442.1875 351.296875 L 441.9375 351.285156 L 441.6875 351.269531 L 441.433594 351.253906 L 441.175781 351.234375 L 440.914062 351.214844 L 440.585938 350.175781 L 440.890625 350.195312 L 441.183594 350.214844 L 441.46875 350.230469 L 441.75 350.246094 L 442.023438 350.257812 L 442.285156 350.265625 L 442.542969 350.273438 L 442.792969 350.28125 L 443.03125 350.285156 L 443.265625 350.285156 L 443.371094 350.28125 L 443.46875 350.265625 L 443.5625 350.242188 L 443.648438 350.207031 L 443.722656 350.160156 L 443.792969 350.109375 L 443.859375 350.042969 L 443.914062 349.96875 L 443.960938 349.886719 L 444.003906 349.792969 L 444.039062 349.675781 L 444.074219 349.523438 L 444.101562 349.332031 L 444.125 349.101562 L 444.148438 348.835938 L 444.164062 348.53125 L 444.179688 348.191406 L 444.1875 347.816406 L 444.195312 347.402344 L 444.195312 346.949219 L 438.890625 346.949219 Z M 439.65625 343.613281 "/>
<path style=" stroke:none;fill-rule:evenodd;fill:rgb(0%,0%,0%);fill-opacity:1;" d="M 449.5 338.746094 L 449.953125 338.949219 L 450.175781 339.054688 L 450.394531 339.164062 L 450.609375 339.277344 L 450.820312 339.394531 L 451.234375 339.636719 L 451.632812 339.894531 L 451.195312 340.878906 L 450.976562 340.71875 L 450.761719 340.566406 L 450.542969 340.421875 L 450.328125 340.285156 L 450.117188 340.152344 L 449.902344 340.03125 L 449.691406 339.917969 L 449.480469 339.8125 L 449.269531 339.710938 L 449.0625 339.621094 Z M 448.460938 340.660156 L 448.667969 340.75 L 448.871094 340.839844 L 449.074219 340.9375 L 449.273438 341.035156 L 449.472656 341.136719 L 449.667969 341.242188 L 449.863281 341.351562 L 450.054688 341.464844 L 450.429688 341.699219 L 449.9375 342.738281 L 449.75 342.578125 L 449.5625 342.425781 L 449.375 342.285156 L 449.183594 342.152344 L 448.996094 342.027344 L 448.800781 341.910156 L 448.609375 341.804688 L 448.414062 341.707031 L 448.21875 341.617188 L 448.023438 341.535156 Z M 450.976562 342.464844 L 451.742188 343.011719 L 451.527344 343.304688 L 451.304688 343.59375 L 451.070312 343.882812 L 450.824219 344.167969 L 450.566406 344.445312 L 450.296875 344.722656 L 450.019531 345 L 449.730469 345.269531 L 449.429688 345.535156 L 449.117188 345.800781 L 448.351562 345.035156 L 448.664062 344.773438 L 448.964844 344.511719 L 449.253906 344.253906 L 449.53125 343.992188 L 449.800781 343.734375 L 450.058594 343.480469 L 450.304688 343.222656 L 450.539062 342.96875 L 450.761719 342.714844 Z M 454.09375 338.746094 L 455.132812 338.746094 L 455.132812 340.167969 L 457.757812 340.167969 L 457.757812 343.832031 L 457.765625 343.894531 L 457.785156 343.949219 L 457.816406 344 L 457.863281 344.042969 L 457.921875 344.078125 L 457.996094 344.109375 L 458.078125 344.128906 L 458.179688 344.148438 L 458.289062 344.15625 L 458.414062 344.160156 L 458.5 344.15625 L 458.578125 344.148438 L 458.648438 344.136719 L 458.714844 344.121094 L 458.777344 344.097656 L 458.832031 344.070312 L 458.878906 344.039062 L 458.921875 344.003906 L 458.957031 343.960938 L 458.988281 343.914062 L 459.015625 343.855469 L 459.039062 343.785156 L 459.0625 343.695312 L 459.085938 343.589844 L 459.105469 343.46875 L 459.125 343.332031 L 459.140625 343.179688 L 459.15625 343.011719 L 459.167969 342.828125 L 459.179688 342.628906 L 460.164062 342.847656 L 460.140625 343.132812 L 460.109375 343.394531 L 460.078125 343.636719 L 460.039062 343.859375 L 459.992188 344.058594 L 459.945312 344.234375 L 459.890625 344.390625 L 459.832031 344.527344 L 459.769531 344.640625 L 459.699219 344.734375 L 459.625 344.8125 L 459.535156 344.882812 L 459.441406 344.941406 L 459.332031 344.996094 L 459.214844 345.042969 L 459.085938 345.078125 L 458.949219 345.105469 L 458.796875 345.128906 L 458.640625 345.140625 L 458.46875 345.144531 L 458.269531 345.140625 L 458.082031 345.136719 L 457.90625 345.128906 L 457.746094 345.113281 L 457.601562 345.097656 L 457.46875 345.074219 L 457.347656 345.050781 L 457.242188 345.023438 L 457.152344 344.988281 L 457.074219 344.953125 L 457.007812 344.914062 L 456.945312 344.867188 L 456.894531 344.816406 L 456.847656 344.761719 L 456.808594 344.699219 L 456.777344 344.632812 L 456.75 344.5625 L 456.734375 344.488281 L 456.722656 344.410156 L 456.71875 344.324219 L 456.71875 341.152344 L 455.078125 341.152344 L 454.996094 341.746094 L 454.859375 342.308594 L 454.667969 342.832031 L 454.421875 343.320312 L 454.121094 343.777344 L 453.765625 344.195312 L 453.355469 344.582031 L 452.890625 344.933594 L 452.371094 345.246094 L 451.796875 345.527344 L 451.25 344.597656 L 451.71875 344.367188 L 452.148438 344.109375 L 452.53125 343.828125 L 452.867188 343.519531 L 453.164062 343.1875 L 453.414062 342.832031 L 453.625 342.449219 L 453.789062 342.042969 L 453.90625 341.609375 L 453.984375 341.152344 L 452.015625 341.152344 L 452.015625 340.167969 L 454.09375 340.167969 Z M 447.914062 346.128906 L 453.382812 346.128906 L 453.382812 345.089844 L 454.476562 345.089844 L 454.476562 346.128906 L 460 346.128906 L 460 347.113281 L 455.242188 347.113281 L 455.65625 347.476562 L 456.09375 347.816406 L 456.550781 348.140625 L 457.027344 348.441406 L 457.527344 348.726562 L 458.042969 348.988281 L 458.585938 349.234375 L 459.144531 349.457031 L 459.726562 349.664062 L 460.328125 349.847656 L 459.726562 350.996094 L 459.082031 350.746094 L 458.46875 350.472656 L 457.875 350.175781 L 457.3125 349.859375 L 456.773438 349.519531 L 456.261719 349.160156 L 455.777344 348.777344 L 455.316406 348.371094 L 454.882812 347.945312 L 454.476562 347.496094 L 454.476562 351.433594 L 453.382812 351.433594 L 453.382812 347.496094 L 453 347.914062 L 452.585938 348.316406 L 452.148438 348.703125 L 451.6875 349.070312 L 451.195312 349.421875 L 450.679688 349.761719 L 450.136719 350.078125 L 449.566406 350.382812 L 448.972656 350.671875 L 448.351562 350.941406 L 447.640625 350.011719 L 448.230469 349.785156 L 448.800781 349.546875 L 449.347656 349.292969 L 449.871094 349.023438 L 450.375 348.738281 L 450.855469 348.441406 L 451.316406 348.132812 L 451.753906 347.804688 L 452.167969 347.46875 L 452.5625 347.113281 L 447.914062 347.113281 Z M 447.914062 346.128906 "/>
<path style=" stroke:none;fill-rule:evenodd;fill:rgb(0%,0%,0%);fill-opacity:1;" d="M 7.898438 175.679688 L 7.898438 175.839844 L 7.90625 176 L 7.921875 176.15625 L 7.941406 176.304688 L 7.964844 176.453125 L 7.996094 176.597656 L 8.03125 176.738281 L 8.070312 176.875 L 8.117188 177.007812 L 8.171875 177.136719 L 8.226562 177.257812 L 8.289062 177.378906 L 8.355469 177.496094 L 8.425781 177.605469 L 8.5 177.714844 L 8.582031 177.820312 L 8.667969 177.917969 L 8.757812 178.015625 L 8.851562 178.105469 L 8.949219 178.195312 L 9.050781 178.277344 L 9.160156 178.355469 L 9.269531 178.429688 L 9.386719 178.5 L 9.507812 178.566406 L 9.628906 178.628906 L 9.757812 178.6875 L 9.890625 178.742188 L 10.027344 178.792969 L 10.308594 178.878906 L 10.457031 178.917969 L 10.605469 178.949219 L 10.761719 178.976562 L 10.917969 179 L 11.074219 179.019531 L 11.238281 179.035156 L 11.40625 179.046875 L 11.574219 179.054688 L 11.917969 179.054688 L 12.085938 179.046875 L 12.253906 179.035156 L 12.417969 179.019531 L 12.578125 178.996094 L 12.734375 178.972656 L 12.890625 178.941406 L 13.042969 178.90625 L 13.191406 178.867188 L 13.339844 178.824219 L 13.480469 178.773438 L 13.617188 178.71875 L 13.75 178.664062 L 13.878906 178.601562 L 14.007812 178.535156 L 14.128906 178.464844 L 14.246094 178.390625 L 14.359375 178.3125 L 14.46875 178.234375 L 14.574219 178.148438 L 14.675781 178.054688 L 14.773438 177.960938 L 14.867188 177.863281 L 14.953125 177.761719 L 15.035156 177.65625 L 15.113281 177.542969 L 15.1875 177.429688 L 15.257812 177.3125 L 15.324219 177.191406 L 15.382812 177.066406 L 15.4375 176.9375 L 15.484375 176.804688 L 15.527344 176.667969 L 15.566406 176.527344 L 15.597656 176.386719 L 15.625 176.238281 L 15.644531 176.089844 L 15.65625 175.9375 L 15.667969 175.78125 L 15.667969 175.511719 L 15.664062 175.40625 L 15.65625 175.296875 L 15.644531 175.191406 L 15.632812 175.089844 L 15.617188 174.988281 L 15.578125 174.792969 L 15.554688 174.699219 L 15.527344 174.605469 L 15.496094 174.515625 L 15.460938 174.421875 L 15.425781 174.335938 L 15.347656 174.164062 L 15.304688 174.082031 L 15.257812 174.003906 L 15.210938 173.921875 L 15.109375 173.773438 L 15 173.625 L 14.941406 173.554688 L 14.878906 173.484375 L 14.753906 173.351562 L 14.6875 173.285156 L 14.621094 173.222656 L 14.550781 173.160156 L 14.480469 173.101562 L 14.40625 173.042969 L 14.171875 172.878906 L 14.089844 172.824219 L 13.925781 172.722656 L 13.667969 172.582031 L 14.199219 171.515625 L 14.308594 171.570312 L 14.414062 171.625 L 14.515625 171.683594 L 14.621094 171.742188 L 14.71875 171.804688 L 14.820312 171.871094 L 15.015625 172.011719 L 15.109375 172.082031 L 15.296875 172.238281 L 15.386719 172.316406 L 15.472656 172.402344 L 15.636719 172.574219 L 15.71875 172.667969 L 15.792969 172.761719 L 15.871094 172.859375 L 15.941406 172.957031 L 16.011719 173.0625 L 16.078125 173.164062 L 16.203125 173.382812 L 16.261719 173.492188 L 16.371094 173.726562 L 16.417969 173.847656 L 16.464844 173.972656 L 16.511719 174.101562 L 16.550781 174.230469 L 16.621094 174.496094 L 16.648438 174.632812 L 16.671875 174.773438 L 16.695312 174.917969 L 16.726562 175.214844 L 16.742188 175.527344 L 16.742188 175.6875 L 16.738281 175.917969 L 16.726562 176.140625 L 16.710938 176.363281 L 16.683594 176.574219 L 16.648438 176.78125 L 16.609375 176.984375 L 16.5625 177.183594 L 16.507812 177.371094 L 16.445312 177.558594 L 16.375 177.738281 L 16.296875 177.910156 L 16.210938 178.074219 L 16.121094 178.238281 L 16.027344 178.390625 L 15.925781 178.542969 L 15.820312 178.6875 L 15.707031 178.824219 L 15.589844 178.957031 L 15.464844 179.085938 L 15.335938 179.207031 L 15.199219 179.320312 L 15.054688 179.429688 L 14.910156 179.53125 L 14.757812 179.628906 L 14.601562 179.722656 L 14.441406 179.804688 L 14.277344 179.886719 L 14.105469 179.960938 L 13.929688 180.027344 L 13.75 180.089844 L 13.5625 180.144531 L 13.375 180.195312 L 13.183594 180.238281 L 12.988281 180.277344 L 12.789062 180.308594 L 12.585938 180.335938 L 12.382812 180.355469 L 12.171875 180.371094 L 11.960938 180.378906 L 11.746094 180.382812 L 11.523438 180.378906 L 11.304688 180.371094 L 11.089844 180.355469 L 10.878906 180.332031 L 10.671875 180.304688 L 10.46875 180.273438 L 10.273438 180.230469 L 10.082031 180.183594 L 9.890625 180.132812 L 9.707031 180.074219 L 9.527344 180.007812 L 9.355469 179.9375 L 9.1875 179.859375 L 9.023438 179.777344 L 8.867188 179.691406 L 8.714844 179.597656 L 8.570312 179.496094 L 8.429688 179.390625 L 8.292969 179.28125 L 8.164062 179.164062 L 8.039062 179.042969 L 7.917969 178.914062 L 7.804688 178.78125 L 7.699219 178.640625 L 7.597656 178.496094 L 7.5 178.34375 L 7.410156 178.1875 L 7.328125 178.027344 L 7.25 177.859375 L 7.179688 177.6875 L 7.113281 177.511719 L 7.054688 177.328125 L 7 177.140625 L 6.957031 176.949219 L 6.917969 176.753906 L 6.886719 176.550781 L 6.863281 176.34375 L 6.84375 176.132812 L 6.832031 175.914062 L 6.832031 175.691406 L 6.835938 175.390625 L 6.855469 175.097656 L 6.882812 174.816406 L 6.925781 174.542969 L 6.980469 174.28125 L 7.046875 174.027344 L 7.125 173.789062 L 7.214844 173.554688 L 7.316406 173.335938 L 7.433594 173.121094 L 7.558594 172.921875 L 7.695312 172.730469 L 7.84375 172.550781 L 8.007812 172.382812 L 8.179688 172.226562 L 8.363281 172.082031 L 8.558594 171.945312 L 8.765625 171.820312 L 8.984375 171.707031 L 9.214844 171.605469 L 9.625 172.84375 L 9.558594 172.871094 L 9.425781 172.933594 L 9.226562 173.039062 L 9.164062 173.082031 L 9.101562 173.121094 L 9.039062 173.164062 L 8.914062 173.257812 L 8.855469 173.308594 L 8.792969 173.359375 L 8.679688 173.472656 L 8.625 173.53125 L 8.523438 173.65625 L 8.472656 173.722656 L 8.421875 173.792969 L 8.375 173.863281 L 8.289062 174.011719 L 8.246094 174.089844 L 8.207031 174.171875 L 8.171875 174.253906 L 8.136719 174.339844 L 8.101562 174.429688 L 8.070312 174.519531 L 8.039062 174.613281 L 8.011719 174.707031 L 7.988281 174.804688 L 7.96875 174.902344 L 7.949219 175.007812 L 7.917969 175.21875 L 7.902344 175.445312 L 7.898438 175.558594 Z M 7.898438 175.679688 "/>
<path style=" stroke:none;fill-rule:evenodd;fill:rgb(0%,0%,0%);fill-opacity:1;" d="M 11.746094 160.761719 L 11.96875 160.765625 L 12.1875 160.777344 L 12.402344 160.792969 L 12.613281 160.816406 L 12.820312 160.84375 L 13.023438 160.882812 L 13.222656 160.925781 L 13.417969 160.972656 L 13.609375 161.027344 L 13.796875 161.089844 L 14.15625 161.230469 L 14.324219 161.308594 L 14.492188 161.394531 L 14.652344 161.484375 L 14.808594 161.582031 L 14.957031 161.683594 L 15.101562 161.792969 L 15.242188 161.90625 L 15.375 162.027344 L 15.503906 162.152344 L 15.625 162.285156 L 15.742188 162.421875 L 15.851562 162.5625 L 15.957031 162.710938 L 16.054688 162.863281 L 16.148438 163.023438 L 16.234375 163.1875 L 16.3125 163.355469 L 16.386719 163.53125 L 16.453125 163.710938 L 16.515625 163.898438 L 16.566406 164.085938 L 16.613281 164.28125 L 16.652344 164.480469 L 16.683594 164.683594 L 16.710938 164.894531 L 16.726562 165.105469 L 16.738281 165.324219 L 16.742188 165.546875 L 16.738281 165.785156 L 16.726562 166.011719 L 16.710938 166.234375 L 16.683594 166.453125 L 16.648438 166.664062 L 16.609375 166.871094 L 16.5625 167.070312 L 16.507812 167.261719 L 16.445312 167.453125 L 16.375 167.632812 L 16.296875 167.808594 L 16.210938 167.980469 L 16.121094 168.144531 L 16.027344 168.300781 L 15.925781 168.453125 L 15.820312 168.597656 L 15.707031 168.738281 L 15.589844 168.875 L 15.464844 169 L 15.335938 169.125 L 15.199219 169.238281 L 15.054688 169.351562 L 14.910156 169.453125 L 14.757812 169.550781 L 14.601562 169.644531 L 14.441406 169.730469 L 14.277344 169.8125 L 14.105469 169.886719 L 13.929688 169.957031 L 13.75 170.019531 L 13.375 170.128906 L 13.183594 170.171875 L 12.988281 170.210938 L 12.789062 170.246094 L 12.585938 170.273438 L 12.382812 170.292969 L 12.171875 170.308594 L 11.960938 170.316406 L 11.746094 170.320312 L 11.523438 170.316406 L 11.304688 170.308594 L 11.089844 170.292969 L 10.878906 170.269531 L 10.671875 170.242188 L 10.46875 170.207031 L 10.273438 170.164062 L 10.082031 170.117188 L 9.890625 170.066406 L 9.707031 170.003906 L 9.527344 169.941406 L 9.355469 169.867188 L 9.1875 169.789062 L 9.023438 169.707031 L 8.867188 169.617188 L 8.714844 169.523438 L 8.570312 169.421875 L 8.429688 169.3125 L 8.292969 169.203125 L 8.164062 169.082031 L 8.039062 168.957031 L 7.917969 168.828125 L 7.804688 168.691406 L 7.699219 168.550781 L 7.597656 168.402344 L 7.5 168.25 L 7.410156 168.09375 L 7.328125 167.929688 L 7.25 167.761719 L 7.179688 167.585938 L 7.113281 167.402344 L 7.054688 167.21875 L 7 167.023438 L 6.957031 166.828125 L 6.917969 166.625 L 6.886719 166.417969 L 6.863281 166.203125 L 6.84375 165.988281 L 6.832031 165.761719 L 6.832031 165.308594 L 6.84375 165.085938 L 6.863281 164.867188 L 6.886719 164.65625 L 6.917969 164.449219 L 6.957031 164.25 L 7 164.054688 L 7.054688 163.863281 L 7.113281 163.679688 L 7.179688 163.496094 L 7.25 163.320312 L 7.332031 163.152344 L 7.414062 162.988281 L 7.503906 162.828125 L 7.601562 162.675781 L 7.703125 162.527344 L 7.8125 162.386719 L 7.925781 162.253906 L 8.042969 162.125 L 8.171875 162 L 8.300781 161.882812 L 8.4375 161.769531 L 8.578125 161.660156 L 8.726562 161.5625 L 8.878906 161.464844 L 9.039062 161.375 L 9.199219 161.292969 L 9.367188 161.214844 L 9.542969 161.144531 L 9.722656 161.078125 L 9.90625 161.019531 L 10.09375 160.964844 L 10.285156 160.917969 L 10.480469 160.875 L 10.683594 160.839844 L 10.886719 160.8125 L 11.09375 160.792969 L 11.308594 160.777344 L 11.523438 160.765625 Z M 11.746094 162.097656 L 11.574219 162.097656 L 11.40625 162.105469 L 11.238281 162.117188 L 11.074219 162.132812 L 10.917969 162.152344 L 10.761719 162.175781 L 10.605469 162.207031 L 10.308594 162.277344 L 10.167969 162.320312 L 10.027344 162.367188 L 9.890625 162.417969 L 9.757812 162.472656 L 9.628906 162.53125 L 9.507812 162.59375 L 9.386719 162.664062 L 9.269531 162.734375 L 9.160156 162.8125 L 9.050781 162.894531 L 8.949219 162.976562 L 8.851562 163.066406 L 8.757812 163.160156 L 8.667969 163.253906 L 8.582031 163.355469 L 8.5 163.460938 L 8.425781 163.570312 L 8.355469 163.683594 L 8.289062 163.800781 L 8.226562 163.925781 L 8.171875 164.050781 L 8.117188 164.183594 L 8.070312 164.316406 L 8.03125 164.453125 L 7.996094 164.597656 L 7.964844 164.742188 L 7.941406 164.894531 L 7.921875 165.046875 L 7.90625 165.207031 L 7.898438 165.367188 L 7.898438 165.703125 L 7.90625 165.871094 L 7.921875 166.03125 L 7.941406 166.191406 L 7.964844 166.34375 L 7.996094 166.492188 L 8.03125 166.636719 L 8.070312 166.777344 L 8.117188 166.914062 L 8.171875 167.046875 L 8.226562 167.171875 L 8.289062 167.296875 L 8.355469 167.414062 L 8.425781 167.53125 L 8.5 167.640625 L 8.582031 167.75 L 8.667969 167.851562 L 8.757812 167.949219 L 8.851562 168.042969 L 8.949219 168.132812 L 9.050781 168.214844 L 9.160156 168.296875 L 9.269531 168.371094 L 9.386719 168.441406 L 9.507812 168.511719 L 9.628906 168.574219 L 9.757812 168.632812 L 9.890625 168.6875 L 10.027344 168.734375 L 10.167969 168.78125 L 10.308594 168.820312 L 10.457031 168.859375 L 10.605469 168.890625 L 10.761719 168.917969 L 10.917969 168.941406 L 11.074219 168.960938 L 11.238281 168.972656 L 11.40625 168.984375 L 11.574219 168.992188 L 11.917969 168.992188 L 12.085938 168.984375 L 12.253906 168.972656 L 12.417969 168.957031 L 12.578125 168.9375 L 12.734375 168.914062 L 12.890625 168.886719 L 13.042969 168.855469 L 13.191406 168.816406 L 13.339844 168.773438 L 13.480469 168.726562 L 13.617188 168.675781 L 13.75 168.621094 L 13.882812 168.5625 L 14.007812 168.496094 L 14.128906 168.429688 L 14.25 168.359375 L 14.476562 168.203125 L 14.582031 168.117188 L 14.683594 168.027344 L 14.78125 167.933594 L 14.875 167.835938 L 14.960938 167.734375 L 15.046875 167.628906 L 15.125 167.519531 L 15.199219 167.40625 L 15.269531 167.289062 L 15.335938 167.164062 L 15.394531 167.039062 L 15.449219 166.90625 L 15.5 166.769531 L 15.542969 166.632812 L 15.578125 166.488281 L 15.609375 166.339844 L 15.636719 166.191406 L 15.65625 166.035156 L 15.671875 165.878906 L 15.679688 165.714844 L 15.683594 165.546875 L 15.679688 165.371094 L 15.671875 165.199219 L 15.65625 165.03125 L 15.636719 164.867188 L 15.609375 164.710938 L 15.578125 164.554688 L 15.539062 164.410156 L 15.496094 164.265625 L 15.445312 164.128906 L 15.390625 163.996094 L 15.328125 163.867188 L 15.261719 163.742188 L 15.191406 163.625 L 15.117188 163.511719 L 15.039062 163.398438 L 14.867188 163.195312 L 14.773438 163.101562 L 14.675781 163.007812 L 14.574219 162.921875 L 14.46875 162.839844 L 14.355469 162.761719 L 14.242188 162.6875 L 14 162.554688 L 13.871094 162.496094 L 13.742188 162.441406 L 13.605469 162.390625 L 13.46875 162.34375 L 13.324219 162.300781 L 13.179688 162.261719 L 13.03125 162.226562 L 12.878906 162.195312 L 12.566406 162.148438 L 12.40625 162.128906 L 12.246094 162.113281 L 12.082031 162.105469 L 11.914062 162.097656 Z M 11.746094 162.097656 "/>
</g>
</svg>
