<?xml version="1.0" encoding="UTF-8"?>
<svg xmlns="http://www.w3.org/2000/svg" xmlns:xlink="http://www.w3.org/1999/xlink" width="504pt" height="360pt" viewBox="0 0 504 360" version="1.1">
<defs>
<clipPath id="clip1">
  <path d="M 67.007812 0 L 437 0 L 437 360 L 67.007812 360 Z M 67.007812 0 "/>
</clipPath>
<clipPath id="clip2">
  <path d="M 67.007812 0 L 437.988281 0 L 437.988281 360 L 67.007812 360 Z M 67.007812 0 "/>
</clipPath>
<clipPath id="clip3">
  <path d="M 89.652344 5.480469 L 432 5.480469 L 432 342 L 89.652344 342 Z M 89.652344 5.480469 "/>
</clipPath>
<clipPath id="clip4">
  <path d="M 90 5.480469 L 92 5.480469 L 92 342.710938 L 90 342.710938 Z M 90 5.480469 "/>
</clipPath>
<clipPath id="clip5">
  <path d="M 172 5.480469 L 174 5.480469 L 174 342.710938 L 172 342.710938 Z M 172 5.480469 "/>
</clipPath>
<clipPath id="clip6">
  <path d="M 254 5.480469 L 256 5.480469 L 256 342.710938 L 254 342.710938 Z M 254 5.480469 "/>
</clipPath>
<clipPath id="clip7">
  <path d="M 336 5.480469 L 339 5.480469 L 339 342.710938 L 336 342.710938 Z M 336 5.480469 "/>
</clipPath>
<clipPath id="clip8">
  <path d="M 418 5.480469 L 421 5.480469 L 421 342.710938 L 418 342.710938 Z M 418 5.480469 "/>
</clipPath>
<clipPath id="clip9">
  <path d="M 89.652344 326 L 432.511719 326 L 432.511719 329 L 89.652344 329 Z M 89.652344 326 "/>
</clipPath>
<clipPath id="clip10">
  <path d="M 89.652344 244 L 432.511719 244 L 432.511719 246 L 89.652344 246 Z M 89.652344 244 "/>
</clipPath>
<clipPath id="clip11">
  <path d="M 89.652344 162 L 432.511719 162 L 432.511719 164 L 89.652344 164 Z M 89.652344 162 "/>
</clipPath>
<clipPath id="clip12">
  <path d="M 89.652344 80 L 432.511719 80 L 432.511719 82 L 89.652344 82 Z M 89.652344 80 "/>
</clipPath>
</defs>
<g id="surface110">
<g clip-path="url(#clip1)" clip-rule="nonzero">
<path style=" stroke:none;fill-rule:nonzero;fill:rgb(100%,100%,100%);fill-opacity:1;" d="M 67.007812 0 L 436.988281 0 L 436.988281 360 L 67.007812 360 Z M 67.007812 0 "/>
</g>
<g clip-path="url(#clip2)" clip-rule="nonzero">
<path style="fill:none;stroke-width:1.422638;stroke-linecap:round;stroke-linejoin:round;stroke:rgb(100%,100%,100%);stroke-opacity:1;stroke-miterlimit:10;" d="M 67.007812 0 L 436.988281 0 L 436.988281 360 L 67.007812 360 Z M 67.007812 0 "/>
</g>
<g clip-path="url(#clip3)" clip-rule="nonzero">
<path style=" stroke:none;fill-rule:nonzero;fill:rgb(92.156863%,92.156863%,92.156863%);fill-opacity:1;" d="M 89.652344 5.480469 L 431.511719 5.480469 L 431.511719 341.710938 L 89.652344 341.710938 Z M 89.652344 5.480469 "/>
</g>
<g clip-path="url(#clip4)" clip-rule="nonzero">
<path style="fill:none;stroke-width:1.422638;stroke-linecap:round;stroke-linejoin:round;stroke:rgb(100%,100%,100%);stroke-opacity:1;stroke-miterlimit:10;" d="M 90.988281 341.707031 L 90.988281 5.480469 "/>
</g>
<g clip-path="url(#clip5)" clip-rule="nonzero">
<path style="fill:none;stroke-width:1.422638;stroke-linecap:round;stroke-linejoin:round;stroke:rgb(100%,100%,100%);stroke-opacity:1;stroke-miterlimit:10;" d="M 173.132812 341.707031 L 173.132812 5.480469 "/>
</g>
<g clip-path="url(#clip6)" clip-rule="nonzero">
<path style="fill:none;stroke-width:1.422638;stroke-linecap:round;stroke-linejoin:round;stroke:rgb(100%,100%,100%);stroke-opacity:1;stroke-miterlimit:10;" d="M 255.277344 341.707031 L 255.277344 5.480469 "/>
</g>
<g clip-path="url(#clip7)" clip-rule="nonzero">
<path style="fill:none;stroke-width:1.422638;stroke-linecap:round;stroke-linejoin:round;stroke:rgb(100%,100%,100%);stroke-opacity:1;stroke-miterlimit:10;" d="M 337.417969 341.707031 L 337.417969 5.480469 "/>
</g>
<g clip-path="url(#clip8)" clip-rule="nonzero">
<path style="fill:none;stroke-width:1.422638;stroke-linecap:round;stroke-linejoin:round;stroke:rgb(100%,100%,100%);stroke-opacity:1;stroke-miterlimit:10;" d="M 419.5625 341.707031 L 419.5625 5.480469 "/>
</g>
<g clip-path="url(#clip9)" clip-rule="nonzero">
<path style="fill:none;stroke-width:1.422638;stroke-linecap:round;stroke-linejoin:round;stroke:rgb(100%,100%,100%);stroke-opacity:1;stroke-miterlimit:10;" d="M 89.652344 327.324219 L 431.511719 327.324219 "/>
</g>
<g clip-path="url(#clip10)" clip-rule="nonzero">
<path style="fill:none;stroke-width:1.422638;stroke-linecap:round;stroke-linejoin:round;stroke:rgb(100%,100%,100%);stroke-opacity:1;stroke-miterlimit:10;" d="M 89.652344 245.183594 L 431.511719 245.183594 "/>
</g>
<g clip-path="url(#clip11)" clip-rule="nonzero">
<path style="fill:none;stroke-width:1.422638;stroke-linecap:round;stroke-linejoin:round;stroke:rgb(100%,100%,100%);stroke-opacity:1;stroke-miterlimit:10;" d="M 89.652344 163.039062 L 431.511719 163.039062 "/>
</g>
<g clip-path="url(#clip12)" clip-rule="nonzero">
<path style="fill:none;stroke-width:1.422638;stroke-linecap:round;stroke-linejoin:round;stroke:rgb(100%,100%,100%);stroke-opacity:1;stroke-miterlimit:10;" d="M 89.652344 80.894531 L 431.511719 80.894531 "/>
</g>
<path style="fill-rule:evenodd;fill:rgb(100%,100%,0%);fill-opacity:1;stroke-width:1.422638;stroke-linecap:butt;stroke-linejoin:round;stroke:rgb(34.901961%,34.901961%,34.901961%);stroke-opacity:1;stroke-miterlimit:10;" d="M 337.417969 20.761719 L 248.714844 100.628906 L 145.347656 40.949219 L 193.894531 149.992188 L 105.191406 229.859375 L 223.898438 217.382812 L 272.449219 326.425781 L 297.265625 209.671875 L 415.972656 197.195312 L 312.601562 137.515625 Z M 337.417969 20.761719 "/>
<path style=" stroke:none;fill-rule:evenodd;fill:rgb(30.196078%,30.196078%,30.196078%);fill-opacity:1;" d="M 73.160156 330.351562 L 73.160156 329.695312 L 74.703125 329.695312 L 74.703125 325.039062 L 73.335938 326.011719 L 73.335938 325.28125 L 74.765625 324.296875 L 75.480469 324.296875 L 75.480469 329.695312 L 76.953125 329.695312 L 76.953125 330.351562 Z M 73.160156 330.351562 "/>
<path style=" stroke:none;fill-rule:evenodd;fill:rgb(30.196078%,30.196078%,30.196078%);fill-opacity:1;" d="M 78.1875 330.351562 L 78.1875 329.410156 L 79.023438 329.410156 L 79.023438 330.351562 Z M 78.1875 330.351562 "/>
<path style=" stroke:none;fill-rule:evenodd;fill:rgb(30.196078%,30.196078%,30.196078%);fill-opacity:1;" d="M 84.378906 327.324219 L 84.375 327.496094 L 84.371094 327.660156 L 84.363281 327.820312 L 84.351562 327.976562 L 84.335938 328.125 L 84.316406 328.269531 L 84.296875 328.410156 L 84.269531 328.542969 L 84.242188 328.671875 L 84.210938 328.792969 L 84.175781 328.910156 L 84.140625 329.019531 L 84.101562 329.128906 L 84.058594 329.230469 L 84.015625 329.328125 L 83.96875 329.425781 L 83.921875 329.511719 L 83.871094 329.597656 L 83.816406 329.679688 L 83.757812 329.753906 L 83.703125 329.828125 L 83.640625 329.894531 L 83.582031 329.957031 L 83.515625 330.015625 L 83.449219 330.070312 L 83.382812 330.121094 L 83.3125 330.164062 L 83.238281 330.207031 L 83.164062 330.246094 L 83.089844 330.28125 L 82.933594 330.335938 L 82.851562 330.359375 L 82.773438 330.382812 L 82.691406 330.398438 L 82.605469 330.414062 L 82.523438 330.425781 L 82.4375 330.433594 L 82.351562 330.4375 L 82.175781 330.4375 L 82.089844 330.433594 L 82.003906 330.425781 L 81.917969 330.414062 L 81.753906 330.382812 L 81.675781 330.359375 L 81.59375 330.335938 L 81.4375 330.28125 L 81.363281 330.246094 L 81.289062 330.207031 L 81.148438 330.121094 L 81.082031 330.070312 L 81.015625 330.015625 L 80.953125 329.957031 L 80.890625 329.894531 L 80.832031 329.828125 L 80.773438 329.753906 L 80.71875 329.679688 L 80.667969 329.601562 L 80.617188 329.515625 L 80.566406 329.425781 L 80.523438 329.332031 L 80.480469 329.234375 L 80.4375 329.132812 L 80.402344 329.023438 L 80.363281 328.914062 L 80.332031 328.796875 L 80.300781 328.675781 L 80.273438 328.546875 L 80.25 328.414062 L 80.230469 328.273438 L 80.210938 328.128906 L 80.195312 327.980469 L 80.1875 327.824219 L 80.179688 327.664062 L 80.171875 327.496094 L 80.171875 327.144531 L 80.179688 326.96875 L 80.195312 326.640625 L 80.210938 326.488281 L 80.230469 326.339844 L 80.25 326.199219 L 80.273438 326.0625 L 80.300781 325.933594 L 80.363281 325.691406 L 80.402344 325.578125 L 80.4375 325.472656 L 80.480469 325.367188 L 80.523438 325.269531 L 80.570312 325.175781 L 80.617188 325.089844 L 80.667969 325.003906 L 80.722656 324.925781 L 80.777344 324.851562 L 80.894531 324.71875 L 80.957031 324.65625 L 81.019531 324.601562 L 81.085938 324.550781 L 81.15625 324.5 L 81.226562 324.457031 L 81.296875 324.417969 L 81.371094 324.382812 L 81.605469 324.300781 L 81.769531 324.261719 L 81.851562 324.246094 L 81.9375 324.230469 L 82.109375 324.214844 L 82.289062 324.207031 L 82.460938 324.214844 L 82.546875 324.222656 L 82.628906 324.230469 L 82.710938 324.246094 L 82.789062 324.261719 L 82.871094 324.28125 L 82.949219 324.300781 L 83.027344 324.328125 L 83.175781 324.382812 L 83.25 324.417969 L 83.324219 324.457031 L 83.390625 324.5 L 83.460938 324.550781 L 83.527344 324.601562 L 83.589844 324.65625 L 83.652344 324.71875 L 83.769531 324.851562 L 83.824219 324.925781 L 83.875 325.003906 L 83.976562 325.175781 L 84.023438 325.269531 L 84.066406 325.367188 L 84.144531 325.578125 L 84.179688 325.691406 L 84.214844 325.8125 L 84.246094 325.933594 L 84.273438 326.0625 L 84.296875 326.199219 L 84.320312 326.339844 L 84.335938 326.488281 L 84.351562 326.640625 L 84.363281 326.804688 L 84.371094 326.96875 L 84.375 327.144531 Z M 83.59375 327.324219 L 83.589844 327.179688 L 83.589844 327.042969 L 83.585938 326.914062 L 83.578125 326.785156 L 83.570312 326.664062 L 83.5625 326.546875 L 83.550781 326.433594 L 83.535156 326.324219 L 83.523438 326.222656 L 83.507812 326.125 L 83.488281 326.03125 L 83.46875 325.941406 L 83.445312 325.851562 L 83.425781 325.769531 L 83.398438 325.691406 L 83.375 325.617188 L 83.34375 325.546875 L 83.316406 325.480469 L 83.285156 325.417969 L 83.253906 325.359375 L 83.183594 325.25 L 83.105469 325.15625 L 83.066406 325.113281 L 83.023438 325.074219 L 82.980469 325.039062 L 82.933594 325.007812 L 82.886719 324.980469 L 82.792969 324.933594 L 82.742188 324.914062 L 82.6875 324.894531 L 82.636719 324.878906 L 82.527344 324.855469 L 82.410156 324.839844 L 82.351562 324.835938 L 82.226562 324.835938 L 82.164062 324.839844 L 82.101562 324.847656 L 82.042969 324.855469 L 81.925781 324.878906 L 81.871094 324.894531 L 81.816406 324.914062 L 81.765625 324.933594 L 81.664062 324.980469 L 81.570312 325.042969 L 81.527344 325.078125 L 81.484375 325.117188 L 81.441406 325.160156 L 81.363281 325.253906 L 81.292969 325.363281 L 81.261719 325.421875 L 81.230469 325.484375 L 81.199219 325.550781 L 81.171875 325.621094 L 81.144531 325.695312 L 81.121094 325.773438 L 81.097656 325.859375 L 81.078125 325.945312 L 81.058594 326.035156 L 81.039062 326.128906 L 81.023438 326.226562 L 81.007812 326.328125 L 80.984375 326.546875 L 80.976562 326.664062 L 80.960938 326.914062 L 80.957031 327.046875 L 80.953125 327.183594 L 80.953125 327.460938 L 80.957031 327.59375 L 80.960938 327.722656 L 80.976562 327.964844 L 80.984375 328.078125 L 80.996094 328.191406 L 81.007812 328.296875 L 81.023438 328.398438 L 81.039062 328.496094 L 81.058594 328.589844 L 81.078125 328.679688 L 81.101562 328.765625 L 81.125 328.847656 L 81.148438 328.925781 L 81.175781 329.003906 L 81.203125 329.074219 L 81.265625 329.207031 L 81.296875 329.265625 L 81.367188 329.375 L 81.40625 329.425781 L 81.445312 329.46875 L 81.53125 329.554688 L 81.574219 329.589844 L 81.621094 329.625 L 81.664062 329.65625 L 81.714844 329.683594 L 81.765625 329.707031 L 81.867188 329.746094 L 81.976562 329.777344 L 82.03125 329.785156 L 82.089844 329.796875 L 82.148438 329.800781 L 82.273438 329.808594 L 82.449219 329.796875 L 82.507812 329.785156 L 82.5625 329.777344 L 82.671875 329.746094 L 82.773438 329.707031 L 82.824219 329.683594 L 82.871094 329.65625 L 82.917969 329.625 L 82.960938 329.589844 L 83.007812 329.554688 L 83.046875 329.511719 L 83.089844 329.46875 L 83.128906 329.425781 L 83.164062 329.375 L 83.234375 329.265625 L 83.269531 329.207031 L 83.332031 329.074219 L 83.359375 329.003906 L 83.414062 328.847656 L 83.4375 328.765625 L 83.457031 328.679688 L 83.480469 328.589844 L 83.496094 328.496094 L 83.515625 328.398438 L 83.53125 328.296875 L 83.546875 328.191406 L 83.558594 328.078125 L 83.566406 327.964844 L 83.578125 327.84375 L 83.582031 327.722656 L 83.589844 327.59375 L 83.589844 327.460938 Z M 83.59375 327.324219 "/>
<path style=" stroke:none;fill-rule:evenodd;fill:rgb(30.196078%,30.196078%,30.196078%);fill-opacity:1;" d="M 73.160156 248.210938 L 73.160156 247.550781 L 74.703125 247.550781 L 74.703125 242.894531 L 73.335938 243.871094 L 73.335938 243.140625 L 74.765625 242.15625 L 75.480469 242.15625 L 75.480469 247.550781 L 76.953125 247.550781 L 76.953125 248.210938 Z M 73.160156 248.210938 "/>
<path style=" stroke:none;fill-rule:evenodd;fill:rgb(30.196078%,30.196078%,30.196078%);fill-opacity:1;" d="M 78.1875 248.210938 L 78.1875 247.269531 L 79.023438 247.269531 L 79.023438 248.210938 Z M 78.1875 248.210938 "/>
<path style=" stroke:none;fill-rule:evenodd;fill:rgb(30.196078%,30.196078%,30.196078%);fill-opacity:1;" d="M 84.351562 246.238281 L 84.351562 246.328125 L 84.347656 246.417969 L 84.332031 246.589844 L 84.316406 246.671875 L 84.304688 246.753906 L 84.265625 246.917969 L 84.242188 246.996094 L 84.1875 247.144531 L 84.15625 247.21875 L 84.121094 247.289062 L 84.003906 247.488281 L 83.957031 247.550781 L 83.910156 247.609375 L 83.859375 247.667969 L 83.808594 247.722656 L 83.75 247.777344 L 83.691406 247.828125 L 83.632812 247.875 L 83.570312 247.921875 L 83.503906 247.964844 L 83.363281 248.042969 L 83.289062 248.078125 L 83.210938 248.113281 L 83.132812 248.144531 L 82.96875 248.199219 L 82.878906 248.222656 L 82.792969 248.242188 L 82.699219 248.257812 L 82.605469 248.269531 L 82.507812 248.28125 L 82.410156 248.289062 L 82.308594 248.292969 L 82.203125 248.296875 L 82.109375 248.292969 L 81.929688 248.285156 L 81.839844 248.277344 L 81.59375 248.242188 L 81.519531 248.222656 L 81.441406 248.203125 L 81.371094 248.183594 L 81.300781 248.160156 L 81.234375 248.136719 L 81.167969 248.109375 L 81.105469 248.082031 L 80.929688 247.988281 L 80.875 247.953125 L 80.824219 247.917969 L 80.773438 247.878906 L 80.726562 247.839844 L 80.679688 247.796875 L 80.59375 247.710938 L 80.515625 247.617188 L 80.480469 247.570312 L 80.445312 247.519531 L 80.382812 247.417969 L 80.355469 247.367188 L 80.328125 247.3125 L 80.28125 247.203125 L 80.261719 247.148438 L 80.222656 247.03125 L 80.191406 246.914062 L 80.179688 246.855469 L 80.960938 246.765625 L 80.972656 246.800781 L 80.984375 246.832031 L 80.992188 246.867188 L 81.007812 246.902344 L 81.019531 246.933594 L 81.03125 246.96875 L 81.046875 247.003906 L 81.078125 247.066406 L 81.09375 247.101562 L 81.152344 247.195312 L 81.175781 247.222656 L 81.195312 247.253906 L 81.21875 247.28125 L 81.246094 247.308594 L 81.269531 247.335938 L 81.300781 247.363281 L 81.328125 247.386719 L 81.359375 247.414062 L 81.421875 247.460938 L 81.492188 247.5 L 81.609375 247.558594 L 81.652344 247.574219 L 81.691406 247.589844 L 81.738281 247.605469 L 81.832031 247.628906 L 81.933594 247.644531 L 81.988281 247.652344 L 82.042969 247.65625 L 82.160156 247.664062 L 82.28125 247.664062 L 82.398438 247.65625 L 82.5625 247.632812 L 82.613281 247.621094 L 82.667969 247.605469 L 82.71875 247.589844 L 82.765625 247.574219 L 82.816406 247.554688 L 82.863281 247.53125 L 82.90625 247.507812 L 82.953125 247.484375 L 82.992188 247.457031 L 83.035156 247.429688 L 83.113281 247.367188 L 83.21875 247.261719 L 83.28125 247.183594 L 83.3125 247.140625 L 83.339844 247.097656 L 83.367188 247.050781 L 83.414062 246.957031 L 83.453125 246.855469 L 83.472656 246.800781 L 83.503906 246.691406 L 83.515625 246.632812 L 83.523438 246.574219 L 83.535156 246.511719 L 83.539062 246.449219 L 83.546875 246.386719 L 83.546875 246.320312 L 83.550781 246.253906 L 83.546875 246.199219 L 83.546875 246.144531 L 83.539062 246.089844 L 83.535156 246.039062 L 83.527344 245.988281 L 83.492188 245.835938 L 83.476562 245.789062 L 83.457031 245.742188 L 83.441406 245.695312 L 83.417969 245.652344 L 83.398438 245.605469 L 83.375 245.566406 L 83.347656 245.523438 L 83.324219 245.484375 L 83.292969 245.445312 L 83.265625 245.410156 L 83.234375 245.375 L 83.199219 245.339844 L 83.167969 245.304688 L 83.128906 245.273438 L 83.09375 245.242188 L 83.015625 245.1875 L 82.972656 245.160156 L 82.929688 245.136719 L 82.882812 245.113281 L 82.789062 245.074219 L 82.738281 245.054688 L 82.636719 245.023438 L 82.585938 245.011719 L 82.53125 245 L 82.476562 244.992188 L 82.417969 244.988281 L 82.359375 244.980469 L 82.300781 244.980469 L 82.238281 244.976562 L 82.199219 244.976562 L 82.164062 244.980469 L 82.125 244.980469 L 82.089844 244.984375 L 82.050781 244.988281 L 82.015625 244.992188 L 81.984375 244.996094 L 81.949219 245 L 81.914062 245.007812 L 81.882812 245.011719 L 81.847656 245.019531 L 81.753906 245.042969 L 81.722656 245.054688 L 81.695312 245.0625 L 81.664062 245.074219 L 81.632812 245.082031 L 81.578125 245.105469 L 81.550781 245.121094 L 81.496094 245.144531 L 81.46875 245.160156 L 81.445312 245.171875 L 81.417969 245.1875 L 81.277344 245.28125 L 81.257812 245.296875 L 81.234375 245.3125 L 81.195312 245.34375 L 81.171875 245.359375 L 81.152344 245.378906 L 81.113281 245.410156 L 80.355469 245.410156 L 80.558594 242.15625 L 84 242.15625 L 84 242.8125 L 81.261719 242.8125 L 81.148438 244.734375 L 81.1875 244.703125 L 81.28125 244.640625 L 81.328125 244.613281 L 81.378906 244.585938 L 81.433594 244.558594 L 81.484375 244.535156 L 81.542969 244.507812 L 81.601562 244.484375 L 81.664062 244.460938 L 81.726562 244.441406 L 81.859375 244.402344 L 81.929688 244.386719 L 82 244.375 L 82.074219 244.363281 L 82.152344 244.355469 L 82.230469 244.351562 L 82.3125 244.347656 L 82.488281 244.347656 L 82.574219 244.351562 L 82.660156 244.359375 L 82.742188 244.367188 L 82.824219 244.378906 L 82.90625 244.394531 L 83.0625 244.433594 L 83.136719 244.457031 L 83.210938 244.484375 L 83.28125 244.511719 L 83.351562 244.542969 L 83.417969 244.578125 L 83.480469 244.613281 L 83.605469 244.691406 L 83.664062 244.734375 L 83.71875 244.777344 L 83.773438 244.824219 L 83.875 244.925781 L 83.921875 244.980469 L 84.007812 245.089844 L 84.046875 245.148438 L 84.085938 245.210938 L 84.15625 245.335938 L 84.1875 245.402344 L 84.242188 245.542969 L 84.265625 245.613281 L 84.304688 245.761719 L 84.316406 245.835938 L 84.332031 245.914062 L 84.339844 245.992188 L 84.347656 246.074219 L 84.351562 246.15625 Z M 84.351562 246.238281 "/>
<path style=" stroke:none;fill-rule:evenodd;fill:rgb(30.196078%,30.196078%,30.196078%);fill-opacity:1;" d="M 72.929688 166.066406 L 72.929688 165.519531 L 73.023438 165.324219 L 73.070312 165.230469 L 73.121094 165.136719 L 73.175781 165.046875 L 73.226562 164.960938 L 73.285156 164.875 L 73.402344 164.710938 L 73.464844 164.636719 L 73.527344 164.558594 L 73.59375 164.484375 L 73.65625 164.410156 L 73.855469 164.199219 L 73.925781 164.132812 L 73.992188 164.066406 L 74.0625 164 L 74.128906 163.9375 L 74.199219 163.875 L 74.269531 163.816406 L 74.339844 163.753906 L 74.40625 163.695312 L 74.476562 163.636719 L 74.542969 163.578125 L 74.613281 163.523438 L 74.679688 163.46875 L 74.75 163.414062 L 74.816406 163.359375 L 74.886719 163.304688 L 74.953125 163.253906 L 75.019531 163.199219 L 75.082031 163.144531 L 75.144531 163.09375 L 75.207031 163.039062 L 75.265625 162.984375 L 75.324219 162.933594 L 75.378906 162.878906 L 75.4375 162.828125 L 75.492188 162.773438 L 75.59375 162.664062 L 75.640625 162.609375 L 75.683594 162.554688 L 75.726562 162.496094 L 75.769531 162.441406 L 75.808594 162.382812 L 75.84375 162.324219 L 75.878906 162.269531 L 75.910156 162.207031 L 75.941406 162.148438 L 75.964844 162.085938 L 75.988281 162.019531 L 76.007812 161.957031 L 76.023438 161.890625 L 76.035156 161.820312 L 76.050781 161.679688 L 76.050781 161.554688 L 76.046875 161.503906 L 76.039062 161.410156 L 76.03125 161.363281 L 76.023438 161.320312 L 76 161.234375 L 75.988281 161.195312 L 75.941406 161.078125 L 75.902344 161.007812 L 75.878906 160.972656 L 75.832031 160.910156 L 75.804688 160.878906 L 75.75 160.824219 L 75.71875 160.796875 L 75.625 160.726562 L 75.554688 160.6875 L 75.398438 160.625 L 75.355469 160.613281 L 75.316406 160.601562 L 75.273438 160.589844 L 75.230469 160.582031 L 75.183594 160.574219 L 75.136719 160.570312 L 75.09375 160.5625 L 75.042969 160.558594 L 74.855469 160.558594 L 74.808594 160.5625 L 74.765625 160.566406 L 74.722656 160.574219 L 74.675781 160.582031 L 74.632812 160.589844 L 74.59375 160.597656 L 74.507812 160.621094 L 74.46875 160.636719 L 74.429688 160.648438 L 74.390625 160.667969 L 74.355469 160.683594 L 74.316406 160.703125 L 74.246094 160.742188 L 74.210938 160.765625 L 74.179688 160.789062 L 74.148438 160.816406 L 74.117188 160.839844 L 74.027344 160.929688 L 74.003906 160.960938 L 73.976562 160.992188 L 73.90625 161.097656 L 73.847656 161.214844 L 73.816406 161.300781 L 73.792969 161.386719 L 73.769531 161.480469 L 73.761719 161.53125 L 73.757812 161.582031 L 72.964844 161.507812 L 72.972656 161.441406 L 72.984375 161.378906 L 73 161.316406 L 73.011719 161.253906 L 73.050781 161.128906 L 73.070312 161.070312 L 73.09375 161.007812 L 73.117188 160.949219 L 73.144531 160.894531 L 73.175781 160.835938 L 73.207031 160.78125 L 73.242188 160.726562 L 73.277344 160.675781 L 73.316406 160.621094 L 73.355469 160.574219 L 73.398438 160.523438 L 73.488281 160.433594 L 73.640625 160.304688 L 73.695312 160.265625 L 73.871094 160.160156 L 73.933594 160.128906 L 74 160.101562 L 74.066406 160.070312 L 74.132812 160.046875 L 74.28125 160 L 74.355469 159.984375 L 74.433594 159.964844 L 74.597656 159.941406 L 74.679688 159.933594 L 74.765625 159.925781 L 74.855469 159.921875 L 75.035156 159.921875 L 75.125 159.925781 L 75.207031 159.929688 L 75.292969 159.9375 L 75.375 159.949219 L 75.53125 159.972656 L 75.605469 159.992188 L 75.679688 160.007812 L 75.75 160.027344 L 75.820312 160.050781 L 75.886719 160.074219 L 75.953125 160.101562 L 76.015625 160.132812 L 76.132812 160.195312 L 76.242188 160.265625 L 76.292969 160.304688 L 76.34375 160.347656 L 76.4375 160.433594 L 76.480469 160.480469 L 76.558594 160.582031 L 76.628906 160.691406 L 76.660156 160.746094 L 76.691406 160.804688 L 76.71875 160.867188 L 76.742188 160.929688 L 76.800781 161.128906 L 76.8125 161.199219 L 76.835938 161.347656 L 76.839844 161.421875 L 76.84375 161.5 L 76.847656 161.582031 L 76.839844 161.699219 L 76.835938 161.761719 L 76.828125 161.820312 L 76.816406 161.878906 L 76.804688 161.933594 L 76.792969 161.992188 L 76.773438 162.050781 L 76.734375 162.160156 L 76.664062 162.324219 L 76.636719 162.375 L 76.605469 162.429688 L 76.578125 162.480469 L 76.546875 162.53125 L 76.40625 162.734375 L 76.367188 162.785156 L 76.328125 162.832031 L 76.289062 162.882812 L 76.160156 163.023438 L 76.113281 163.070312 L 76.070312 163.117188 L 76.019531 163.164062 L 75.972656 163.210938 L 75.921875 163.257812 L 75.875 163.304688 L 75.824219 163.351562 L 75.773438 163.394531 L 75.722656 163.441406 L 75.671875 163.484375 L 75.570312 163.578125 L 75.519531 163.621094 L 75.464844 163.664062 L 75.414062 163.707031 L 75.359375 163.753906 L 75.308594 163.796875 L 75.253906 163.839844 L 75.203125 163.882812 L 75.148438 163.929688 L 75.097656 163.972656 L 74.988281 164.058594 L 74.9375 164.101562 L 74.882812 164.144531 L 74.730469 164.273438 L 74.679688 164.320312 L 74.632812 164.363281 L 74.582031 164.40625 L 74.488281 164.492188 L 74.441406 164.539062 L 74.394531 164.582031 L 74.351562 164.625 L 74.308594 164.671875 L 74.265625 164.714844 L 74.226562 164.757812 L 74.183594 164.804688 L 74.144531 164.847656 L 74.109375 164.894531 L 74.070312 164.941406 L 74.035156 164.984375 L 73.964844 165.078125 L 73.933594 165.121094 L 73.851562 165.261719 L 73.828125 165.3125 L 73.804688 165.359375 L 73.78125 165.410156 L 76.941406 165.410156 L 76.941406 166.066406 Z M 72.929688 166.066406 "/>
<path style=" stroke:none;fill-rule:evenodd;fill:rgb(30.196078%,30.196078%,30.196078%);fill-opacity:1;" d="M 78.1875 166.066406 L 78.1875 165.125 L 79.023438 165.125 L 79.023438 166.066406 Z M 78.1875 166.066406 "/>
<path style=" stroke:none;fill-rule:evenodd;fill:rgb(30.196078%,30.196078%,30.196078%);fill-opacity:1;" d="M 84.378906 163.035156 L 84.375 163.207031 L 84.371094 163.375 L 84.363281 163.535156 L 84.351562 163.691406 L 84.335938 163.839844 L 84.316406 163.984375 L 84.296875 164.125 L 84.269531 164.257812 L 84.242188 164.382812 L 84.210938 164.507812 L 84.140625 164.734375 L 84.101562 164.84375 L 84.058594 164.945312 L 84.015625 165.042969 L 83.96875 165.136719 L 83.921875 165.226562 L 83.871094 165.3125 L 83.816406 165.394531 L 83.757812 165.46875 L 83.703125 165.539062 L 83.640625 165.605469 L 83.582031 165.667969 L 83.515625 165.726562 L 83.449219 165.78125 L 83.382812 165.832031 L 83.3125 165.878906 L 83.238281 165.921875 L 83.164062 165.960938 L 83.089844 165.992188 L 83.011719 166.023438 L 82.933594 166.050781 L 82.851562 166.074219 L 82.773438 166.09375 L 82.691406 166.113281 L 82.605469 166.125 L 82.523438 166.136719 L 82.4375 166.144531 L 82.265625 166.152344 L 82.175781 166.148438 L 82.089844 166.144531 L 82.003906 166.136719 L 81.917969 166.125 L 81.835938 166.113281 L 81.753906 166.09375 L 81.675781 166.074219 L 81.59375 166.050781 L 81.515625 166.023438 L 81.4375 165.992188 L 81.363281 165.960938 L 81.289062 165.921875 L 81.21875 165.878906 L 81.148438 165.832031 L 81.082031 165.78125 L 81.015625 165.726562 L 80.953125 165.667969 L 80.890625 165.605469 L 80.832031 165.539062 L 80.773438 165.46875 L 80.71875 165.394531 L 80.617188 165.230469 L 80.566406 165.140625 L 80.523438 165.046875 L 80.480469 164.949219 L 80.4375 164.847656 L 80.402344 164.738281 L 80.363281 164.625 L 80.332031 164.511719 L 80.300781 164.386719 L 80.273438 164.261719 L 80.25 164.128906 L 80.230469 163.988281 L 80.210938 163.84375 L 80.195312 163.691406 L 80.1875 163.539062 L 80.171875 163.210938 L 80.171875 162.855469 L 80.179688 162.683594 L 80.1875 162.515625 L 80.195312 162.355469 L 80.210938 162.199219 L 80.25 161.910156 L 80.273438 161.777344 L 80.300781 161.648438 L 80.332031 161.523438 L 80.363281 161.40625 L 80.402344 161.292969 L 80.4375 161.183594 L 80.480469 161.082031 L 80.523438 160.984375 L 80.570312 160.890625 L 80.617188 160.800781 L 80.667969 160.71875 L 80.722656 160.640625 L 80.777344 160.566406 L 80.835938 160.496094 L 80.894531 160.433594 L 80.957031 160.371094 L 81.019531 160.316406 L 81.085938 160.261719 L 81.15625 160.214844 L 81.226562 160.171875 L 81.296875 160.132812 L 81.371094 160.097656 L 81.449219 160.066406 L 81.527344 160.039062 L 81.605469 160.015625 L 81.6875 159.992188 L 81.769531 159.972656 L 81.851562 159.957031 L 82.023438 159.933594 L 82.109375 159.925781 L 82.199219 159.921875 L 82.375 159.921875 L 82.460938 159.925781 L 82.546875 159.933594 L 82.710938 159.957031 L 82.789062 159.972656 L 82.871094 159.992188 L 83.027344 160.039062 L 83.101562 160.066406 L 83.175781 160.097656 L 83.25 160.132812 L 83.324219 160.171875 L 83.390625 160.214844 L 83.460938 160.261719 L 83.527344 160.316406 L 83.589844 160.371094 L 83.652344 160.433594 L 83.710938 160.496094 L 83.769531 160.566406 L 83.824219 160.640625 L 83.875 160.71875 L 83.925781 160.800781 L 83.976562 160.890625 L 84.023438 160.984375 L 84.066406 161.082031 L 84.105469 161.183594 L 84.144531 161.292969 L 84.179688 161.40625 L 84.214844 161.523438 L 84.246094 161.648438 L 84.273438 161.777344 L 84.296875 161.910156 L 84.320312 162.054688 L 84.335938 162.199219 L 84.351562 162.355469 L 84.363281 162.515625 L 84.371094 162.683594 L 84.375 162.855469 Z M 83.59375 163.035156 L 83.589844 162.894531 L 83.589844 162.757812 L 83.585938 162.625 L 83.570312 162.375 L 83.5625 162.257812 L 83.550781 162.144531 L 83.535156 162.039062 L 83.523438 161.9375 L 83.507812 161.839844 L 83.488281 161.742188 L 83.46875 161.652344 L 83.445312 161.566406 L 83.425781 161.484375 L 83.398438 161.40625 L 83.375 161.332031 L 83.34375 161.261719 L 83.316406 161.195312 L 83.285156 161.132812 L 83.253906 161.074219 L 83.21875 161.015625 L 83.183594 160.964844 L 83.144531 160.914062 L 83.066406 160.828125 L 83.023438 160.789062 L 82.980469 160.753906 L 82.933594 160.722656 L 82.839844 160.667969 L 82.792969 160.644531 L 82.742188 160.625 L 82.6875 160.609375 L 82.636719 160.59375 L 82.582031 160.578125 L 82.527344 160.566406 L 82.46875 160.558594 L 82.351562 160.550781 L 82.226562 160.550781 L 82.101562 160.558594 L 82.042969 160.566406 L 81.984375 160.578125 L 81.925781 160.59375 L 81.816406 160.625 L 81.765625 160.644531 L 81.714844 160.667969 L 81.664062 160.695312 L 81.617188 160.722656 L 81.570312 160.757812 L 81.527344 160.792969 L 81.484375 160.832031 L 81.441406 160.875 L 81.402344 160.917969 L 81.363281 160.96875 L 81.328125 161.019531 L 81.292969 161.078125 L 81.261719 161.136719 L 81.230469 161.199219 L 81.199219 161.265625 L 81.171875 161.335938 L 81.144531 161.410156 L 81.121094 161.488281 L 81.097656 161.570312 L 81.078125 161.65625 L 81.058594 161.746094 L 81.039062 161.84375 L 81.023438 161.941406 L 81.007812 162.042969 L 80.996094 162.148438 L 80.984375 162.261719 L 80.976562 162.378906 L 80.96875 162.5 L 80.960938 162.628906 L 80.957031 162.757812 L 80.953125 162.894531 L 80.953125 163.171875 L 80.957031 163.304688 L 80.960938 163.433594 L 80.96875 163.558594 L 80.976562 163.679688 L 80.984375 163.792969 L 81.007812 164.011719 L 81.023438 164.113281 L 81.039062 164.210938 L 81.058594 164.304688 L 81.078125 164.394531 L 81.101562 164.480469 L 81.125 164.5625 L 81.148438 164.640625 L 81.175781 164.714844 L 81.203125 164.785156 L 81.234375 164.855469 L 81.296875 164.980469 L 81.332031 165.035156 L 81.367188 165.085938 L 81.40625 165.136719 L 81.445312 165.183594 L 81.488281 165.226562 L 81.574219 165.304688 L 81.621094 165.335938 L 81.664062 165.367188 L 81.714844 165.394531 L 81.816406 165.441406 L 81.867188 165.460938 L 81.921875 165.476562 L 82.03125 165.5 L 82.148438 165.515625 L 82.210938 165.519531 L 82.332031 165.519531 L 82.390625 165.515625 L 82.507812 165.5 L 82.617188 165.476562 L 82.671875 165.460938 L 82.722656 165.441406 L 82.824219 165.394531 L 82.871094 165.367188 L 82.917969 165.335938 L 82.960938 165.304688 L 83.007812 165.265625 L 83.089844 165.183594 L 83.128906 165.136719 L 83.199219 165.035156 L 83.234375 164.980469 L 83.269531 164.917969 L 83.300781 164.855469 L 83.332031 164.785156 L 83.359375 164.714844 L 83.386719 164.640625 L 83.414062 164.5625 L 83.4375 164.480469 L 83.457031 164.394531 L 83.480469 164.304688 L 83.496094 164.210938 L 83.515625 164.113281 L 83.53125 164.011719 L 83.546875 163.902344 L 83.558594 163.792969 L 83.566406 163.679688 L 83.578125 163.558594 L 83.582031 163.433594 L 83.589844 163.304688 L 83.589844 163.171875 Z M 83.59375 163.035156 "/>
<path style=" stroke:none;fill-rule:evenodd;fill:rgb(30.196078%,30.196078%,30.196078%);fill-opacity:1;" d="M 72.929688 83.921875 L 72.929688 83.378906 L 72.976562 83.277344 L 73.023438 83.179688 L 73.070312 83.085938 L 73.121094 82.996094 L 73.175781 82.90625 L 73.226562 82.816406 L 73.285156 82.730469 L 73.34375 82.648438 L 73.402344 82.570312 L 73.527344 82.414062 L 73.59375 82.339844 L 73.65625 82.265625 L 73.855469 82.054688 L 73.925781 81.988281 L 73.992188 81.921875 L 74.0625 81.859375 L 74.128906 81.796875 L 74.269531 81.671875 L 74.339844 81.613281 L 74.40625 81.550781 L 74.476562 81.492188 L 74.542969 81.4375 L 74.613281 81.378906 L 74.679688 81.324219 L 74.75 81.269531 L 74.816406 81.214844 L 74.886719 81.164062 L 75.019531 81.054688 L 75.082031 81.003906 L 75.207031 80.894531 L 75.265625 80.84375 L 75.324219 80.789062 L 75.378906 80.734375 L 75.4375 80.683594 L 75.492188 80.628906 L 75.59375 80.519531 L 75.640625 80.464844 L 75.726562 80.355469 L 75.769531 80.296875 L 75.808594 80.238281 L 75.84375 80.183594 L 75.878906 80.125 L 75.910156 80.066406 L 75.941406 80.003906 L 75.988281 79.878906 L 76.007812 79.8125 L 76.023438 79.746094 L 76.035156 79.675781 L 76.050781 79.535156 L 76.050781 79.410156 L 76.046875 79.363281 L 76.042969 79.3125 L 76.039062 79.265625 L 76.03125 79.222656 L 76.023438 79.175781 L 76 79.089844 L 75.988281 79.050781 L 75.941406 78.933594 L 75.902344 78.863281 L 75.878906 78.828125 L 75.832031 78.765625 L 75.804688 78.738281 L 75.777344 78.707031 L 75.75 78.679688 L 75.71875 78.65625 L 75.6875 78.628906 L 75.65625 78.605469 L 75.625 78.585938 L 75.554688 78.546875 L 75.515625 78.527344 L 75.4375 78.496094 L 75.398438 78.484375 L 75.355469 78.46875 L 75.316406 78.457031 L 75.273438 78.449219 L 75.230469 78.4375 L 75.183594 78.429688 L 75.136719 78.425781 L 75.09375 78.421875 L 75.042969 78.417969 L 74.996094 78.414062 L 74.902344 78.414062 L 74.808594 78.421875 L 74.722656 78.429688 L 74.675781 78.4375 L 74.632812 78.445312 L 74.59375 78.457031 L 74.550781 78.464844 L 74.507812 78.480469 L 74.46875 78.492188 L 74.390625 78.523438 L 74.355469 78.539062 L 74.316406 78.558594 L 74.28125 78.578125 L 74.246094 78.601562 L 74.210938 78.621094 L 74.179688 78.648438 L 74.148438 78.671875 L 74.085938 78.726562 L 74.027344 78.785156 L 74.003906 78.816406 L 73.976562 78.851562 L 73.953125 78.882812 L 73.929688 78.917969 L 73.90625 78.957031 L 73.886719 78.996094 L 73.867188 79.03125 L 73.847656 79.074219 L 73.832031 79.113281 L 73.816406 79.15625 L 73.804688 79.199219 L 73.792969 79.246094 L 73.78125 79.289062 L 73.769531 79.339844 L 73.761719 79.386719 L 73.757812 79.4375 L 72.964844 79.363281 L 72.972656 79.300781 L 72.984375 79.234375 L 73 79.171875 L 73.011719 79.109375 L 73.050781 78.984375 L 73.070312 78.925781 L 73.117188 78.808594 L 73.144531 78.75 L 73.175781 78.691406 L 73.207031 78.636719 L 73.242188 78.582031 L 73.277344 78.53125 L 73.355469 78.429688 L 73.441406 78.335938 L 73.488281 78.289062 L 73.589844 78.203125 L 73.640625 78.164062 L 73.695312 78.125 L 73.753906 78.085938 L 73.8125 78.050781 L 73.871094 78.019531 L 73.933594 77.984375 L 74.132812 77.902344 L 74.207031 77.878906 L 74.355469 77.839844 L 74.433594 77.824219 L 74.515625 77.808594 L 74.597656 77.796875 L 74.679688 77.789062 L 74.765625 77.785156 L 74.945312 77.777344 L 75.035156 77.78125 L 75.125 77.78125 L 75.207031 77.789062 L 75.292969 77.796875 L 75.375 77.804688 L 75.453125 77.816406 L 75.53125 77.832031 L 75.605469 77.847656 L 75.679688 77.867188 L 75.820312 77.90625 L 75.953125 77.960938 L 76.015625 77.988281 L 76.132812 78.050781 L 76.1875 78.085938 L 76.242188 78.125 L 76.34375 78.203125 L 76.390625 78.246094 L 76.4375 78.292969 L 76.480469 78.339844 L 76.519531 78.386719 L 76.558594 78.4375 L 76.628906 78.546875 L 76.691406 78.664062 L 76.71875 78.722656 L 76.742188 78.785156 L 76.800781 78.984375 L 76.8125 79.054688 L 76.835938 79.203125 L 76.839844 79.277344 L 76.84375 79.355469 L 76.847656 79.4375 L 76.84375 79.496094 L 76.839844 79.558594 L 76.835938 79.617188 L 76.828125 79.675781 L 76.804688 79.792969 L 76.792969 79.847656 L 76.773438 79.90625 L 76.734375 80.015625 L 76.664062 80.179688 L 76.636719 80.234375 L 76.605469 80.285156 L 76.578125 80.335938 L 76.546875 80.390625 L 76.441406 80.542969 L 76.40625 80.589844 L 76.367188 80.640625 L 76.328125 80.6875 L 76.289062 80.738281 L 76.246094 80.785156 L 76.203125 80.835938 L 76.160156 80.882812 L 76.113281 80.929688 L 76.070312 80.976562 L 76.019531 81.023438 L 75.972656 81.070312 L 75.921875 81.113281 L 75.875 81.160156 L 75.773438 81.253906 L 75.722656 81.296875 L 75.671875 81.34375 L 75.621094 81.386719 L 75.570312 81.433594 L 75.519531 81.476562 L 75.464844 81.523438 L 75.414062 81.566406 L 75.359375 81.609375 L 75.308594 81.652344 L 75.253906 81.695312 L 75.203125 81.742188 L 75.148438 81.785156 L 75.097656 81.828125 L 75.042969 81.871094 L 74.988281 81.917969 L 74.9375 81.960938 L 74.882812 82.003906 L 74.679688 82.175781 L 74.632812 82.21875 L 74.582031 82.261719 L 74.535156 82.304688 L 74.488281 82.351562 L 74.394531 82.4375 L 74.351562 82.480469 L 74.308594 82.527344 L 74.265625 82.570312 L 74.226562 82.617188 L 74.183594 82.660156 L 74.144531 82.707031 L 74.109375 82.75 L 74.070312 82.796875 L 74.035156 82.84375 L 74 82.886719 L 73.964844 82.933594 L 73.933594 82.980469 L 73.851562 83.121094 L 73.804688 83.214844 L 73.78125 83.265625 L 76.941406 83.265625 L 76.941406 83.921875 Z M 72.929688 83.921875 "/>
<path style=" stroke:none;fill-rule:evenodd;fill:rgb(30.196078%,30.196078%,30.196078%);fill-opacity:1;" d="M 78.1875 83.921875 L 78.1875 82.980469 L 79.023438 82.980469 L 79.023438 83.921875 Z M 78.1875 83.921875 "/>
<path style=" stroke:none;fill-rule:evenodd;fill:rgb(30.196078%,30.196078%,30.196078%);fill-opacity:1;" d="M 84.351562 81.949219 L 84.351562 82.039062 L 84.347656 82.128906 L 84.339844 82.21875 L 84.332031 82.300781 L 84.316406 82.386719 L 84.304688 82.46875 L 84.285156 82.550781 L 84.265625 82.628906 L 84.242188 82.707031 L 84.214844 82.785156 L 84.1875 82.859375 L 84.15625 82.929688 L 84.121094 83 L 84.082031 83.070312 L 84.042969 83.136719 L 84.003906 83.199219 L 83.910156 83.324219 L 83.859375 83.382812 L 83.808594 83.4375 L 83.632812 83.589844 L 83.570312 83.632812 L 83.503906 83.679688 L 83.363281 83.757812 L 83.289062 83.792969 L 83.210938 83.828125 L 83.132812 83.859375 L 82.96875 83.914062 L 82.878906 83.933594 L 82.792969 83.953125 L 82.699219 83.972656 L 82.605469 83.984375 L 82.507812 83.996094 L 82.410156 84.003906 L 82.308594 84.007812 L 82.109375 84.007812 L 81.929688 84 L 81.839844 83.992188 L 81.675781 83.96875 L 81.59375 83.953125 L 81.519531 83.9375 L 81.441406 83.917969 L 81.371094 83.898438 L 81.300781 83.875 L 81.234375 83.847656 L 81.167969 83.824219 L 81.105469 83.792969 L 81.046875 83.765625 L 80.988281 83.734375 L 80.929688 83.699219 L 80.875 83.664062 L 80.773438 83.59375 L 80.726562 83.550781 L 80.679688 83.511719 L 80.636719 83.46875 L 80.59375 83.421875 L 80.554688 83.378906 L 80.515625 83.332031 L 80.480469 83.285156 L 80.445312 83.234375 L 80.382812 83.132812 L 80.355469 83.078125 L 80.328125 83.027344 L 80.28125 82.917969 L 80.261719 82.859375 L 80.242188 82.804688 L 80.222656 82.746094 L 80.191406 82.628906 L 80.179688 82.570312 L 80.960938 82.480469 L 80.972656 82.511719 L 80.984375 82.546875 L 80.992188 82.582031 L 81.007812 82.613281 L 81.03125 82.683594 L 81.046875 82.714844 L 81.0625 82.75 L 81.09375 82.8125 L 81.152344 82.90625 L 81.175781 82.9375 L 81.195312 82.964844 L 81.21875 82.996094 L 81.246094 83.023438 L 81.269531 83.050781 L 81.300781 83.074219 L 81.328125 83.101562 L 81.421875 83.171875 L 81.457031 83.195312 L 81.492188 83.214844 L 81.570312 83.253906 L 81.609375 83.269531 L 81.652344 83.289062 L 81.691406 83.304688 L 81.738281 83.316406 L 81.785156 83.332031 L 81.832031 83.339844 L 81.882812 83.351562 L 81.933594 83.359375 L 81.988281 83.367188 L 82.042969 83.371094 L 82.101562 83.375 L 82.160156 83.375 L 82.222656 83.378906 L 82.28125 83.375 L 82.339844 83.375 L 82.398438 83.367188 L 82.453125 83.363281 L 82.507812 83.355469 L 82.5625 83.34375 L 82.613281 83.332031 L 82.667969 83.320312 L 82.71875 83.304688 L 82.765625 83.285156 L 82.816406 83.265625 L 82.863281 83.246094 L 82.90625 83.222656 L 82.953125 83.199219 L 82.992188 83.171875 L 83.035156 83.140625 L 83.074219 83.113281 L 83.113281 83.082031 L 83.21875 82.976562 L 83.25 82.9375 L 83.28125 82.894531 L 83.3125 82.855469 L 83.339844 82.8125 L 83.367188 82.765625 L 83.414062 82.671875 L 83.453125 82.570312 L 83.472656 82.515625 L 83.503906 82.40625 L 83.515625 82.347656 L 83.523438 82.289062 L 83.535156 82.226562 L 83.539062 82.164062 L 83.546875 82.101562 L 83.546875 82.035156 L 83.550781 81.96875 L 83.546875 81.914062 L 83.546875 81.859375 L 83.539062 81.804688 L 83.535156 81.75 L 83.527344 81.699219 L 83.515625 81.648438 L 83.503906 81.601562 L 83.492188 81.550781 L 83.476562 81.503906 L 83.457031 81.457031 L 83.441406 81.410156 L 83.417969 81.363281 L 83.398438 81.320312 L 83.375 81.277344 L 83.347656 81.238281 L 83.324219 81.199219 L 83.292969 81.160156 L 83.265625 81.121094 L 83.234375 81.085938 L 83.167969 81.019531 L 83.128906 80.988281 L 83.09375 80.957031 L 83.054688 80.925781 L 83.015625 80.898438 L 82.929688 80.851562 L 82.835938 80.804688 L 82.789062 80.785156 L 82.636719 80.738281 L 82.585938 80.726562 L 82.53125 80.714844 L 82.476562 80.707031 L 82.417969 80.699219 L 82.300781 80.691406 L 82.164062 80.691406 L 82.125 80.695312 L 82.089844 80.695312 L 82.050781 80.699219 L 82.015625 80.703125 L 81.984375 80.707031 L 81.949219 80.714844 L 81.914062 80.71875 L 81.882812 80.726562 L 81.847656 80.734375 L 81.722656 80.765625 L 81.695312 80.777344 L 81.664062 80.785156 L 81.632812 80.796875 L 81.523438 80.84375 L 81.496094 80.859375 L 81.46875 80.871094 L 81.445312 80.886719 L 81.417969 80.898438 L 81.277344 80.992188 L 81.257812 81.007812 L 81.234375 81.027344 L 81.195312 81.058594 L 81.171875 81.074219 L 81.152344 81.089844 L 81.132812 81.109375 L 81.113281 81.125 L 80.355469 81.125 L 80.558594 77.867188 L 84 77.867188 L 84 78.527344 L 81.261719 78.527344 L 81.148438 80.445312 L 81.1875 80.414062 L 81.234375 80.386719 L 81.28125 80.355469 L 81.328125 80.328125 L 81.378906 80.300781 L 81.433594 80.273438 L 81.484375 80.246094 L 81.601562 80.199219 L 81.726562 80.152344 L 81.792969 80.132812 L 81.859375 80.117188 L 81.929688 80.101562 L 82 80.089844 L 82.074219 80.078125 L 82.152344 80.070312 L 82.230469 80.066406 L 82.3125 80.0625 L 82.398438 80.058594 L 82.488281 80.0625 L 82.574219 80.066406 L 82.660156 80.074219 L 82.742188 80.082031 L 82.824219 80.09375 L 82.90625 80.109375 L 83.0625 80.148438 L 83.136719 80.171875 L 83.210938 80.199219 L 83.28125 80.226562 L 83.351562 80.257812 L 83.417969 80.289062 L 83.480469 80.324219 L 83.605469 80.402344 L 83.664062 80.445312 L 83.773438 80.539062 L 83.875 80.640625 L 83.921875 80.691406 L 83.964844 80.746094 L 84.007812 80.804688 L 84.085938 80.921875 L 84.121094 80.984375 L 84.15625 81.050781 L 84.1875 81.117188 L 84.242188 81.257812 L 84.265625 81.328125 L 84.304688 81.476562 L 84.316406 81.550781 L 84.332031 81.628906 L 84.347656 81.785156 L 84.351562 81.867188 Z M 84.351562 81.949219 "/>
<path style="fill:none;stroke-width:1.422638;stroke-linecap:butt;stroke-linejoin:round;stroke:rgb(20%,20%,20%);stroke-opacity:1;stroke-miterlimit:10;" d="M 86.914062 327.324219 L 89.652344 327.324219 "/>
<path style="fill:none;stroke-width:1.422638;stroke-linecap:butt;stroke-linejoin:round;stroke:rgb(20%,20%,20%);stroke-opacity:1;stroke-miterlimit:10;" d="M 86.914062 245.183594 L 89.652344 245.183594 "/>
<path style="fill:none;stroke-width:1.422638;stroke-linecap:butt;stroke-linejoin:round;stroke:rgb(20%,20%,20%);stroke-opacity:1;stroke-miterlimit:10;" d="M 86.914062 163.039062 L 89.652344 163.039062 "/>
<path style="fill:none;stroke-width:1.422638;stroke-linecap:butt;stroke-linejoin:round;stroke:rgb(20%,20%,20%);stroke-opacity:1;stroke-miterlimit:10;" d="M 86.914062 80.894531 L 89.652344 80.894531 "/>
<path style="fill:none;stroke-width:1.422638;stroke-linecap:butt;stroke-linejoin:round;stroke:rgb(20%,20%,20%);stroke-opacity:1;stroke-miterlimit:10;" d="M 90.988281 344.449219 L 90.988281 341.707031 "/>
<path style="fill:none;stroke-width:1.422638;stroke-linecap:butt;stroke-linejoin:round;stroke:rgb(20%,20%,20%);stroke-opacity:1;stroke-miterlimit:10;" d="M 173.132812 344.449219 L 173.132812 341.707031 "/>
<path style="fill:none;stroke-width:1.422638;stroke-linecap:butt;stroke-linejoin:round;stroke:rgb(20%,20%,20%);stroke-opacity:1;stroke-miterlimit:10;" d="M 255.277344 344.449219 L 255.277344 341.707031 "/>
<path style="fill:none;stroke-width:1.422638;stroke-linecap:butt;stroke-linejoin:round;stroke:rgb(20%,20%,20%);stroke-opacity:1;stroke-miterlimit:10;" d="M 337.417969 344.449219 L 337.417969 341.707031 "/>
<path style="fill:none;stroke-width:1.422638;stroke-linecap:butt;stroke-linejoin:round;stroke:rgb(20%,20%,20%);stroke-opacity:1;stroke-miterlimit:10;" d="M 419.5625 344.449219 L 419.5625 341.707031 "/>
<path style=" stroke:none;fill-rule:evenodd;fill:rgb(30.196078%,30.196078%,30.196078%);fill-opacity:1;" d="M 90.644531 349.664062 L 90.644531 349.835938 L 90.640625 350.003906 L 90.628906 350.164062 L 90.617188 350.320312 L 90.605469 350.46875 L 90.585938 350.613281 L 90.5625 350.75 L 90.539062 350.882812 L 90.507812 351.011719 L 90.476562 351.132812 L 90.445312 351.25 L 90.40625 351.363281 L 90.328125 351.574219 L 90.285156 351.671875 L 90.238281 351.765625 L 90.1875 351.855469 L 90.136719 351.941406 L 90.027344 352.097656 L 89.96875 352.167969 L 89.910156 352.234375 L 89.847656 352.296875 L 89.785156 352.355469 L 89.71875 352.410156 L 89.648438 352.460938 L 89.578125 352.507812 L 89.507812 352.550781 L 89.433594 352.585938 L 89.355469 352.621094 L 89.277344 352.652344 L 89.199219 352.679688 L 89.121094 352.703125 L 88.957031 352.742188 L 88.875 352.753906 L 88.789062 352.765625 L 88.703125 352.773438 L 88.53125 352.78125 L 88.445312 352.777344 L 88.355469 352.773438 L 88.269531 352.765625 L 88.105469 352.742188 L 87.941406 352.703125 L 87.863281 352.679688 L 87.785156 352.652344 L 87.707031 352.621094 L 87.558594 352.550781 L 87.484375 352.507812 L 87.417969 352.460938 L 87.347656 352.410156 L 87.28125 352.355469 L 87.21875 352.296875 L 87.15625 352.234375 L 87.097656 352.167969 L 87.039062 352.097656 L 86.984375 352.023438 L 86.882812 351.859375 L 86.835938 351.769531 L 86.789062 351.675781 L 86.746094 351.578125 L 86.667969 351.367188 L 86.597656 351.140625 L 86.566406 351.015625 L 86.539062 350.890625 L 86.515625 350.753906 L 86.496094 350.617188 L 86.480469 350.472656 L 86.464844 350.320312 L 86.453125 350.164062 L 86.445312 350.003906 L 86.441406 349.835938 L 86.4375 349.664062 L 86.441406 349.484375 L 86.445312 349.3125 L 86.453125 349.144531 L 86.464844 348.984375 L 86.480469 348.828125 L 86.496094 348.679688 L 86.515625 348.539062 L 86.539062 348.402344 L 86.566406 348.273438 L 86.597656 348.152344 L 86.632812 348.035156 L 86.667969 347.921875 L 86.707031 347.8125 L 86.746094 347.710938 L 86.792969 347.613281 L 86.835938 347.519531 L 86.886719 347.429688 L 86.9375 347.347656 L 86.988281 347.269531 L 87.042969 347.195312 L 87.101562 347.125 L 87.164062 347.058594 L 87.222656 347 L 87.355469 346.890625 L 87.421875 346.84375 L 87.492188 346.800781 L 87.5625 346.761719 L 87.640625 346.726562 L 87.714844 346.695312 L 87.792969 346.667969 L 87.871094 346.644531 L 87.953125 346.621094 L 88.035156 346.601562 L 88.117188 346.585938 L 88.289062 346.5625 L 88.378906 346.554688 L 88.464844 346.550781 L 88.644531 346.550781 L 88.730469 346.554688 L 88.8125 346.5625 L 88.976562 346.585938 L 89.058594 346.601562 L 89.136719 346.621094 L 89.292969 346.667969 L 89.371094 346.695312 L 89.445312 346.726562 L 89.519531 346.761719 L 89.589844 346.800781 L 89.660156 346.84375 L 89.726562 346.890625 L 89.792969 346.945312 L 89.855469 347 L 89.917969 347.058594 L 89.976562 347.125 L 90.035156 347.195312 L 90.089844 347.269531 L 90.144531 347.347656 L 90.195312 347.429688 L 90.242188 347.519531 L 90.289062 347.613281 L 90.332031 347.710938 L 90.375 347.8125 L 90.410156 347.921875 L 90.449219 348.035156 L 90.480469 348.152344 L 90.511719 348.273438 L 90.539062 348.402344 L 90.566406 348.539062 L 90.585938 348.679688 L 90.605469 348.828125 L 90.621094 348.984375 L 90.628906 349.144531 L 90.640625 349.3125 L 90.644531 349.484375 Z M 89.859375 349.664062 L 89.859375 349.523438 L 89.855469 349.386719 L 89.851562 349.253906 L 89.84375 349.125 L 89.835938 349.003906 L 89.828125 348.886719 L 89.816406 348.773438 L 89.804688 348.667969 L 89.789062 348.5625 L 89.773438 348.464844 L 89.753906 348.371094 L 89.734375 348.28125 L 89.714844 348.195312 L 89.691406 348.113281 L 89.667969 348.035156 L 89.640625 347.960938 L 89.613281 347.890625 L 89.582031 347.824219 L 89.550781 347.761719 L 89.519531 347.703125 L 89.484375 347.644531 L 89.414062 347.542969 L 89.375 347.5 L 89.332031 347.457031 L 89.289062 347.417969 L 89.246094 347.382812 L 89.203125 347.351562 L 89.15625 347.324219 L 89.105469 347.296875 L 89.058594 347.273438 L 88.957031 347.234375 L 88.902344 347.21875 L 88.792969 347.195312 L 88.738281 347.1875 L 88.679688 347.183594 L 88.617188 347.179688 L 88.558594 347.175781 L 88.492188 347.179688 L 88.367188 347.1875 L 88.308594 347.195312 L 88.191406 347.21875 L 88.136719 347.234375 L 88.085938 347.253906 L 88.03125 347.273438 L 87.980469 347.296875 L 87.886719 347.351562 L 87.792969 347.421875 L 87.75 347.460938 L 87.671875 347.546875 L 87.59375 347.648438 L 87.558594 347.707031 L 87.527344 347.765625 L 87.496094 347.828125 L 87.46875 347.894531 L 87.4375 347.964844 L 87.414062 348.039062 L 87.386719 348.117188 L 87.367188 348.199219 L 87.34375 348.285156 L 87.324219 348.375 L 87.308594 348.46875 L 87.289062 348.566406 L 87.277344 348.671875 L 87.261719 348.777344 L 87.25 348.890625 L 87.242188 349.007812 L 87.234375 349.128906 L 87.230469 349.257812 L 87.222656 349.386719 L 87.222656 349.933594 L 87.230469 350.0625 L 87.234375 350.1875 L 87.25 350.421875 L 87.261719 350.53125 L 87.277344 350.636719 L 87.289062 350.742188 L 87.308594 350.839844 L 87.324219 350.933594 L 87.347656 351.023438 L 87.367188 351.109375 L 87.390625 351.191406 L 87.417969 351.269531 L 87.441406 351.34375 L 87.472656 351.414062 L 87.5 351.484375 L 87.53125 351.546875 L 87.601562 351.664062 L 87.636719 351.714844 L 87.675781 351.765625 L 87.714844 351.8125 L 87.753906 351.855469 L 87.839844 351.933594 L 87.933594 351.996094 L 87.980469 352.023438 L 88.082031 352.070312 L 88.132812 352.085938 L 88.1875 352.105469 L 88.242188 352.117188 L 88.300781 352.128906 L 88.417969 352.144531 L 88.476562 352.148438 L 88.601562 352.148438 L 88.660156 352.144531 L 88.71875 352.136719 L 88.773438 352.128906 L 88.882812 352.105469 L 88.9375 352.085938 L 88.988281 352.070312 L 89.089844 352.023438 L 89.136719 351.996094 L 89.230469 351.933594 L 89.316406 351.855469 L 89.355469 351.8125 L 89.394531 351.765625 L 89.433594 351.714844 L 89.46875 351.664062 L 89.503906 351.605469 L 89.535156 351.546875 L 89.566406 351.484375 L 89.597656 351.414062 L 89.625 351.34375 L 89.652344 351.269531 L 89.679688 351.191406 L 89.703125 351.109375 L 89.726562 351.023438 L 89.746094 350.933594 L 89.765625 350.839844 L 89.78125 350.742188 L 89.8125 350.53125 L 89.824219 350.421875 L 89.835938 350.304688 L 89.84375 350.1875 L 89.851562 350.0625 L 89.855469 349.933594 L 89.859375 349.800781 Z M 89.859375 349.664062 "/>
<path style=" stroke:none;fill-rule:evenodd;fill:rgb(30.196078%,30.196078%,30.196078%);fill-opacity:1;" d="M 91.792969 352.695312 L 91.792969 351.753906 L 92.628906 351.753906 L 92.628906 352.695312 Z M 91.792969 352.695312 "/>
<path style=" stroke:none;fill-rule:evenodd;fill:rgb(30.196078%,30.196078%,30.196078%);fill-opacity:1;" d="M 97.984375 349.664062 L 97.984375 349.835938 L 97.976562 350.003906 L 97.96875 350.164062 L 97.957031 350.320312 L 97.941406 350.46875 L 97.925781 350.613281 L 97.902344 350.75 L 97.878906 350.882812 L 97.847656 351.011719 L 97.816406 351.132812 L 97.78125 351.25 L 97.746094 351.363281 L 97.667969 351.574219 L 97.621094 351.671875 L 97.574219 351.765625 L 97.527344 351.855469 L 97.476562 351.941406 L 97.367188 352.097656 L 97.308594 352.167969 L 97.25 352.234375 L 97.1875 352.296875 L 97.121094 352.355469 L 97.054688 352.410156 L 96.988281 352.460938 L 96.917969 352.507812 L 96.847656 352.550781 L 96.773438 352.585938 L 96.695312 352.621094 L 96.617188 352.652344 L 96.539062 352.679688 L 96.457031 352.703125 L 96.378906 352.722656 L 96.296875 352.742188 L 96.210938 352.753906 L 96.128906 352.765625 L 96.042969 352.773438 L 95.871094 352.78125 L 95.78125 352.777344 L 95.695312 352.773438 L 95.609375 352.765625 L 95.527344 352.753906 L 95.441406 352.742188 L 95.359375 352.722656 L 95.28125 352.703125 L 95.199219 352.679688 L 95.121094 352.652344 L 95.046875 352.621094 L 94.96875 352.585938 L 94.894531 352.550781 L 94.824219 352.507812 L 94.753906 352.460938 L 94.6875 352.410156 L 94.621094 352.355469 L 94.558594 352.296875 L 94.496094 352.234375 L 94.4375 352.167969 L 94.378906 352.097656 L 94.324219 352.023438 L 94.222656 351.859375 L 94.175781 351.769531 L 94.128906 351.675781 L 94.085938 351.578125 L 94.007812 351.367188 L 93.96875 351.253906 L 93.9375 351.140625 L 93.90625 351.015625 L 93.878906 350.890625 L 93.855469 350.753906 L 93.835938 350.617188 L 93.816406 350.472656 L 93.804688 350.320312 L 93.792969 350.164062 L 93.785156 350.003906 L 93.78125 349.835938 L 93.777344 349.664062 L 93.78125 349.484375 L 93.785156 349.3125 L 93.792969 349.144531 L 93.804688 348.984375 L 93.816406 348.828125 L 93.835938 348.679688 L 93.855469 348.539062 L 93.878906 348.402344 L 93.90625 348.273438 L 93.9375 348.152344 L 93.972656 348.035156 L 94.007812 347.921875 L 94.046875 347.8125 L 94.085938 347.710938 L 94.128906 347.613281 L 94.175781 347.519531 L 94.222656 347.429688 L 94.273438 347.347656 L 94.328125 347.269531 L 94.382812 347.195312 L 94.441406 347.125 L 94.5 347.058594 L 94.5625 347 L 94.628906 346.945312 L 94.691406 346.890625 L 94.761719 346.84375 L 94.832031 346.800781 L 94.902344 346.761719 L 94.976562 346.726562 L 95.054688 346.695312 L 95.132812 346.667969 L 95.210938 346.644531 L 95.292969 346.621094 L 95.375 346.601562 L 95.457031 346.585938 L 95.628906 346.5625 L 95.71875 346.554688 L 95.804688 346.550781 L 95.984375 346.550781 L 96.066406 346.554688 L 96.152344 346.5625 L 96.316406 346.585938 L 96.398438 346.601562 L 96.476562 346.621094 L 96.632812 346.667969 L 96.707031 346.695312 L 96.785156 346.726562 L 96.855469 346.761719 L 96.929688 346.800781 L 97 346.84375 L 97.066406 346.890625 L 97.132812 346.945312 L 97.195312 347 L 97.257812 347.058594 L 97.316406 347.125 L 97.375 347.195312 L 97.429688 347.269531 L 97.484375 347.347656 L 97.535156 347.429688 L 97.582031 347.519531 L 97.628906 347.613281 L 97.671875 347.710938 L 97.710938 347.8125 L 97.75 347.921875 L 97.789062 348.035156 L 97.820312 348.152344 L 97.851562 348.273438 L 97.878906 348.402344 L 97.90625 348.539062 L 97.925781 348.679688 L 97.945312 348.828125 L 97.957031 348.984375 L 97.96875 349.144531 L 97.976562 349.3125 L 97.984375 349.484375 Z M 97.199219 349.664062 L 97.199219 349.523438 L 97.195312 349.386719 L 97.191406 349.253906 L 97.183594 349.125 L 97.175781 349.003906 L 97.167969 348.886719 L 97.15625 348.773438 L 97.144531 348.667969 L 97.128906 348.5625 L 97.113281 348.464844 L 97.09375 348.371094 L 97.074219 348.28125 L 97.054688 348.195312 L 97.03125 348.113281 L 97.007812 348.035156 L 96.980469 347.960938 L 96.953125 347.890625 L 96.921875 347.824219 L 96.890625 347.761719 L 96.859375 347.703125 L 96.824219 347.644531 L 96.789062 347.59375 L 96.75 347.542969 L 96.671875 347.457031 L 96.628906 347.417969 L 96.585938 347.382812 L 96.542969 347.351562 L 96.496094 347.324219 L 96.445312 347.296875 L 96.398438 347.273438 L 96.296875 347.234375 L 96.242188 347.21875 L 96.132812 347.195312 L 96.074219 347.1875 L 95.957031 347.179688 L 95.894531 347.175781 L 95.707031 347.1875 L 95.648438 347.195312 L 95.53125 347.21875 L 95.476562 347.234375 L 95.421875 347.253906 L 95.371094 347.273438 L 95.320312 347.296875 L 95.269531 347.324219 L 95.222656 347.351562 L 95.179688 347.386719 L 95.132812 347.421875 L 95.089844 347.460938 L 95.050781 347.503906 L 95.007812 347.546875 L 94.972656 347.597656 L 94.933594 347.648438 L 94.898438 347.707031 L 94.867188 347.765625 L 94.835938 347.828125 L 94.804688 347.894531 L 94.777344 347.964844 L 94.753906 348.039062 L 94.726562 348.117188 L 94.703125 348.199219 L 94.683594 348.285156 L 94.664062 348.375 L 94.644531 348.46875 L 94.628906 348.566406 L 94.613281 348.671875 L 94.601562 348.777344 L 94.589844 348.890625 L 94.582031 349.007812 L 94.574219 349.128906 L 94.566406 349.257812 L 94.5625 349.386719 L 94.5625 349.523438 L 94.558594 349.664062 L 94.5625 349.800781 L 94.5625 349.933594 L 94.566406 350.0625 L 94.574219 350.1875 L 94.589844 350.421875 L 94.601562 350.53125 L 94.613281 350.636719 L 94.628906 350.742188 L 94.644531 350.839844 L 94.664062 350.933594 L 94.683594 351.023438 L 94.707031 351.109375 L 94.730469 351.191406 L 94.753906 351.269531 L 94.78125 351.34375 L 94.808594 351.414062 L 94.839844 351.484375 L 94.871094 351.546875 L 94.902344 351.605469 L 94.9375 351.664062 L 94.976562 351.714844 L 95.011719 351.765625 L 95.054688 351.8125 L 95.09375 351.855469 L 95.179688 351.933594 L 95.273438 351.996094 L 95.320312 352.023438 L 95.421875 352.070312 L 95.472656 352.085938 L 95.527344 352.105469 L 95.582031 352.117188 L 95.640625 352.128906 L 95.695312 352.136719 L 95.757812 352.144531 L 95.816406 352.148438 L 95.941406 352.148438 L 96 352.144531 L 96.058594 352.136719 L 96.113281 352.128906 L 96.222656 352.105469 L 96.277344 352.085938 L 96.328125 352.070312 L 96.429688 352.023438 L 96.476562 351.996094 L 96.570312 351.933594 L 96.65625 351.855469 L 96.695312 351.8125 L 96.734375 351.765625 L 96.769531 351.714844 L 96.808594 351.664062 L 96.839844 351.605469 L 96.875 351.546875 L 96.90625 351.484375 L 96.9375 351.414062 L 96.964844 351.34375 L 96.992188 351.269531 L 97.019531 351.191406 L 97.042969 351.109375 L 97.0625 351.023438 L 97.085938 350.933594 L 97.105469 350.839844 L 97.121094 350.742188 L 97.152344 350.53125 L 97.164062 350.421875 L 97.175781 350.304688 L 97.183594 350.1875 L 97.191406 350.0625 L 97.195312 349.933594 L 97.195312 349.800781 Z M 97.199219 349.664062 "/>
<path style=" stroke:none;fill-rule:evenodd;fill:rgb(30.196078%,30.196078%,30.196078%);fill-opacity:1;" d="M 172.789062 349.664062 L 172.785156 349.835938 L 172.78125 350.003906 L 172.773438 350.164062 L 172.761719 350.320312 L 172.746094 350.46875 L 172.726562 350.613281 L 172.707031 350.75 L 172.679688 350.882812 L 172.652344 351.011719 L 172.621094 351.132812 L 172.585938 351.25 L 172.550781 351.363281 L 172.511719 351.46875 L 172.46875 351.574219 L 172.425781 351.671875 L 172.378906 351.765625 L 172.332031 351.855469 L 172.28125 351.941406 L 172.171875 352.097656 L 172.113281 352.167969 L 172.050781 352.234375 L 171.992188 352.296875 L 171.925781 352.355469 L 171.859375 352.410156 L 171.792969 352.460938 L 171.722656 352.507812 L 171.648438 352.550781 L 171.5 352.621094 L 171.421875 352.652344 L 171.34375 352.679688 L 171.261719 352.703125 L 171.183594 352.722656 L 171.101562 352.742188 L 171.015625 352.753906 L 170.933594 352.765625 L 170.847656 352.773438 L 170.675781 352.78125 L 170.585938 352.777344 L 170.5 352.773438 L 170.414062 352.765625 L 170.332031 352.753906 L 170.246094 352.742188 L 170.164062 352.722656 L 170.085938 352.703125 L 170.003906 352.679688 L 169.925781 352.652344 L 169.851562 352.621094 L 169.773438 352.585938 L 169.699219 352.550781 L 169.628906 352.507812 L 169.558594 352.460938 L 169.492188 352.410156 L 169.425781 352.355469 L 169.363281 352.296875 L 169.300781 352.234375 L 169.242188 352.167969 L 169.183594 352.097656 L 169.128906 352.023438 L 169.027344 351.859375 L 168.980469 351.769531 L 168.933594 351.675781 L 168.890625 351.578125 L 168.847656 351.472656 L 168.8125 351.367188 L 168.773438 351.253906 L 168.742188 351.140625 L 168.710938 351.015625 L 168.683594 350.890625 L 168.660156 350.753906 L 168.640625 350.617188 L 168.621094 350.472656 L 168.609375 350.320312 L 168.597656 350.164062 L 168.589844 350.003906 L 168.582031 349.835938 L 168.582031 349.484375 L 168.589844 349.3125 L 168.597656 349.144531 L 168.609375 348.984375 L 168.621094 348.828125 L 168.640625 348.679688 L 168.660156 348.539062 L 168.683594 348.402344 L 168.710938 348.273438 L 168.742188 348.152344 L 168.773438 348.035156 L 168.8125 347.921875 L 168.851562 347.8125 L 168.890625 347.710938 L 168.933594 347.613281 L 168.980469 347.519531 L 169.027344 347.429688 L 169.078125 347.347656 L 169.132812 347.269531 L 169.1875 347.195312 L 169.246094 347.125 L 169.304688 347.058594 L 169.367188 347 L 169.429688 346.945312 L 169.496094 346.890625 L 169.566406 346.84375 L 169.636719 346.800781 L 169.707031 346.761719 L 169.78125 346.726562 L 169.859375 346.695312 L 169.9375 346.667969 L 170.015625 346.644531 L 170.097656 346.621094 L 170.179688 346.601562 L 170.261719 346.585938 L 170.433594 346.5625 L 170.519531 346.554688 L 170.609375 346.550781 L 170.785156 346.550781 L 170.871094 346.554688 L 170.957031 346.5625 L 171.121094 346.585938 L 171.199219 346.601562 L 171.28125 346.621094 L 171.4375 346.667969 L 171.511719 346.695312 L 171.589844 346.726562 L 171.660156 346.761719 L 171.734375 346.800781 L 171.800781 346.84375 L 171.871094 346.890625 L 171.9375 346.945312 L 172 347 L 172.0625 347.058594 L 172.121094 347.125 L 172.179688 347.195312 L 172.234375 347.269531 L 172.289062 347.347656 L 172.335938 347.429688 L 172.386719 347.519531 L 172.433594 347.613281 L 172.476562 347.710938 L 172.515625 347.8125 L 172.554688 347.921875 L 172.589844 348.035156 L 172.625 348.152344 L 172.65625 348.273438 L 172.683594 348.402344 L 172.707031 348.539062 L 172.730469 348.679688 L 172.746094 348.828125 L 172.761719 348.984375 L 172.773438 349.144531 L 172.78125 349.3125 L 172.785156 349.484375 Z M 172.003906 349.664062 L 172 349.523438 L 172 349.386719 L 171.996094 349.253906 L 171.988281 349.125 L 171.980469 349.003906 L 171.972656 348.886719 L 171.960938 348.773438 L 171.949219 348.667969 L 171.933594 348.5625 L 171.917969 348.464844 L 171.898438 348.371094 L 171.878906 348.28125 L 171.859375 348.195312 L 171.835938 348.113281 L 171.808594 348.035156 L 171.785156 347.960938 L 171.757812 347.890625 L 171.726562 347.824219 L 171.695312 347.761719 L 171.664062 347.703125 L 171.628906 347.644531 L 171.59375 347.59375 L 171.554688 347.542969 L 171.476562 347.457031 L 171.433594 347.417969 L 171.390625 347.382812 L 171.34375 347.351562 L 171.25 347.296875 L 171.203125 347.273438 L 171.101562 347.234375 L 171.046875 347.21875 L 170.9375 347.195312 L 170.878906 347.1875 L 170.761719 347.179688 L 170.699219 347.175781 L 170.511719 347.1875 L 170.453125 347.195312 L 170.335938 347.21875 L 170.28125 347.234375 L 170.226562 347.253906 L 170.175781 347.273438 L 170.125 347.296875 L 170.074219 347.324219 L 170.027344 347.351562 L 169.980469 347.386719 L 169.9375 347.421875 L 169.894531 347.460938 L 169.851562 347.503906 L 169.8125 347.546875 L 169.777344 347.597656 L 169.738281 347.648438 L 169.703125 347.707031 L 169.671875 347.765625 L 169.640625 347.828125 L 169.609375 347.894531 L 169.582031 347.964844 L 169.554688 348.039062 L 169.53125 348.117188 L 169.507812 348.199219 L 169.488281 348.285156 L 169.46875 348.375 L 169.449219 348.46875 L 169.433594 348.566406 L 169.417969 348.671875 L 169.40625 348.777344 L 169.394531 348.890625 L 169.386719 349.007812 L 169.378906 349.128906 L 169.371094 349.257812 L 169.367188 349.386719 L 169.363281 349.523438 L 169.363281 349.800781 L 169.367188 349.933594 L 169.371094 350.0625 L 169.378906 350.1875 L 169.394531 350.421875 L 169.40625 350.53125 L 169.417969 350.636719 L 169.433594 350.742188 L 169.449219 350.839844 L 169.46875 350.933594 L 169.488281 351.023438 L 169.511719 351.109375 L 169.535156 351.191406 L 169.558594 351.269531 L 169.585938 351.34375 L 169.613281 351.414062 L 169.644531 351.484375 L 169.675781 351.546875 L 169.707031 351.605469 L 169.742188 351.664062 L 169.78125 351.714844 L 169.816406 351.765625 L 169.855469 351.8125 L 169.898438 351.855469 L 169.984375 351.933594 L 170.078125 351.996094 L 170.125 352.023438 L 170.226562 352.070312 L 170.277344 352.085938 L 170.332031 352.105469 L 170.441406 352.128906 L 170.558594 352.144531 L 170.621094 352.148438 L 170.742188 352.148438 L 170.804688 352.144531 L 170.859375 352.136719 L 170.917969 352.128906 L 171.027344 352.105469 L 171.082031 352.085938 L 171.132812 352.070312 L 171.234375 352.023438 L 171.28125 351.996094 L 171.375 351.933594 L 171.417969 351.894531 L 171.5 351.8125 L 171.539062 351.765625 L 171.574219 351.714844 L 171.613281 351.664062 L 171.644531 351.605469 L 171.679688 351.546875 L 171.710938 351.484375 L 171.742188 351.414062 L 171.769531 351.34375 L 171.796875 351.269531 L 171.824219 351.191406 L 171.847656 351.109375 L 171.867188 351.023438 L 171.890625 350.933594 L 171.90625 350.839844 L 171.925781 350.742188 L 171.957031 350.53125 L 171.96875 350.421875 L 171.980469 350.304688 L 171.988281 350.1875 L 171.992188 350.0625 L 172 349.933594 L 172 349.800781 Z M 172.003906 349.664062 "/>
<path style=" stroke:none;fill-rule:evenodd;fill:rgb(30.196078%,30.196078%,30.196078%);fill-opacity:1;" d="M 173.9375 352.695312 L 173.9375 351.753906 L 174.773438 351.753906 L 174.773438 352.695312 Z M 173.9375 352.695312 "/>
<path style=" stroke:none;fill-rule:evenodd;fill:rgb(30.196078%,30.196078%,30.196078%);fill-opacity:1;" d="M 180.101562 350.722656 L 180.101562 350.8125 L 180.097656 350.902344 L 180.089844 350.988281 L 180.066406 351.160156 L 180.050781 351.242188 L 180.035156 351.320312 L 180.015625 351.402344 L 179.992188 351.480469 L 179.9375 351.628906 L 179.902344 351.703125 L 179.871094 351.773438 L 179.792969 351.90625 L 179.75 351.972656 L 179.707031 352.035156 L 179.660156 352.09375 L 179.609375 352.152344 L 179.5 352.261719 L 179.441406 352.3125 L 179.382812 352.359375 L 179.320312 352.40625 L 179.253906 352.449219 L 179.183594 352.492188 L 179.113281 352.527344 L 179.039062 352.566406 L 178.882812 352.628906 L 178.800781 352.660156 L 178.628906 352.707031 L 178.542969 352.726562 L 178.355469 352.757812 L 178.160156 352.773438 L 178.058594 352.777344 L 177.953125 352.78125 L 177.859375 352.777344 L 177.769531 352.777344 L 177.589844 352.761719 L 177.507812 352.753906 L 177.425781 352.738281 L 177.34375 352.726562 L 177.265625 352.707031 L 177.191406 352.691406 L 177.050781 352.644531 L 176.984375 352.621094 L 176.917969 352.59375 L 176.855469 352.566406 L 176.792969 352.535156 L 176.734375 352.503906 L 176.679688 352.472656 L 176.625 352.4375 L 176.574219 352.402344 L 176.523438 352.363281 L 176.476562 352.324219 L 176.382812 352.238281 L 176.34375 352.195312 L 176.300781 352.148438 L 176.265625 352.101562 L 176.226562 352.054688 L 176.195312 352.007812 L 176.160156 351.957031 L 176.132812 351.902344 L 176.105469 351.851562 L 176.078125 351.796875 L 176.03125 351.6875 L 176.011719 351.632812 L 175.992188 351.574219 L 175.972656 351.519531 L 175.941406 351.402344 L 175.929688 351.339844 L 176.710938 351.25 L 176.722656 351.285156 L 176.730469 351.320312 L 176.742188 351.351562 L 176.753906 351.386719 L 176.769531 351.421875 L 176.78125 351.453125 L 176.796875 351.488281 L 176.8125 351.519531 L 176.828125 351.554688 L 176.84375 351.585938 L 176.902344 351.679688 L 176.921875 351.707031 L 176.945312 351.738281 L 176.96875 351.765625 L 176.996094 351.792969 L 177.019531 351.820312 L 177.046875 351.847656 L 177.078125 351.875 L 177.171875 351.945312 L 177.207031 351.964844 L 177.242188 351.988281 L 177.28125 352.007812 L 177.320312 352.023438 L 177.359375 352.042969 L 177.398438 352.058594 L 177.441406 352.074219 L 177.488281 352.089844 L 177.582031 352.113281 L 177.683594 352.128906 L 177.738281 352.136719 L 177.792969 352.140625 L 177.910156 352.148438 L 178.03125 352.148438 L 178.089844 352.144531 L 178.144531 352.140625 L 178.203125 352.132812 L 178.3125 352.117188 L 178.363281 352.105469 L 178.417969 352.089844 L 178.46875 352.074219 L 178.515625 352.058594 L 178.566406 352.039062 L 178.613281 352.015625 L 178.699219 351.96875 L 178.785156 351.914062 L 178.863281 351.851562 L 178.898438 351.820312 L 178.933594 351.785156 L 178.96875 351.746094 L 179.03125 351.667969 L 179.0625 351.625 L 179.117188 351.539062 L 179.140625 351.492188 L 179.164062 351.441406 L 179.222656 351.289062 L 179.238281 351.234375 L 179.253906 351.175781 L 179.265625 351.117188 L 179.273438 351.058594 L 179.285156 351 L 179.289062 350.9375 L 179.296875 350.804688 L 179.296875 350.683594 L 179.289062 350.574219 L 179.285156 350.523438 L 179.277344 350.472656 L 179.253906 350.371094 L 179.242188 350.324219 L 179.226562 350.273438 L 179.1875 350.179688 L 179.148438 350.09375 L 179.125 350.050781 L 179.097656 350.007812 L 179.042969 349.929688 L 179.015625 349.894531 L 178.984375 349.859375 L 178.949219 349.824219 L 178.917969 349.789062 L 178.878906 349.757812 L 178.84375 349.726562 L 178.804688 349.699219 L 178.761719 349.671875 L 178.722656 349.644531 L 178.679688 349.621094 L 178.632812 349.597656 L 178.539062 349.558594 L 178.488281 349.539062 L 178.386719 349.507812 L 178.335938 349.496094 L 178.28125 349.488281 L 178.222656 349.476562 L 178.167969 349.472656 L 178.050781 349.464844 L 177.875 349.464844 L 177.839844 349.46875 L 177.800781 349.472656 L 177.730469 349.480469 L 177.699219 349.484375 L 177.664062 349.492188 L 177.632812 349.496094 L 177.597656 349.503906 L 177.503906 349.527344 L 177.472656 349.539062 L 177.441406 349.546875 L 177.414062 349.558594 L 177.382812 349.570312 L 177.246094 349.628906 L 177.21875 349.644531 L 177.195312 349.65625 L 177.167969 349.671875 L 177.027344 349.765625 L 177.007812 349.78125 L 176.984375 349.796875 L 176.964844 349.8125 L 176.941406 349.828125 L 176.921875 349.847656 L 176.882812 349.878906 L 176.863281 349.898438 L 176.105469 349.898438 L 176.308594 346.640625 L 179.75 346.640625 L 179.75 347.296875 L 177.011719 347.296875 L 176.898438 349.21875 L 176.9375 349.1875 L 176.984375 349.15625 L 177.03125 349.128906 L 177.078125 349.097656 L 177.179688 349.042969 L 177.234375 349.019531 L 177.292969 348.992188 L 177.351562 348.96875 L 177.414062 348.949219 L 177.476562 348.925781 L 177.539062 348.90625 L 177.609375 348.886719 L 177.679688 348.875 L 177.75 348.859375 L 177.824219 348.851562 L 177.980469 348.835938 L 178.0625 348.832031 L 178.234375 348.832031 L 178.324219 348.835938 L 178.410156 348.84375 L 178.492188 348.851562 L 178.65625 348.882812 L 178.734375 348.898438 L 178.8125 348.917969 L 178.886719 348.941406 L 178.960938 348.96875 L 179.03125 348.996094 L 179.097656 349.027344 L 179.230469 349.097656 L 179.292969 349.136719 L 179.351562 349.175781 L 179.46875 349.261719 L 179.523438 349.308594 L 179.574219 349.359375 L 179.621094 349.410156 L 179.671875 349.464844 L 179.757812 349.574219 L 179.796875 349.632812 L 179.835938 349.695312 L 179.90625 349.820312 L 179.9375 349.886719 L 179.992188 350.027344 L 180.015625 350.097656 L 180.035156 350.171875 L 180.050781 350.246094 L 180.066406 350.324219 L 180.078125 350.398438 L 180.089844 350.476562 L 180.097656 350.558594 L 180.101562 350.640625 Z M 180.101562 350.722656 "/>
<path style=" stroke:none;fill-rule:evenodd;fill:rgb(30.196078%,30.196078%,30.196078%);fill-opacity:1;" d="M 251.050781 352.695312 L 251.050781 352.035156 L 252.59375 352.035156 L 252.59375 347.378906 L 251.226562 348.355469 L 251.226562 347.625 L 252.660156 346.640625 L 253.371094 346.640625 L 253.371094 352.035156 L 254.847656 352.035156 L 254.847656 352.695312 Z M 251.050781 352.695312 "/>
<path style=" stroke:none;fill-rule:evenodd;fill:rgb(30.196078%,30.196078%,30.196078%);fill-opacity:1;" d="M 256.078125 352.695312 L 256.078125 351.753906 L 256.917969 351.753906 L 256.917969 352.695312 Z M 256.078125 352.695312 "/>
<path style=" stroke:none;fill-rule:evenodd;fill:rgb(30.196078%,30.196078%,30.196078%);fill-opacity:1;" d="M 262.269531 349.664062 L 262.269531 349.835938 L 262.265625 350.003906 L 262.257812 350.164062 L 262.246094 350.320312 L 262.230469 350.46875 L 262.210938 350.613281 L 262.1875 350.75 L 262.164062 350.882812 L 262.136719 351.011719 L 262.101562 351.132812 L 262.070312 351.25 L 262.03125 351.363281 L 261.996094 351.46875 L 261.953125 351.574219 L 261.910156 351.671875 L 261.863281 351.765625 L 261.8125 351.855469 L 261.761719 351.941406 L 261.652344 352.097656 L 261.59375 352.167969 L 261.535156 352.234375 L 261.472656 352.296875 L 261.410156 352.355469 L 261.34375 352.410156 L 261.273438 352.460938 L 261.203125 352.507812 L 261.132812 352.550781 L 261.058594 352.585938 L 260.980469 352.621094 L 260.902344 352.652344 L 260.824219 352.679688 L 260.746094 352.703125 L 260.582031 352.742188 L 260.5 352.753906 L 260.414062 352.765625 L 260.332031 352.773438 L 260.242188 352.777344 L 260.15625 352.78125 L 260.070312 352.777344 L 259.980469 352.773438 L 259.898438 352.765625 L 259.8125 352.753906 L 259.730469 352.742188 L 259.566406 352.703125 L 259.488281 352.679688 L 259.410156 352.652344 L 259.332031 352.621094 L 259.183594 352.550781 L 259.113281 352.507812 L 259.042969 352.460938 L 258.972656 352.410156 L 258.910156 352.355469 L 258.84375 352.296875 L 258.785156 352.234375 L 258.722656 352.167969 L 258.664062 352.097656 L 258.609375 352.023438 L 258.507812 351.859375 L 258.460938 351.769531 L 258.414062 351.675781 L 258.371094 351.578125 L 258.292969 351.367188 L 258.222656 351.140625 L 258.191406 351.015625 L 258.167969 350.890625 L 258.140625 350.753906 L 258.121094 350.617188 L 258.105469 350.472656 L 258.089844 350.320312 L 258.078125 350.164062 L 258.070312 350.003906 L 258.066406 349.835938 L 258.0625 349.664062 L 258.066406 349.484375 L 258.070312 349.3125 L 258.078125 349.144531 L 258.089844 348.984375 L 258.105469 348.828125 L 258.121094 348.679688 L 258.140625 348.539062 L 258.167969 348.402344 L 258.191406 348.273438 L 258.222656 348.152344 L 258.257812 348.035156 L 258.292969 347.921875 L 258.332031 347.8125 L 258.375 347.710938 L 258.417969 347.613281 L 258.460938 347.519531 L 258.511719 347.429688 L 258.5625 347.347656 L 258.613281 347.269531 L 258.671875 347.195312 L 258.726562 347.125 L 258.789062 347.058594 L 258.851562 347 L 258.914062 346.945312 L 258.980469 346.890625 L 259.046875 346.84375 L 259.117188 346.800781 L 259.191406 346.761719 L 259.265625 346.726562 L 259.339844 346.695312 L 259.417969 346.667969 L 259.496094 346.644531 L 259.578125 346.621094 L 259.660156 346.601562 L 259.746094 346.585938 L 259.828125 346.574219 L 259.914062 346.5625 L 260.003906 346.554688 L 260.09375 346.550781 L 260.269531 346.550781 L 260.355469 346.554688 L 260.4375 346.5625 L 260.601562 346.585938 L 260.683594 346.601562 L 260.761719 346.621094 L 260.917969 346.667969 L 260.996094 346.695312 L 261.070312 346.726562 L 261.144531 346.761719 L 261.214844 346.800781 L 261.285156 346.84375 L 261.351562 346.890625 L 261.417969 346.945312 L 261.480469 347 L 261.542969 347.058594 L 261.601562 347.125 L 261.660156 347.195312 L 261.714844 347.269531 L 261.769531 347.347656 L 261.820312 347.429688 L 261.867188 347.519531 L 261.914062 347.613281 L 261.957031 347.710938 L 262 347.8125 L 262.039062 347.921875 L 262.074219 348.035156 L 262.109375 348.152344 L 262.140625 348.273438 L 262.167969 348.402344 L 262.191406 348.539062 L 262.210938 348.679688 L 262.230469 348.828125 L 262.246094 348.984375 L 262.257812 349.144531 L 262.265625 349.3125 L 262.269531 349.484375 Z M 261.484375 349.664062 L 261.484375 349.523438 L 261.480469 349.386719 L 261.476562 349.253906 L 261.472656 349.125 L 261.464844 349.003906 L 261.453125 348.886719 L 261.441406 348.773438 L 261.429688 348.667969 L 261.414062 348.5625 L 261.398438 348.464844 L 261.378906 348.371094 L 261.359375 348.28125 L 261.339844 348.195312 L 261.316406 348.113281 L 261.292969 348.035156 L 261.265625 347.960938 L 261.238281 347.890625 L 261.210938 347.824219 L 261.179688 347.761719 L 261.109375 347.644531 L 261.039062 347.542969 L 261 347.5 L 260.917969 347.417969 L 260.871094 347.382812 L 260.828125 347.351562 L 260.734375 347.296875 L 260.683594 347.273438 L 260.582031 347.234375 L 260.527344 347.21875 L 260.476562 347.207031 L 260.417969 347.195312 L 260.363281 347.1875 L 260.304688 347.183594 L 260.242188 347.179688 L 260.183594 347.175781 L 260.117188 347.179688 L 259.992188 347.1875 L 259.933594 347.195312 L 259.875 347.207031 L 259.820312 347.21875 L 259.761719 347.234375 L 259.710938 347.253906 L 259.65625 347.273438 L 259.605469 347.296875 L 259.511719 347.351562 L 259.464844 347.386719 L 259.421875 347.421875 L 259.378906 347.460938 L 259.335938 347.503906 L 259.296875 347.546875 L 259.257812 347.597656 L 259.222656 347.648438 L 259.152344 347.765625 L 259.121094 347.828125 L 259.09375 347.894531 L 259.066406 347.964844 L 259.039062 348.039062 L 259.015625 348.117188 L 258.992188 348.199219 L 258.96875 348.285156 L 258.949219 348.375 L 258.933594 348.46875 L 258.917969 348.566406 L 258.886719 348.777344 L 258.878906 348.890625 L 258.867188 349.007812 L 258.859375 349.128906 L 258.851562 349.386719 L 258.847656 349.523438 L 258.847656 349.800781 L 258.851562 349.933594 L 258.855469 350.0625 L 258.859375 350.1875 L 258.867188 350.304688 L 258.878906 350.421875 L 258.886719 350.53125 L 258.917969 350.742188 L 258.933594 350.839844 L 258.953125 350.933594 L 258.972656 351.023438 L 258.992188 351.109375 L 259.015625 351.191406 L 259.042969 351.269531 L 259.070312 351.34375 L 259.125 351.484375 L 259.15625 351.546875 L 259.226562 351.664062 L 259.261719 351.714844 L 259.300781 351.765625 L 259.339844 351.8125 L 259.378906 351.855469 L 259.464844 351.933594 L 259.558594 351.996094 L 259.605469 352.023438 L 259.707031 352.070312 L 259.761719 352.085938 L 259.8125 352.105469 L 259.867188 352.117188 L 259.925781 352.128906 L 260.042969 352.144531 L 260.105469 352.148438 L 260.226562 352.148438 L 260.285156 352.144531 L 260.34375 352.136719 L 260.398438 352.128906 L 260.457031 352.117188 L 260.511719 352.105469 L 260.5625 352.085938 L 260.613281 352.070312 L 260.714844 352.023438 L 260.765625 351.996094 L 260.808594 351.964844 L 260.855469 351.933594 L 260.941406 351.855469 L 260.980469 351.8125 L 261.019531 351.765625 L 261.058594 351.714844 L 261.09375 351.664062 L 261.128906 351.605469 L 261.160156 351.546875 L 261.195312 351.484375 L 261.222656 351.414062 L 261.253906 351.34375 L 261.28125 351.269531 L 261.304688 351.191406 L 261.328125 351.109375 L 261.351562 351.023438 L 261.371094 350.933594 L 261.390625 350.839844 L 261.40625 350.742188 L 261.425781 350.636719 L 261.4375 350.53125 L 261.449219 350.421875 L 261.460938 350.304688 L 261.46875 350.1875 L 261.476562 350.0625 L 261.480469 349.933594 L 261.484375 349.800781 Z M 261.484375 349.664062 "/>
<path style=" stroke:none;fill-rule:evenodd;fill:rgb(30.196078%,30.196078%,30.196078%);fill-opacity:1;" d="M 333.195312 352.695312 L 333.195312 352.035156 L 334.738281 352.035156 L 334.738281 347.378906 L 333.371094 348.355469 L 333.371094 347.625 L 334.800781 346.640625 L 335.515625 346.640625 L 335.515625 352.035156 L 336.988281 352.035156 L 336.988281 352.695312 Z M 333.195312 352.695312 "/>
<path style=" stroke:none;fill-rule:evenodd;fill:rgb(30.196078%,30.196078%,30.196078%);fill-opacity:1;" d="M 338.222656 352.695312 L 338.222656 351.753906 L 339.058594 351.753906 L 339.058594 352.695312 Z M 338.222656 352.695312 "/>
<path style=" stroke:none;fill-rule:evenodd;fill:rgb(30.196078%,30.196078%,30.196078%);fill-opacity:1;" d="M 344.386719 350.722656 L 344.386719 350.8125 L 344.382812 350.902344 L 344.367188 351.074219 L 344.355469 351.160156 L 344.339844 351.242188 L 344.320312 351.320312 L 344.300781 351.402344 L 344.277344 351.480469 L 344.222656 351.628906 L 344.191406 351.703125 L 344.15625 351.773438 L 344.121094 351.839844 L 344.082031 351.90625 L 344.039062 351.972656 L 343.992188 352.035156 L 343.945312 352.09375 L 343.894531 352.152344 L 343.84375 352.207031 L 343.789062 352.261719 L 343.730469 352.3125 L 343.605469 352.40625 L 343.539062 352.449219 L 343.46875 352.492188 L 343.398438 352.527344 L 343.324219 352.566406 L 343.167969 352.628906 L 343.085938 352.660156 L 343.003906 352.683594 L 342.917969 352.707031 L 342.828125 352.726562 L 342.738281 352.742188 L 342.640625 352.757812 L 342.546875 352.765625 L 342.445312 352.773438 L 342.34375 352.777344 L 342.238281 352.78125 L 342.144531 352.777344 L 342.054688 352.777344 L 341.964844 352.769531 L 341.792969 352.753906 L 341.710938 352.738281 L 341.632812 352.726562 L 341.554688 352.707031 L 341.480469 352.691406 L 341.40625 352.667969 L 341.335938 352.644531 L 341.269531 352.621094 L 341.203125 352.59375 L 341.140625 352.566406 L 340.964844 352.472656 L 340.910156 352.4375 L 340.859375 352.402344 L 340.808594 352.363281 L 340.761719 352.324219 L 340.714844 352.28125 L 340.628906 352.195312 L 340.550781 352.101562 L 340.480469 352.007812 L 340.449219 351.957031 L 340.417969 351.902344 L 340.390625 351.851562 L 340.363281 351.796875 L 340.316406 351.6875 L 340.296875 351.632812 L 340.277344 351.574219 L 340.257812 351.519531 L 340.242188 351.460938 L 340.230469 351.402344 L 340.214844 351.339844 L 341 351.25 L 341.007812 351.285156 L 341.019531 351.320312 L 341.03125 351.351562 L 341.054688 351.421875 L 341.070312 351.453125 L 341.082031 351.488281 L 341.097656 351.519531 L 341.113281 351.554688 L 341.132812 351.585938 L 341.148438 351.617188 L 341.1875 351.679688 L 341.210938 351.707031 L 341.234375 351.738281 L 341.28125 351.792969 L 341.363281 351.875 L 341.425781 351.921875 L 341.460938 351.945312 L 341.492188 351.964844 L 341.53125 351.988281 L 341.566406 352.007812 L 341.605469 352.023438 L 341.644531 352.042969 L 341.773438 352.089844 L 341.867188 352.113281 L 341.96875 352.128906 L 342.023438 352.136719 L 342.078125 352.140625 L 342.195312 352.148438 L 342.316406 352.148438 L 342.433594 352.140625 L 342.597656 352.117188 L 342.652344 352.105469 L 342.804688 352.058594 L 342.851562 352.039062 L 342.898438 352.015625 L 342.941406 351.992188 L 342.988281 351.96875 L 343.03125 351.941406 L 343.070312 351.914062 L 343.148438 351.851562 L 343.183594 351.820312 L 343.21875 351.785156 L 343.253906 351.746094 L 343.316406 351.667969 L 343.347656 351.625 L 343.402344 351.539062 L 343.425781 351.492188 L 343.472656 351.390625 L 343.492188 351.339844 L 343.507812 351.289062 L 343.523438 351.234375 L 343.539062 351.175781 L 343.5625 351.058594 L 343.570312 351 L 343.578125 350.9375 L 343.585938 350.804688 L 343.585938 350.683594 L 343.578125 350.574219 L 343.5625 350.472656 L 343.539062 350.371094 L 343.527344 350.324219 L 343.511719 350.273438 L 343.496094 350.226562 L 343.476562 350.179688 L 343.457031 350.136719 L 343.386719 350.007812 L 343.332031 349.929688 L 343.238281 349.824219 L 343.203125 349.789062 L 343.167969 349.757812 L 343.128906 349.726562 L 343.050781 349.671875 L 343.007812 349.644531 L 342.964844 349.621094 L 342.917969 349.597656 L 342.777344 349.539062 L 342.675781 349.507812 L 342.621094 349.496094 L 342.566406 349.488281 L 342.511719 349.476562 L 342.335938 349.464844 L 342.160156 349.464844 L 341.984375 349.484375 L 341.949219 349.492188 L 341.917969 349.496094 L 341.886719 349.503906 L 341.851562 349.511719 L 341.789062 349.527344 L 341.761719 349.539062 L 341.730469 349.546875 L 341.699219 349.558594 L 341.671875 349.570312 L 341.640625 349.582031 L 341.53125 349.628906 L 341.507812 349.644531 L 341.480469 349.65625 L 341.457031 349.671875 L 341.429688 349.6875 L 341.335938 349.75 L 341.316406 349.765625 L 341.292969 349.78125 L 341.273438 349.796875 L 341.25 349.8125 L 341.230469 349.828125 L 341.210938 349.847656 L 341.1875 349.863281 L 341.167969 349.878906 L 341.148438 349.898438 L 340.390625 349.898438 L 340.59375 346.640625 L 344.035156 346.640625 L 344.035156 347.296875 L 341.300781 347.296875 L 341.183594 349.21875 L 341.269531 349.15625 L 341.316406 349.128906 L 341.363281 349.097656 L 341.414062 349.070312 L 341.46875 349.042969 L 341.523438 349.019531 L 341.578125 348.992188 L 341.636719 348.96875 L 341.699219 348.949219 L 341.761719 348.925781 L 341.894531 348.886719 L 341.964844 348.875 L 342.035156 348.859375 L 342.113281 348.851562 L 342.1875 348.84375 L 342.269531 348.835938 L 342.347656 348.832031 L 342.523438 348.832031 L 342.609375 348.835938 L 342.78125 348.851562 L 342.863281 348.867188 L 343.019531 348.898438 L 343.097656 348.917969 L 343.171875 348.941406 L 343.246094 348.96875 L 343.316406 348.996094 L 343.386719 349.027344 L 343.453125 349.0625 L 343.515625 349.097656 L 343.640625 349.175781 L 343.699219 349.21875 L 343.753906 349.261719 L 343.808594 349.308594 L 343.910156 349.410156 L 343.957031 349.464844 L 344.042969 349.574219 L 344.085938 349.632812 L 344.191406 349.820312 L 344.222656 349.886719 L 344.277344 350.027344 L 344.300781 350.097656 L 344.339844 350.246094 L 344.355469 350.324219 L 344.367188 350.398438 L 344.375 350.476562 L 344.382812 350.558594 L 344.386719 350.640625 Z M 344.386719 350.722656 "/>
<path style=" stroke:none;fill-rule:evenodd;fill:rgb(30.196078%,30.196078%,30.196078%);fill-opacity:1;" d="M 415.109375 352.695312 L 415.109375 352.148438 L 415.203125 351.953125 L 415.25 351.859375 L 415.300781 351.765625 L 415.351562 351.675781 L 415.40625 351.589844 L 415.464844 351.503906 L 415.582031 351.339844 L 415.644531 351.261719 L 415.707031 351.1875 L 415.773438 351.113281 L 415.835938 351.039062 L 415.902344 350.964844 L 415.96875 350.894531 L 416.101562 350.761719 L 416.171875 350.695312 L 416.238281 350.628906 L 416.378906 350.503906 L 416.449219 350.445312 L 416.515625 350.382812 L 416.65625 350.265625 L 416.722656 350.207031 L 416.792969 350.152344 L 416.859375 350.097656 L 416.929688 350.042969 L 416.996094 349.988281 L 417.066406 349.933594 L 417.132812 349.878906 L 417.195312 349.828125 L 417.261719 349.773438 L 417.324219 349.722656 L 417.382812 349.667969 L 417.445312 349.613281 L 417.503906 349.5625 L 417.558594 349.507812 L 417.617188 349.453125 L 417.722656 349.347656 L 417.769531 349.292969 L 417.820312 349.238281 L 417.863281 349.183594 L 417.90625 349.125 L 417.949219 349.070312 L 417.988281 349.011719 L 418.058594 348.894531 L 418.121094 348.777344 L 418.144531 348.714844 L 418.167969 348.648438 L 418.1875 348.585938 L 418.203125 348.515625 L 418.214844 348.449219 L 418.222656 348.378906 L 418.226562 348.308594 L 418.230469 348.234375 L 418.230469 348.183594 L 418.226562 348.132812 L 418.21875 348.039062 L 418.210938 347.992188 L 418.203125 347.949219 L 418.179688 347.863281 L 418.167969 347.824219 L 418.152344 347.78125 L 418.136719 347.746094 L 418.121094 347.707031 L 418.101562 347.671875 L 418.078125 347.636719 L 418.058594 347.601562 L 418.011719 347.539062 L 417.984375 347.507812 L 417.929688 347.453125 L 417.898438 347.425781 L 417.804688 347.355469 L 417.734375 347.316406 L 417.695312 347.300781 L 417.65625 347.28125 L 417.617188 347.269531 L 417.578125 347.253906 L 417.535156 347.242188 L 417.496094 347.230469 L 417.453125 347.21875 L 417.40625 347.210938 L 417.363281 347.203125 L 417.316406 347.195312 L 417.222656 347.1875 L 417.035156 347.1875 L 416.988281 347.191406 L 416.945312 347.195312 L 416.898438 347.203125 L 416.769531 347.226562 L 416.730469 347.238281 L 416.6875 347.25 L 416.648438 347.265625 L 416.609375 347.277344 L 416.570312 347.292969 L 416.53125 347.3125 L 416.425781 347.371094 L 416.390625 347.394531 L 416.359375 347.417969 L 416.328125 347.445312 L 416.296875 347.46875 L 416.265625 347.496094 L 416.238281 347.527344 L 416.207031 347.558594 L 416.183594 347.589844 L 416.15625 347.621094 L 416.085938 347.726562 L 416.027344 347.84375 L 416.011719 347.886719 L 415.996094 347.925781 L 415.984375 347.972656 L 415.972656 348.015625 L 415.949219 348.109375 L 415.941406 348.160156 L 415.9375 348.207031 L 415.144531 348.136719 L 415.152344 348.070312 L 415.164062 348.007812 L 415.175781 347.941406 L 415.191406 347.878906 L 415.210938 347.820312 L 415.25 347.695312 L 415.296875 347.578125 L 415.324219 347.519531 L 415.386719 347.410156 L 415.457031 347.300781 L 415.496094 347.25 L 415.535156 347.203125 L 415.578125 347.152344 L 415.621094 347.105469 L 415.714844 347.019531 L 415.765625 346.976562 L 415.820312 346.933594 L 415.875 346.894531 L 416.050781 346.789062 L 416.113281 346.757812 L 416.179688 346.726562 L 416.246094 346.699219 L 416.3125 346.675781 L 416.460938 346.628906 L 416.535156 346.609375 L 416.613281 346.59375 L 416.691406 346.582031 L 416.773438 346.570312 L 416.945312 346.554688 L 417.035156 346.550781 L 417.214844 346.550781 L 417.386719 346.558594 L 417.472656 346.566406 L 417.550781 346.578125 L 417.632812 346.589844 L 417.710938 346.601562 L 417.785156 346.617188 L 417.859375 346.636719 L 417.929688 346.65625 L 418 346.679688 L 418.066406 346.703125 L 418.128906 346.730469 L 418.195312 346.757812 L 418.253906 346.789062 L 418.3125 346.824219 L 418.421875 346.894531 L 418.472656 346.933594 L 418.523438 346.976562 L 418.617188 347.0625 L 418.660156 347.109375 L 418.738281 347.210938 L 418.773438 347.261719 L 418.808594 347.320312 L 418.839844 347.375 L 418.871094 347.433594 L 418.894531 347.496094 L 418.921875 347.558594 L 418.941406 347.621094 L 418.960938 347.6875 L 418.980469 347.757812 L 418.992188 347.828125 L 419.003906 347.902344 L 419.011719 347.972656 L 419.019531 348.050781 L 419.023438 348.128906 L 419.023438 348.269531 L 419.019531 348.328125 L 419.015625 348.390625 L 419.007812 348.449219 L 418.996094 348.507812 L 418.984375 348.5625 L 418.96875 348.621094 L 418.953125 348.675781 L 418.933594 348.734375 L 418.914062 348.789062 L 418.84375 348.953125 L 418.816406 349.003906 L 418.785156 349.058594 L 418.757812 349.109375 L 418.726562 349.160156 L 418.585938 349.363281 L 418.546875 349.410156 L 418.507812 349.460938 L 418.46875 349.507812 L 418.425781 349.558594 L 418.339844 349.652344 L 418.152344 349.839844 L 418.101562 349.886719 L 418.054688 349.933594 L 418.003906 349.976562 L 417.902344 350.070312 L 417.851562 350.113281 L 417.800781 350.160156 L 417.75 350.203125 L 417.699219 350.25 L 417.644531 350.292969 L 417.59375 350.335938 L 417.539062 350.382812 L 417.488281 350.425781 L 417.433594 350.46875 L 417.382812 350.511719 L 417.328125 350.554688 L 417.273438 350.601562 L 417.222656 350.644531 L 417.167969 350.6875 L 417.117188 350.730469 L 417.0625 350.773438 L 416.859375 350.945312 L 416.8125 350.992188 L 416.761719 351.035156 L 416.621094 351.164062 L 416.488281 351.296875 L 416.445312 351.34375 L 416.40625 351.386719 L 416.363281 351.433594 L 416.324219 351.476562 L 416.285156 351.523438 L 416.25 351.570312 L 416.214844 351.613281 L 416.179688 351.660156 L 416.144531 351.703125 L 416.113281 351.75 L 416.03125 351.890625 L 416.007812 351.941406 L 415.960938 352.035156 L 419.121094 352.035156 L 419.121094 352.695312 Z M 415.109375 352.695312 "/>
<path style=" stroke:none;fill-rule:evenodd;fill:rgb(30.196078%,30.196078%,30.196078%);fill-opacity:1;" d="M 420.367188 352.695312 L 420.367188 351.753906 L 421.203125 351.753906 L 421.203125 352.695312 Z M 420.367188 352.695312 "/>
<path style=" stroke:none;fill-rule:evenodd;fill:rgb(30.196078%,30.196078%,30.196078%);fill-opacity:1;" d="M 426.558594 349.664062 L 426.554688 349.835938 L 426.550781 350.003906 L 426.542969 350.164062 L 426.53125 350.320312 L 426.515625 350.46875 L 426.496094 350.613281 L 426.476562 350.75 L 426.449219 350.882812 L 426.421875 351.011719 L 426.390625 351.132812 L 426.355469 351.25 L 426.320312 351.363281 L 426.28125 351.46875 L 426.238281 351.574219 L 426.195312 351.671875 L 426.148438 351.765625 L 426.101562 351.855469 L 426.050781 351.941406 L 425.996094 352.019531 L 425.9375 352.097656 L 425.882812 352.167969 L 425.820312 352.234375 L 425.757812 352.296875 L 425.695312 352.355469 L 425.628906 352.410156 L 425.5625 352.460938 L 425.492188 352.507812 L 425.417969 352.550781 L 425.269531 352.621094 L 425.191406 352.652344 L 425.113281 352.679688 L 425.03125 352.703125 L 424.867188 352.742188 L 424.703125 352.765625 L 424.617188 352.773438 L 424.445312 352.78125 L 424.355469 352.777344 L 424.269531 352.773438 L 424.183594 352.765625 L 424.097656 352.753906 L 424.015625 352.742188 L 423.851562 352.703125 L 423.773438 352.679688 L 423.695312 352.652344 L 423.617188 352.621094 L 423.46875 352.550781 L 423.398438 352.507812 L 423.328125 352.460938 L 423.261719 352.410156 L 423.195312 352.355469 L 423.132812 352.296875 L 423.070312 352.234375 L 423.011719 352.167969 L 422.953125 352.097656 L 422.898438 352.023438 L 422.84375 351.941406 L 422.796875 351.859375 L 422.746094 351.769531 L 422.703125 351.675781 L 422.660156 351.578125 L 422.617188 351.472656 L 422.578125 351.367188 L 422.542969 351.253906 L 422.511719 351.140625 L 422.480469 351.015625 L 422.453125 350.890625 L 422.40625 350.617188 L 422.390625 350.472656 L 422.375 350.320312 L 422.363281 350.164062 L 422.355469 350.003906 L 422.351562 349.835938 L 422.351562 349.484375 L 422.355469 349.3125 L 422.363281 349.144531 L 422.375 348.984375 L 422.390625 348.828125 L 422.40625 348.679688 L 422.429688 348.539062 L 422.453125 348.402344 L 422.480469 348.273438 L 422.511719 348.152344 L 422.542969 348.035156 L 422.578125 347.921875 L 422.617188 347.8125 L 422.660156 347.710938 L 422.703125 347.613281 L 422.75 347.519531 L 422.796875 347.429688 L 422.847656 347.347656 L 422.902344 347.269531 L 422.957031 347.195312 L 423.015625 347.125 L 423.074219 347.058594 L 423.136719 347 L 423.199219 346.945312 L 423.265625 346.890625 L 423.335938 346.84375 L 423.40625 346.800781 L 423.476562 346.761719 L 423.550781 346.726562 L 423.628906 346.695312 L 423.707031 346.667969 L 423.785156 346.644531 L 423.867188 346.621094 L 423.949219 346.601562 L 424.03125 346.585938 L 424.203125 346.5625 L 424.289062 346.554688 L 424.378906 346.550781 L 424.554688 346.550781 L 424.640625 346.554688 L 424.726562 346.5625 L 424.890625 346.585938 L 424.96875 346.601562 L 425.050781 346.621094 L 425.207031 346.667969 L 425.28125 346.695312 L 425.355469 346.726562 L 425.429688 346.761719 L 425.5 346.800781 L 425.570312 346.84375 L 425.640625 346.890625 L 425.703125 346.945312 L 425.769531 347 L 425.828125 347.058594 L 425.890625 347.125 L 425.949219 347.195312 L 426.003906 347.269531 L 426.054688 347.347656 L 426.105469 347.429688 L 426.15625 347.519531 L 426.199219 347.613281 L 426.246094 347.710938 L 426.285156 347.8125 L 426.324219 347.921875 L 426.359375 348.035156 L 426.394531 348.152344 L 426.425781 348.273438 L 426.453125 348.402344 L 426.476562 348.539062 L 426.5 348.679688 L 426.515625 348.828125 L 426.53125 348.984375 L 426.542969 349.144531 L 426.550781 349.3125 L 426.554688 349.484375 Z M 425.769531 349.664062 L 425.769531 349.386719 L 425.761719 349.253906 L 425.757812 349.125 L 425.75 349.003906 L 425.742188 348.886719 L 425.730469 348.773438 L 425.714844 348.667969 L 425.703125 348.5625 L 425.683594 348.464844 L 425.667969 348.371094 L 425.648438 348.28125 L 425.625 348.195312 L 425.601562 348.113281 L 425.578125 348.035156 L 425.554688 347.960938 L 425.523438 347.890625 L 425.496094 347.824219 L 425.464844 347.761719 L 425.433594 347.703125 L 425.398438 347.644531 L 425.363281 347.59375 L 425.324219 347.542969 L 425.246094 347.457031 L 425.203125 347.417969 L 425.160156 347.382812 L 425.113281 347.351562 L 425.019531 347.296875 L 424.96875 347.273438 L 424.921875 347.253906 L 424.867188 347.234375 L 424.816406 347.21875 L 424.707031 347.195312 L 424.648438 347.1875 L 424.53125 347.179688 L 424.46875 347.175781 L 424.40625 347.179688 L 424.339844 347.183594 L 424.28125 347.1875 L 424.21875 347.195312 L 424.160156 347.207031 L 424.105469 347.21875 L 424.050781 347.234375 L 423.996094 347.253906 L 423.945312 347.273438 L 423.894531 347.296875 L 423.84375 347.324219 L 423.796875 347.351562 L 423.75 347.386719 L 423.707031 347.421875 L 423.664062 347.460938 L 423.621094 347.503906 L 423.582031 347.546875 L 423.542969 347.597656 L 423.507812 347.648438 L 423.472656 347.707031 L 423.441406 347.765625 L 423.410156 347.828125 L 423.378906 347.894531 L 423.351562 347.964844 L 423.324219 348.039062 L 423.300781 348.117188 L 423.277344 348.199219 L 423.257812 348.285156 L 423.238281 348.375 L 423.21875 348.46875 L 423.203125 348.566406 L 423.1875 348.671875 L 423.175781 348.777344 L 423.164062 348.890625 L 423.15625 349.007812 L 423.148438 349.128906 L 423.140625 349.257812 L 423.136719 349.386719 L 423.132812 349.523438 L 423.132812 349.800781 L 423.136719 349.933594 L 423.140625 350.0625 L 423.148438 350.1875 L 423.164062 350.421875 L 423.175781 350.53125 L 423.1875 350.636719 L 423.203125 350.742188 L 423.21875 350.839844 L 423.238281 350.933594 L 423.257812 351.023438 L 423.28125 351.109375 L 423.304688 351.191406 L 423.328125 351.269531 L 423.355469 351.34375 L 423.382812 351.414062 L 423.414062 351.484375 L 423.445312 351.546875 L 423.476562 351.605469 L 423.511719 351.664062 L 423.546875 351.714844 L 423.585938 351.765625 L 423.625 351.8125 L 423.667969 351.855469 L 423.753906 351.933594 L 423.796875 351.964844 L 423.84375 351.996094 L 423.894531 352.023438 L 423.941406 352.046875 L 423.996094 352.070312 L 424.046875 352.085938 L 424.101562 352.105469 L 424.210938 352.128906 L 424.328125 352.144531 L 424.390625 352.148438 L 424.511719 352.148438 L 424.570312 352.144531 L 424.6875 352.128906 L 424.796875 352.105469 L 424.851562 352.085938 L 424.902344 352.070312 L 425.003906 352.023438 L 425.050781 351.996094 L 425.097656 351.964844 L 425.140625 351.933594 L 425.1875 351.894531 L 425.269531 351.8125 L 425.308594 351.765625 L 425.378906 351.664062 L 425.449219 351.546875 L 425.480469 351.484375 L 425.511719 351.414062 L 425.539062 351.34375 L 425.566406 351.269531 L 425.589844 351.191406 L 425.613281 351.109375 L 425.636719 351.023438 L 425.65625 350.933594 L 425.675781 350.839844 L 425.695312 350.742188 L 425.726562 350.53125 L 425.738281 350.421875 L 425.746094 350.304688 L 425.757812 350.1875 L 425.761719 350.0625 L 425.765625 349.933594 L 425.769531 349.800781 Z M 425.769531 349.664062 "/>
</g>
</svg>
