<?xml version="1.0" encoding="UTF-8"?>
<svg xmlns="http://www.w3.org/2000/svg" xmlns:xlink="http://www.w3.org/1999/xlink" width="504pt" height="360pt" viewBox="0 0 504 360" version="1.1">
<g id="surface125">
<path style="fill-rule:evenodd;fill:rgb(80.784314%,6.666667%,14.901961%);fill-opacity:1;stroke-width:1.422638;stroke-linecap:butt;stroke-linejoin:round;stroke:rgb(80.784314%,6.666667%,14.901961%);stroke-opacity:1;stroke-miterlimit:10;" d="M 22.910156 332.726562 L 481.089844 332.726562 L 481.089844 27.273438 L 22.910156 27.273438 Z M 22.910156 332.726562 "/>
<path style="fill-rule:evenodd;fill:rgb(98.823529%,81.960784%,8.627451%);fill-opacity:1;stroke-width:1.422638;stroke-linecap:butt;stroke-linejoin:round;stroke:rgb(98.823529%,81.960784%,8.627451%);stroke-opacity:1;stroke-miterlimit:10;" d="M 99.273438 57.816406 L 88.984375 89.476562 L 55.695312 89.476562 L 82.628906 109.042969 L 72.339844 140.703125 L 99.273438 121.136719 L 126.203125 140.703125 L 115.917969 109.042969 L 142.847656 89.476562 L 109.558594 89.476562 Z M 99.273438 57.816406 "/>
<path style="fill-rule:evenodd;fill:rgb(98.823529%,81.960784%,8.627451%);fill-opacity:1;stroke-width:1.422638;stroke-linecap:butt;stroke-linejoin:round;stroke:rgb(98.823529%,81.960784%,8.627451%);stroke-opacity:1;stroke-miterlimit:10;" d="M 163.710938 155.1875 L 169.808594 164.457031 L 162.878906 173.121094 L 173.578125 170.1875 L 179.675781 179.457031 L 180.191406 168.371094 L 190.894531 165.4375 L 180.511719 161.519531 L 181.023438 150.4375 L 174.09375 159.101562 Z M 163.710938 155.1875 "/>
<path style="fill-rule:evenodd;fill:rgb(98.823529%,81.960784%,8.627451%);fill-opacity:1;stroke-width:1.422638;stroke-linecap:butt;stroke-linejoin:round;stroke:rgb(98.823529%,81.960784%,8.627451%);stroke-opacity:1;stroke-miterlimit:10;" d="M 191.496094 129.984375 L 200.703125 136.183594 L 197.652344 146.851562 L 206.390625 140.011719 L 215.597656 146.207031 L 211.792969 135.785156 L 220.527344 128.945312 L 209.4375 129.34375 L 205.632812 118.917969 L 202.585938 129.589844 Z M 191.496094 129.984375 "/>
<path style="fill-rule:evenodd;fill:rgb(98.823529%,81.960784%,8.627451%);fill-opacity:1;stroke-width:1.422638;stroke-linecap:butt;stroke-linejoin:round;stroke:rgb(98.823529%,81.960784%,8.627451%);stroke-opacity:1;stroke-miterlimit:10;" d="M 191.0625 90.523438 L 201.996094 92.425781 L 203.5625 103.410156 L 208.75 93.601562 L 219.683594 95.503906 L 211.957031 87.539062 L 217.144531 77.730469 L 207.183594 82.617188 L 199.457031 74.652344 L 201.023438 85.636719 Z M 191.0625 90.523438 "/>
<path style="fill-rule:evenodd;fill:rgb(98.823529%,81.960784%,8.627451%);fill-opacity:1;stroke-width:1.422638;stroke-linecap:butt;stroke-linejoin:round;stroke:rgb(98.823529%,81.960784%,8.627451%);stroke-opacity:1;stroke-miterlimit:10;" d="M 162.539062 65.675781 L 173.355469 63.1875 L 179.0625 72.703125 L 180.035156 61.648438 L 190.851562 59.160156 L 180.640625 54.816406 L 181.613281 43.761719 L 174.328125 52.132812 L 164.117188 47.792969 L 169.824219 57.304688 Z M 162.539062 65.675781 "/>
</g>
</svg>
