<?xml version="1.0" encoding="UTF-8"?>
<svg xmlns="http://www.w3.org/2000/svg" xmlns:xlink="http://www.w3.org/1999/xlink" width="504pt" height="360pt" viewBox="0 0 504 360" version="1.1">
<defs>
<clipPath id="clip1">
  <path d="M 74.796875 0 L 430 0 L 430 360 L 74.796875 360 Z M 74.796875 0 "/>
</clipPath>
<clipPath id="clip2">
  <path d="M 93.03125 5.480469 L 424 5.480469 L 424 342 L 93.03125 342 Z M 93.03125 5.480469 "/>
</clipPath>
<clipPath id="clip3">
  <path d="M 106 5.480469 L 108 5.480469 L 108 342.710938 L 106 342.710938 Z M 106 5.480469 "/>
</clipPath>
<clipPath id="clip4">
  <path d="M 160 5.480469 L 162 5.480469 L 162 342.710938 L 160 342.710938 Z M 160 5.480469 "/>
</clipPath>
<clipPath id="clip5">
  <path d="M 214 5.480469 L 216 5.480469 L 216 342.710938 L 214 342.710938 Z M 214 5.480469 "/>
</clipPath>
<clipPath id="clip6">
  <path d="M 268 5.480469 L 270 5.480469 L 270 342.710938 L 268 342.710938 Z M 268 5.480469 "/>
</clipPath>
<clipPath id="clip7">
  <path d="M 321 5.480469 L 324 5.480469 L 324 342.710938 L 321 342.710938 Z M 321 5.480469 "/>
</clipPath>
<clipPath id="clip8">
  <path d="M 375 5.480469 L 378 5.480469 L 378 342.710938 L 375 342.710938 Z M 375 5.480469 "/>
</clipPath>
<clipPath id="clip9">
  <path d="M 93.03125 339 L 424.722656 339 L 424.722656 342 L 93.03125 342 Z M 93.03125 339 "/>
</clipPath>
<clipPath id="clip10">
  <path d="M 93.03125 285 L 424.722656 285 L 424.722656 288 L 93.03125 288 Z M 93.03125 285 "/>
</clipPath>
<clipPath id="clip11">
  <path d="M 93.03125 231 L 424.722656 231 L 424.722656 234 L 93.03125 234 Z M 93.03125 231 "/>
</clipPath>
<clipPath id="clip12">
  <path d="M 93.03125 178 L 424.722656 178 L 424.722656 180 L 93.03125 180 Z M 93.03125 178 "/>
</clipPath>
<clipPath id="clip13">
  <path d="M 93.03125 124 L 424.722656 124 L 424.722656 126 L 93.03125 126 Z M 93.03125 124 "/>
</clipPath>
<clipPath id="clip14">
  <path d="M 93.03125 70 L 424.722656 70 L 424.722656 72 L 93.03125 72 Z M 93.03125 70 "/>
</clipPath>
<clipPath id="clip15">
  <path d="M 93.03125 16 L 424.722656 16 L 424.722656 18 L 93.03125 18 Z M 93.03125 16 "/>
</clipPath>
</defs>
<g id="surface115">
<g clip-path="url(#clip1)" clip-rule="nonzero">
<path style="fill-rule:nonzero;fill:rgb(100%,100%,100%);fill-opacity:1;stroke-width:1.422638;stroke-linecap:round;stroke-linejoin:round;stroke:rgb(100%,100%,100%);stroke-opacity:1;stroke-miterlimit:10;" d="M 74.796875 0 L 429.207031 0 L 429.207031 360 L 74.796875 360 Z M 74.796875 0 "/>
</g>
<g clip-path="url(#clip2)" clip-rule="nonzero">
<path style=" stroke:none;fill-rule:nonzero;fill:rgb(92.156863%,92.156863%,92.156863%);fill-opacity:1;" d="M 93.03125 5.480469 L 423.722656 5.480469 L 423.722656 341.710938 L 93.03125 341.710938 Z M 93.03125 5.480469 "/>
</g>
<g clip-path="url(#clip3)" clip-rule="nonzero">
<path style="fill:none;stroke-width:1.422638;stroke-linecap:round;stroke-linejoin:round;stroke:rgb(100%,100%,100%);stroke-opacity:1;stroke-miterlimit:10;" d="M 107.179688 341.707031 L 107.179688 5.480469 "/>
</g>
<g clip-path="url(#clip4)" clip-rule="nonzero">
<path style="fill:none;stroke-width:1.422638;stroke-linecap:round;stroke-linejoin:round;stroke:rgb(100%,100%,100%);stroke-opacity:1;stroke-miterlimit:10;" d="M 161.039062 341.707031 L 161.039062 5.480469 "/>
</g>
<g clip-path="url(#clip5)" clip-rule="nonzero">
<path style="fill:none;stroke-width:1.422638;stroke-linecap:round;stroke-linejoin:round;stroke:rgb(100%,100%,100%);stroke-opacity:1;stroke-miterlimit:10;" d="M 214.898438 341.707031 L 214.898438 5.480469 "/>
</g>
<g clip-path="url(#clip6)" clip-rule="nonzero">
<path style="fill:none;stroke-width:1.422638;stroke-linecap:round;stroke-linejoin:round;stroke:rgb(100%,100%,100%);stroke-opacity:1;stroke-miterlimit:10;" d="M 268.757812 341.707031 L 268.757812 5.480469 "/>
</g>
<g clip-path="url(#clip7)" clip-rule="nonzero">
<path style="fill:none;stroke-width:1.422638;stroke-linecap:round;stroke-linejoin:round;stroke:rgb(100%,100%,100%);stroke-opacity:1;stroke-miterlimit:10;" d="M 322.621094 341.707031 L 322.621094 5.480469 "/>
</g>
<g clip-path="url(#clip8)" clip-rule="nonzero">
<path style="fill:none;stroke-width:1.422638;stroke-linecap:round;stroke-linejoin:round;stroke:rgb(100%,100%,100%);stroke-opacity:1;stroke-miterlimit:10;" d="M 376.480469 341.707031 L 376.480469 5.480469 "/>
</g>
<g clip-path="url(#clip9)" clip-rule="nonzero">
<path style="fill:none;stroke-width:1.422638;stroke-linecap:round;stroke-linejoin:round;stroke:rgb(100%,100%,100%);stroke-opacity:1;stroke-miterlimit:10;" d="M 93.03125 340.394531 L 423.726562 340.394531 "/>
</g>
<g clip-path="url(#clip10)" clip-rule="nonzero">
<path style="fill:none;stroke-width:1.422638;stroke-linecap:round;stroke-linejoin:round;stroke:rgb(100%,100%,100%);stroke-opacity:1;stroke-miterlimit:10;" d="M 93.03125 286.535156 L 423.726562 286.535156 "/>
</g>
<g clip-path="url(#clip11)" clip-rule="nonzero">
<path style="fill:none;stroke-width:1.422638;stroke-linecap:round;stroke-linejoin:round;stroke:rgb(100%,100%,100%);stroke-opacity:1;stroke-miterlimit:10;" d="M 93.03125 232.671875 L 423.726562 232.671875 "/>
</g>
<g clip-path="url(#clip12)" clip-rule="nonzero">
<path style="fill:none;stroke-width:1.422638;stroke-linecap:round;stroke-linejoin:round;stroke:rgb(100%,100%,100%);stroke-opacity:1;stroke-miterlimit:10;" d="M 93.03125 178.8125 L 423.726562 178.8125 "/>
</g>
<g clip-path="url(#clip13)" clip-rule="nonzero">
<path style="fill:none;stroke-width:1.422638;stroke-linecap:round;stroke-linejoin:round;stroke:rgb(100%,100%,100%);stroke-opacity:1;stroke-miterlimit:10;" d="M 93.03125 124.953125 L 423.726562 124.953125 "/>
</g>
<g clip-path="url(#clip14)" clip-rule="nonzero">
<path style="fill:none;stroke-width:1.422638;stroke-linecap:round;stroke-linejoin:round;stroke:rgb(100%,100%,100%);stroke-opacity:1;stroke-miterlimit:10;" d="M 93.03125 71.09375 L 423.726562 71.09375 "/>
</g>
<g clip-path="url(#clip15)" clip-rule="nonzero">
<path style="fill:none;stroke-width:1.422638;stroke-linecap:round;stroke-linejoin:round;stroke:rgb(100%,100%,100%);stroke-opacity:1;stroke-miterlimit:10;" d="M 93.03125 17.230469 L 423.726562 17.230469 "/>
</g>
<path style="fill-rule:evenodd;fill:rgb(100%,100%,0%);fill-opacity:1;stroke-width:1.422638;stroke-linecap:butt;stroke-linejoin:round;stroke:rgb(34.901961%,34.901961%,34.901961%);stroke-opacity:1;stroke-miterlimit:10;" d="M 408.691406 98.023438 L 293.863281 122.429688 L 235.164062 20.761719 L 222.894531 137.515625 L 108.0625 161.921875 L 215.308594 209.671875 L 203.039062 326.425781 L 281.589844 239.183594 L 388.839844 286.933594 L 330.140625 185.265625 Z M 408.691406 98.023438 "/>
<path style=" stroke:none;fill-rule:evenodd;fill:rgb(30.196078%,30.196078%,30.196078%);fill-opacity:1;" d="M 80.667969 341.429688 L 80.667969 340.742188 L 82.816406 340.742188 L 82.816406 341.429688 Z M 80.667969 341.429688 "/>
<path style=" stroke:none;fill-rule:evenodd;fill:rgb(30.196078%,30.196078%,30.196078%);fill-opacity:1;" d="M 83.875 343.421875 L 83.875 342.765625 L 85.417969 342.765625 L 85.417969 338.105469 L 84.050781 339.082031 L 84.050781 338.351562 L 85.484375 337.367188 L 86.195312 337.367188 L 86.195312 342.765625 L 87.671875 342.765625 L 87.671875 343.421875 Z M 83.875 343.421875 "/>
<path style=" stroke:none;fill-rule:evenodd;fill:rgb(30.196078%,30.196078%,30.196078%);fill-opacity:1;" d="M 87.757812 286.53125 L 87.753906 286.703125 L 87.75 286.871094 L 87.742188 287.03125 L 87.730469 287.1875 L 87.714844 287.335938 L 87.695312 287.480469 L 87.675781 287.617188 L 87.648438 287.75 L 87.621094 287.878906 L 87.589844 288 L 87.554688 288.117188 L 87.519531 288.230469 L 87.480469 288.335938 L 87.4375 288.441406 L 87.394531 288.539062 L 87.347656 288.632812 L 87.300781 288.722656 L 87.246094 288.808594 L 87.195312 288.886719 L 87.136719 288.964844 L 87.078125 289.035156 L 87.019531 289.101562 L 86.957031 289.164062 L 86.894531 289.222656 L 86.828125 289.277344 L 86.761719 289.328125 L 86.691406 289.375 L 86.617188 289.417969 L 86.46875 289.488281 L 86.390625 289.519531 L 86.308594 289.546875 L 86.230469 289.570312 L 86.066406 289.609375 L 85.902344 289.632812 L 85.816406 289.640625 L 85.730469 289.644531 L 85.640625 289.648438 L 85.46875 289.640625 L 85.382812 289.632812 L 85.296875 289.621094 L 85.214844 289.609375 L 85.050781 289.570312 L 84.972656 289.546875 L 84.894531 289.519531 L 84.816406 289.488281 L 84.667969 289.417969 L 84.597656 289.375 L 84.527344 289.328125 L 84.460938 289.277344 L 84.394531 289.222656 L 84.332031 289.164062 L 84.269531 289.101562 L 84.207031 289.035156 L 84.152344 288.964844 L 84.097656 288.890625 L 84.042969 288.808594 L 83.992188 288.722656 L 83.945312 288.636719 L 83.902344 288.542969 L 83.859375 288.445312 L 83.816406 288.339844 L 83.777344 288.234375 L 83.707031 288.007812 L 83.652344 287.757812 L 83.605469 287.484375 L 83.589844 287.339844 L 83.574219 287.1875 L 83.5625 287.03125 L 83.554688 286.871094 L 83.550781 286.703125 L 83.550781 286.351562 L 83.554688 286.179688 L 83.5625 286.011719 L 83.574219 285.851562 L 83.589844 285.695312 L 83.605469 285.546875 L 83.628906 285.40625 L 83.652344 285.269531 L 83.679688 285.140625 L 83.707031 285.019531 L 83.742188 284.902344 L 83.777344 284.789062 L 83.816406 284.679688 L 83.859375 284.578125 L 83.902344 284.480469 L 83.949219 284.386719 L 83.996094 284.296875 L 84.046875 284.214844 L 84.101562 284.136719 L 84.15625 284.0625 L 84.214844 283.992188 L 84.273438 283.925781 L 84.335938 283.867188 L 84.398438 283.8125 L 84.464844 283.757812 L 84.53125 283.710938 L 84.601562 283.667969 L 84.675781 283.628906 L 84.75 283.59375 L 84.824219 283.5625 L 84.902344 283.535156 L 84.984375 283.511719 L 85.0625 283.488281 L 85.144531 283.46875 L 85.230469 283.453125 L 85.402344 283.429688 L 85.488281 283.421875 L 85.578125 283.417969 L 85.753906 283.417969 L 85.839844 283.421875 L 85.921875 283.429688 L 86.007812 283.441406 L 86.089844 283.453125 L 86.167969 283.46875 L 86.25 283.488281 L 86.328125 283.511719 L 86.402344 283.535156 L 86.480469 283.5625 L 86.554688 283.59375 L 86.628906 283.628906 L 86.699219 283.667969 L 86.769531 283.710938 L 86.835938 283.757812 L 86.96875 283.867188 L 87.027344 283.925781 L 87.089844 283.992188 L 87.144531 284.0625 L 87.203125 284.136719 L 87.253906 284.214844 L 87.304688 284.296875 L 87.355469 284.386719 L 87.398438 284.480469 L 87.441406 284.578125 L 87.484375 284.679688 L 87.523438 284.789062 L 87.558594 284.902344 L 87.59375 285.019531 L 87.625 285.140625 L 87.652344 285.269531 L 87.675781 285.40625 L 87.699219 285.546875 L 87.714844 285.695312 L 87.730469 285.851562 L 87.742188 286.011719 L 87.75 286.179688 L 87.753906 286.351562 Z M 86.96875 286.53125 L 86.96875 286.390625 L 86.964844 286.253906 L 86.960938 286.121094 L 86.957031 285.992188 L 86.949219 285.871094 L 86.9375 285.753906 L 86.925781 285.640625 L 86.914062 285.535156 L 86.898438 285.429688 L 86.882812 285.332031 L 86.867188 285.238281 L 86.847656 285.148438 L 86.824219 285.0625 L 86.800781 284.980469 L 86.777344 284.902344 L 86.75 284.828125 L 86.722656 284.757812 L 86.695312 284.691406 L 86.664062 284.628906 L 86.628906 284.570312 L 86.597656 284.511719 L 86.558594 284.460938 L 86.523438 284.410156 L 86.445312 284.324219 L 86.402344 284.285156 L 86.359375 284.25 L 86.3125 284.21875 L 86.21875 284.164062 L 86.167969 284.140625 L 86.066406 284.101562 L 86.015625 284.085938 L 85.90625 284.0625 L 85.847656 284.054688 L 85.730469 284.046875 L 85.667969 284.042969 L 85.601562 284.046875 L 85.539062 284.050781 L 85.480469 284.054688 L 85.417969 284.0625 L 85.359375 284.074219 L 85.304688 284.085938 L 85.25 284.101562 L 85.195312 284.121094 L 85.144531 284.140625 L 85.09375 284.164062 L 85.042969 284.191406 L 84.996094 284.21875 L 84.949219 284.25 L 84.863281 284.328125 L 84.820312 284.371094 L 84.78125 284.414062 L 84.742188 284.464844 L 84.707031 284.515625 L 84.636719 284.632812 L 84.605469 284.695312 L 84.578125 284.761719 L 84.550781 284.832031 L 84.523438 284.90625 L 84.5 284.984375 L 84.476562 285.066406 L 84.457031 285.152344 L 84.433594 285.242188 L 84.417969 285.335938 L 84.402344 285.433594 L 84.386719 285.539062 L 84.375 285.644531 L 84.363281 285.757812 L 84.351562 285.875 L 84.34375 285.996094 L 84.335938 286.253906 L 84.332031 286.390625 L 84.332031 286.667969 L 84.335938 286.800781 L 84.339844 286.929688 L 84.34375 287.054688 L 84.351562 287.171875 L 84.363281 287.289062 L 84.375 287.398438 L 84.386719 287.503906 L 84.402344 287.609375 L 84.417969 287.707031 L 84.457031 287.886719 L 84.480469 287.976562 L 84.503906 288.058594 L 84.527344 288.136719 L 84.554688 288.210938 L 84.582031 288.28125 L 84.613281 288.351562 L 84.640625 288.414062 L 84.710938 288.53125 L 84.746094 288.582031 L 84.785156 288.632812 L 84.824219 288.679688 L 84.90625 288.761719 L 84.953125 288.800781 L 84.996094 288.832031 L 85.042969 288.863281 L 85.09375 288.890625 L 85.140625 288.914062 L 85.191406 288.9375 L 85.246094 288.953125 L 85.300781 288.972656 L 85.410156 288.996094 L 85.527344 289.011719 L 85.589844 289.015625 L 85.710938 289.015625 L 85.769531 289.011719 L 85.886719 288.996094 L 85.996094 288.972656 L 86.046875 288.953125 L 86.101562 288.9375 L 86.152344 288.914062 L 86.199219 288.890625 L 86.25 288.863281 L 86.296875 288.832031 L 86.339844 288.800781 L 86.425781 288.722656 L 86.464844 288.679688 L 86.503906 288.632812 L 86.542969 288.582031 L 86.578125 288.53125 L 86.648438 288.414062 L 86.679688 288.351562 L 86.707031 288.28125 L 86.738281 288.210938 L 86.765625 288.136719 L 86.789062 288.058594 L 86.8125 287.976562 L 86.835938 287.886719 L 86.875 287.707031 L 86.894531 287.609375 L 86.910156 287.503906 L 86.921875 287.398438 L 86.9375 287.289062 L 86.953125 287.054688 L 86.960938 286.929688 L 86.964844 286.800781 L 86.96875 286.667969 Z M 86.96875 286.53125 "/>
<path style=" stroke:none;fill-rule:evenodd;fill:rgb(30.196078%,30.196078%,30.196078%);fill-opacity:1;" d="M 83.875 235.699219 L 83.875 235.042969 L 85.417969 235.042969 L 85.417969 230.386719 L 84.050781 231.359375 L 84.050781 230.628906 L 85.484375 229.648438 L 86.195312 229.648438 L 86.195312 235.042969 L 87.671875 235.042969 L 87.671875 235.699219 Z M 83.875 235.699219 "/>
<path style=" stroke:none;fill-rule:evenodd;fill:rgb(30.196078%,30.196078%,30.196078%);fill-opacity:1;" d="M 83.648438 181.839844 L 83.648438 181.292969 L 83.691406 181.195312 L 83.738281 181.097656 L 83.839844 180.910156 L 83.890625 180.820312 L 84 180.648438 L 84.058594 180.566406 L 84.121094 180.488281 L 84.179688 180.410156 L 84.246094 180.332031 L 84.308594 180.257812 L 84.375 180.183594 L 84.574219 179.972656 L 84.640625 179.90625 L 84.710938 179.839844 L 84.777344 179.777344 L 84.917969 179.652344 L 84.984375 179.589844 L 85.054688 179.53125 L 85.125 179.46875 L 85.191406 179.410156 L 85.261719 179.355469 L 85.332031 179.296875 L 85.464844 179.1875 L 85.535156 179.132812 L 85.601562 179.082031 L 85.734375 178.972656 L 85.796875 178.921875 L 85.921875 178.8125 L 85.980469 178.761719 L 86.097656 178.652344 L 86.152344 178.601562 L 86.207031 178.546875 L 86.308594 178.4375 L 86.402344 178.328125 L 86.445312 178.273438 L 86.523438 178.15625 L 86.5625 178.101562 L 86.597656 178.042969 L 86.628906 177.984375 L 86.683594 177.859375 L 86.707031 177.796875 L 86.726562 177.730469 L 86.742188 177.664062 L 86.753906 177.59375 L 86.761719 177.523438 L 86.765625 177.453125 L 86.769531 177.378906 L 86.765625 177.328125 L 86.765625 177.28125 L 86.761719 177.230469 L 86.753906 177.183594 L 86.75 177.136719 L 86.738281 177.09375 L 86.730469 177.050781 L 86.71875 177.007812 L 86.707031 176.96875 L 86.675781 176.890625 L 86.65625 176.851562 L 86.597656 176.746094 L 86.574219 176.714844 L 86.546875 176.683594 L 86.523438 176.652344 L 86.46875 176.597656 L 86.4375 176.574219 L 86.40625 176.546875 L 86.375 176.523438 L 86.339844 176.503906 L 86.304688 176.480469 L 86.269531 176.464844 L 86.234375 176.445312 L 86.15625 176.414062 L 86.113281 176.402344 L 86.074219 176.386719 L 86.03125 176.375 L 85.988281 176.367188 L 85.945312 176.355469 L 85.902344 176.347656 L 85.714844 176.332031 L 85.617188 176.332031 L 85.570312 176.335938 L 85.527344 176.335938 L 85.480469 176.34375 L 85.4375 176.347656 L 85.351562 176.363281 L 85.308594 176.375 L 85.265625 176.382812 L 85.226562 176.394531 L 85.183594 176.410156 L 85.144531 176.425781 L 85.109375 176.441406 L 85.070312 176.457031 L 85 176.496094 L 84.964844 176.519531 L 84.929688 176.539062 L 84.898438 176.566406 L 84.863281 176.589844 L 84.832031 176.617188 L 84.804688 176.644531 L 84.773438 176.671875 L 84.71875 176.734375 L 84.695312 176.765625 L 84.667969 176.800781 L 84.644531 176.835938 L 84.625 176.875 L 84.601562 176.910156 L 84.582031 176.949219 L 84.566406 176.988281 L 84.519531 177.117188 L 84.507812 177.160156 L 84.496094 177.207031 L 84.488281 177.253906 L 84.472656 177.355469 L 83.683594 177.28125 L 83.691406 177.214844 L 83.714844 177.089844 L 83.746094 176.964844 L 83.765625 176.902344 L 83.835938 176.726562 L 83.863281 176.667969 L 83.894531 176.609375 L 83.957031 176.5 L 83.992188 176.449219 L 84.070312 176.347656 L 84.113281 176.300781 L 84.207031 176.207031 L 84.253906 176.164062 L 84.304688 176.121094 L 84.46875 176.003906 L 84.527344 175.96875 L 84.589844 175.933594 L 84.652344 175.902344 L 84.714844 175.875 L 84.78125 175.847656 L 84.851562 175.820312 L 84.921875 175.796875 L 84.996094 175.777344 L 85.074219 175.757812 L 85.230469 175.726562 L 85.3125 175.714844 L 85.484375 175.699219 L 85.574219 175.695312 L 85.753906 175.695312 L 85.839844 175.699219 L 85.925781 175.707031 L 86.089844 175.722656 L 86.167969 175.734375 L 86.246094 175.75 L 86.394531 175.78125 L 86.46875 175.804688 L 86.535156 175.824219 L 86.605469 175.851562 L 86.730469 175.90625 L 86.792969 175.9375 L 86.851562 175.96875 L 86.90625 176.003906 L 86.960938 176.042969 L 87.011719 176.082031 L 87.058594 176.121094 L 87.109375 176.164062 L 87.238281 176.304688 L 87.277344 176.355469 L 87.347656 176.464844 L 87.378906 176.519531 L 87.40625 176.582031 L 87.433594 176.640625 L 87.457031 176.703125 L 87.480469 176.769531 L 87.5 176.835938 L 87.515625 176.902344 L 87.53125 176.972656 L 87.542969 177.046875 L 87.558594 177.195312 L 87.5625 177.273438 L 87.5625 177.414062 L 87.558594 177.476562 L 87.554688 177.535156 L 87.546875 177.59375 L 87.523438 177.710938 L 87.507812 177.765625 L 87.492188 177.824219 L 87.472656 177.878906 L 87.449219 177.933594 L 87.429688 177.988281 L 87.40625 178.042969 L 87.351562 178.152344 L 87.324219 178.203125 L 87.292969 178.253906 L 87.261719 178.308594 L 87.230469 178.359375 L 87.195312 178.410156 L 87.160156 178.457031 L 87.121094 178.507812 L 87.085938 178.558594 L 87.046875 178.605469 L 87.003906 178.65625 L 86.964844 178.703125 L 86.921875 178.75 L 86.875 178.800781 L 86.832031 178.847656 L 86.691406 178.988281 L 86.640625 179.03125 L 86.589844 179.078125 L 86.542969 179.125 L 86.492188 179.167969 L 86.390625 179.261719 L 86.339844 179.304688 L 86.289062 179.351562 L 86.234375 179.394531 L 86.183594 179.4375 L 86.128906 179.484375 L 86.078125 179.527344 L 86.023438 179.570312 L 85.972656 179.613281 L 85.917969 179.660156 L 85.867188 179.703125 L 85.8125 179.746094 L 85.761719 179.789062 L 85.652344 179.875 L 85.601562 179.917969 L 85.550781 179.964844 L 85.347656 180.136719 L 85.300781 180.179688 L 85.25 180.222656 L 85.203125 180.269531 L 85.15625 180.3125 L 85.070312 180.398438 L 85.027344 180.445312 L 84.984375 180.488281 L 84.941406 180.535156 L 84.902344 180.578125 L 84.863281 180.625 L 84.824219 180.667969 L 84.785156 180.714844 L 84.75 180.757812 L 84.714844 180.804688 L 84.621094 180.945312 L 84.566406 181.039062 L 84.519531 181.132812 L 84.5 181.183594 L 87.65625 181.183594 L 87.65625 181.839844 Z M 83.648438 181.839844 "/>
<path style=" stroke:none;fill-rule:evenodd;fill:rgb(30.196078%,30.196078%,30.196078%);fill-opacity:1;" d="M 87.714844 126.308594 L 87.707031 126.472656 L 87.691406 126.628906 L 87.679688 126.703125 L 87.664062 126.777344 L 87.625 126.917969 L 87.601562 126.984375 L 87.546875 127.117188 L 87.515625 127.179688 L 87.484375 127.238281 L 87.449219 127.296875 L 87.410156 127.355469 L 87.371094 127.40625 L 87.324219 127.460938 L 87.28125 127.511719 L 87.179688 127.605469 L 87.128906 127.648438 L 87.070312 127.691406 L 87.015625 127.730469 L 86.953125 127.769531 L 86.890625 127.804688 L 86.757812 127.867188 L 86.683594 127.898438 L 86.613281 127.925781 L 86.457031 127.972656 L 86.378906 127.992188 L 86.296875 128.007812 L 86.210938 128.023438 L 86.125 128.035156 L 86.035156 128.046875 L 85.945312 128.054688 L 85.851562 128.0625 L 85.757812 128.066406 L 85.660156 128.066406 L 85.546875 128.0625 L 85.335938 128.054688 L 85.140625 128.03125 L 85.046875 128.015625 L 84.957031 128 L 84.871094 127.976562 L 84.789062 127.953125 L 84.710938 127.929688 L 84.632812 127.898438 L 84.492188 127.835938 L 84.359375 127.765625 L 84.296875 127.726562 L 84.238281 127.6875 L 84.128906 127.601562 L 84.078125 127.558594 L 83.984375 127.464844 L 83.898438 127.363281 L 83.859375 127.3125 L 83.789062 127.203125 L 83.757812 127.148438 L 83.730469 127.09375 L 83.703125 127.035156 L 83.679688 126.976562 L 83.65625 126.914062 L 83.636719 126.855469 L 83.617188 126.792969 L 83.601562 126.734375 L 83.570312 126.609375 L 83.558594 126.550781 L 83.550781 126.488281 L 83.539062 126.425781 L 84.339844 126.351562 L 84.355469 126.445312 L 84.367188 126.492188 L 84.375 126.535156 L 84.386719 126.582031 L 84.402344 126.625 L 84.414062 126.667969 L 84.429688 126.707031 L 84.449219 126.75 L 84.464844 126.789062 L 84.503906 126.867188 L 84.574219 126.972656 L 84.601562 127.007812 L 84.65625 127.070312 L 84.6875 127.101562 L 84.75 127.15625 L 84.785156 127.183594 L 84.855469 127.230469 L 84.933594 127.277344 L 85.019531 127.316406 L 85.0625 127.332031 L 85.15625 127.363281 L 85.308594 127.398438 L 85.417969 127.414062 L 85.535156 127.421875 L 85.597656 127.425781 L 85.660156 127.425781 L 85.773438 127.421875 L 85.882812 127.414062 L 85.988281 127.398438 L 86.085938 127.378906 L 86.179688 127.355469 L 86.269531 127.320312 L 86.351562 127.285156 L 86.433594 127.242188 L 86.503906 127.191406 L 86.574219 127.136719 L 86.636719 127.078125 L 86.695312 127.011719 L 86.746094 126.941406 L 86.789062 126.863281 L 86.824219 126.78125 L 86.855469 126.691406 L 86.878906 126.597656 L 86.894531 126.5 L 86.90625 126.394531 L 86.910156 126.28125 L 86.90625 126.21875 L 86.902344 126.152344 L 86.886719 126.035156 L 86.871094 125.980469 L 86.855469 125.929688 L 86.835938 125.878906 L 86.8125 125.832031 L 86.789062 125.789062 L 86.757812 125.746094 L 86.730469 125.707031 L 86.699219 125.667969 L 86.664062 125.628906 L 86.628906 125.59375 L 86.59375 125.5625 L 86.554688 125.53125 L 86.476562 125.476562 L 86.433594 125.449219 L 86.390625 125.425781 L 86.34375 125.40625 L 86.300781 125.382812 L 86.253906 125.363281 L 86.160156 125.332031 L 86.109375 125.316406 L 86.0625 125.304688 L 85.960938 125.28125 L 85.910156 125.273438 L 85.855469 125.265625 L 85.808594 125.257812 L 85.707031 125.25 L 85.660156 125.242188 L 85.613281 125.242188 L 85.519531 125.234375 L 84.992188 125.234375 L 84.992188 124.5625 L 85.503906 124.5625 L 85.546875 124.558594 L 85.59375 124.558594 L 85.636719 124.554688 L 85.683594 124.546875 L 85.730469 124.542969 L 85.917969 124.511719 L 85.960938 124.5 L 86.007812 124.488281 L 86.09375 124.457031 L 86.136719 124.4375 L 86.179688 124.421875 L 86.21875 124.402344 L 86.261719 124.378906 L 86.300781 124.359375 L 86.339844 124.332031 L 86.445312 124.25 L 86.480469 124.21875 L 86.511719 124.183594 L 86.539062 124.148438 L 86.570312 124.113281 L 86.597656 124.074219 L 86.621094 124.035156 L 86.667969 123.949219 L 86.6875 123.902344 L 86.703125 123.855469 L 86.71875 123.804688 L 86.730469 123.753906 L 86.738281 123.699219 L 86.746094 123.640625 L 86.75 123.582031 L 86.75 123.519531 L 86.746094 123.425781 L 86.738281 123.332031 L 86.726562 123.246094 L 86.703125 123.164062 L 86.679688 123.085938 L 86.648438 123.011719 L 86.609375 122.941406 L 86.566406 122.875 L 86.515625 122.8125 L 86.460938 122.753906 L 86.402344 122.699219 L 86.339844 122.652344 L 86.265625 122.609375 L 86.191406 122.574219 L 86.109375 122.542969 L 86.023438 122.515625 L 85.929688 122.496094 L 85.832031 122.484375 L 85.726562 122.472656 L 85.515625 122.472656 L 85.417969 122.480469 L 85.238281 122.511719 L 85.152344 122.535156 L 85.074219 122.566406 L 84.996094 122.601562 L 84.921875 122.640625 L 84.851562 122.683594 L 84.785156 122.734375 L 84.726562 122.789062 L 84.671875 122.847656 L 84.621094 122.910156 L 84.578125 122.976562 L 84.539062 123.050781 L 84.503906 123.125 L 84.476562 123.207031 L 84.453125 123.289062 L 84.433594 123.378906 L 84.421875 123.472656 L 83.644531 123.414062 L 83.65625 123.332031 L 83.667969 123.257812 L 83.683594 123.183594 L 83.703125 123.109375 L 83.722656 123.039062 L 83.746094 122.96875 L 83.769531 122.902344 L 83.800781 122.839844 L 83.828125 122.777344 L 83.863281 122.714844 L 83.898438 122.65625 L 83.9375 122.601562 L 83.972656 122.546875 L 84.058594 122.445312 L 84.101562 122.398438 L 84.148438 122.351562 L 84.195312 122.308594 L 84.246094 122.265625 L 84.296875 122.226562 L 84.351562 122.1875 L 84.40625 122.152344 L 84.464844 122.117188 L 84.582031 122.054688 L 84.707031 122 L 84.769531 121.976562 L 84.835938 121.953125 L 84.902344 121.933594 L 84.972656 121.914062 L 85.039062 121.898438 L 85.109375 121.882812 L 85.179688 121.871094 L 85.253906 121.859375 L 85.324219 121.851562 L 85.398438 121.84375 L 85.472656 121.839844 L 85.550781 121.835938 L 85.726562 121.835938 L 85.820312 121.839844 L 85.917969 121.847656 L 86.007812 121.855469 L 86.097656 121.867188 L 86.183594 121.882812 L 86.265625 121.898438 L 86.34375 121.917969 L 86.421875 121.941406 L 86.570312 121.988281 L 86.636719 122.019531 L 86.703125 122.046875 L 86.769531 122.078125 L 86.886719 122.148438 L 86.941406 122.183594 L 86.996094 122.222656 L 87.046875 122.265625 L 87.140625 122.351562 L 87.183594 122.398438 L 87.261719 122.492188 L 87.296875 122.542969 L 87.328125 122.59375 L 87.359375 122.648438 L 87.386719 122.703125 L 87.410156 122.757812 L 87.457031 122.875 L 87.472656 122.933594 L 87.492188 122.992188 L 87.503906 123.054688 L 87.519531 123.117188 L 87.535156 123.242188 L 87.542969 123.308594 L 87.542969 123.371094 L 87.546875 123.4375 L 87.542969 123.492188 L 87.542969 123.542969 L 87.535156 123.644531 L 87.519531 123.746094 L 87.511719 123.792969 L 87.5 123.84375 L 87.488281 123.890625 L 87.457031 123.984375 L 87.441406 124.027344 L 87.402344 124.113281 L 87.355469 124.199219 L 87.332031 124.238281 L 87.304688 124.277344 L 87.273438 124.316406 L 87.246094 124.351562 L 87.214844 124.390625 L 87.144531 124.460938 L 87.105469 124.492188 L 87.070312 124.523438 L 86.941406 124.617188 L 86.898438 124.644531 L 86.847656 124.671875 L 86.800781 124.699219 L 86.699219 124.746094 L 86.644531 124.765625 L 86.589844 124.789062 L 86.53125 124.808594 L 86.46875 124.828125 L 86.34375 124.859375 L 86.277344 124.875 L 86.277344 124.890625 L 86.351562 124.898438 L 86.421875 124.910156 L 86.488281 124.921875 L 86.621094 124.953125 L 86.683594 124.96875 L 86.742188 124.988281 L 86.800781 125.011719 L 86.859375 125.03125 L 86.914062 125.058594 L 86.96875 125.082031 L 87.019531 125.109375 L 87.066406 125.136719 L 87.117188 125.167969 L 87.203125 125.230469 L 87.246094 125.265625 L 87.285156 125.296875 L 87.359375 125.371094 L 87.394531 125.410156 L 87.457031 125.488281 L 87.488281 125.53125 L 87.515625 125.574219 L 87.5625 125.660156 L 87.585938 125.707031 L 87.605469 125.753906 L 87.621094 125.800781 L 87.640625 125.851562 L 87.65625 125.898438 L 87.667969 125.949219 L 87.679688 125.996094 L 87.691406 126.046875 L 87.699219 126.097656 L 87.703125 126.152344 L 87.710938 126.203125 L 87.710938 126.253906 Z M 87.714844 126.308594 "/>
<path style=" stroke:none;fill-rule:evenodd;fill:rgb(30.196078%,30.196078%,30.196078%);fill-opacity:1;" d="M 86.992188 72.75 L 86.992188 74.121094 L 86.261719 74.121094 L 86.261719 72.75 L 83.40625 72.75 L 83.40625 72.148438 L 86.179688 68.066406 L 86.992188 68.066406 L 86.992188 72.136719 L 87.84375 72.136719 L 87.84375 72.75 Z M 86.261719 68.9375 L 86.257812 68.941406 L 86.257812 68.949219 L 86.253906 68.953125 L 86.246094 68.96875 L 86.242188 68.980469 L 86.234375 68.988281 L 86.230469 69 L 86.222656 69.011719 L 86.21875 69.023438 L 86.203125 69.046875 L 86.195312 69.0625 L 86.179688 69.085938 L 86.164062 69.117188 L 86.15625 69.128906 L 86.125 69.191406 L 86.113281 69.207031 L 86.097656 69.238281 L 86.085938 69.253906 L 86.078125 69.269531 L 86.070312 69.289062 L 86.058594 69.304688 L 86.035156 69.351562 L 86.023438 69.363281 L 86.015625 69.378906 L 86 69.402344 L 85.996094 69.414062 L 85.972656 69.449219 L 84.421875 71.734375 L 84.414062 71.75 L 84.40625 71.757812 L 84.402344 71.765625 L 84.394531 71.773438 L 84.386719 71.785156 L 84.382812 71.792969 L 84.375 71.804688 L 84.355469 71.824219 L 84.277344 71.941406 L 84.265625 71.953125 L 84.257812 71.964844 L 84.25 71.972656 L 84.234375 71.996094 L 84.222656 72.007812 L 84.199219 72.042969 L 84.179688 72.0625 L 84.171875 72.074219 L 84.164062 72.082031 L 84.15625 72.09375 L 84.152344 72.101562 L 84.136719 72.117188 L 84.132812 72.125 L 84.121094 72.136719 L 86.261719 72.136719 Z M 86.261719 68.9375 "/>
<path style=" stroke:none;fill-rule:evenodd;fill:rgb(30.196078%,30.196078%,30.196078%);fill-opacity:1;" d="M 87.730469 18.285156 L 87.730469 18.375 L 87.726562 18.464844 L 87.71875 18.554688 L 87.707031 18.636719 L 87.695312 18.722656 L 87.664062 18.886719 L 87.59375 19.121094 L 87.5625 19.195312 L 87.5 19.335938 L 87.460938 19.40625 L 87.421875 19.472656 L 87.335938 19.597656 L 87.289062 19.660156 L 87.238281 19.71875 L 87.128906 19.828125 L 87.070312 19.875 L 87.011719 19.925781 L 86.945312 19.96875 L 86.878906 20.015625 L 86.8125 20.054688 L 86.742188 20.09375 L 86.667969 20.128906 L 86.589844 20.164062 L 86.511719 20.195312 L 86.429688 20.222656 L 86.34375 20.25 L 86.257812 20.269531 L 86.078125 20.308594 L 85.984375 20.320312 L 85.886719 20.332031 L 85.789062 20.339844 L 85.6875 20.34375 L 85.488281 20.34375 L 85.394531 20.339844 L 85.304688 20.335938 L 85.21875 20.328125 L 85.054688 20.304688 L 84.972656 20.289062 L 84.894531 20.273438 L 84.820312 20.253906 L 84.75 20.234375 L 84.679688 20.210938 L 84.613281 20.183594 L 84.546875 20.160156 L 84.484375 20.128906 L 84.421875 20.101562 L 84.363281 20.070312 L 84.308594 20.035156 L 84.253906 20.003906 L 84.199219 19.964844 L 84.152344 19.929688 L 84.101562 19.886719 L 84.058594 19.847656 L 84.011719 19.804688 L 83.972656 19.757812 L 83.929688 19.714844 L 83.894531 19.667969 L 83.855469 19.621094 L 83.824219 19.570312 L 83.789062 19.519531 L 83.761719 19.46875 L 83.734375 19.414062 L 83.707031 19.363281 L 83.660156 19.253906 L 83.640625 19.195312 L 83.621094 19.140625 L 83.601562 19.082031 L 83.570312 18.964844 L 83.558594 18.90625 L 84.339844 18.816406 L 84.351562 18.847656 L 84.359375 18.882812 L 84.371094 18.917969 L 84.382812 18.949219 L 84.398438 18.984375 L 84.410156 19.019531 L 84.425781 19.050781 L 84.441406 19.085938 L 84.472656 19.148438 L 84.492188 19.183594 L 84.511719 19.210938 L 84.550781 19.273438 L 84.574219 19.300781 L 84.597656 19.332031 L 84.625 19.359375 L 84.648438 19.386719 L 84.675781 19.410156 L 84.707031 19.4375 L 84.734375 19.460938 L 84.769531 19.484375 L 84.800781 19.507812 L 84.835938 19.53125 L 84.871094 19.550781 L 84.949219 19.589844 L 84.988281 19.605469 L 85.027344 19.625 L 85.070312 19.640625 L 85.117188 19.652344 L 85.160156 19.667969 L 85.210938 19.675781 L 85.261719 19.6875 L 85.3125 19.695312 L 85.367188 19.703125 L 85.421875 19.707031 L 85.480469 19.710938 L 85.539062 19.710938 L 85.597656 19.714844 L 85.660156 19.710938 L 85.71875 19.710938 L 85.773438 19.703125 L 85.832031 19.699219 L 85.886719 19.691406 L 85.941406 19.679688 L 86.042969 19.65625 L 86.09375 19.640625 L 86.144531 19.621094 L 86.238281 19.582031 L 86.285156 19.558594 L 86.328125 19.535156 L 86.371094 19.507812 L 86.414062 19.476562 L 86.453125 19.449219 L 86.488281 19.417969 L 86.527344 19.382812 L 86.597656 19.3125 L 86.628906 19.273438 L 86.660156 19.230469 L 86.691406 19.191406 L 86.71875 19.148438 L 86.742188 19.101562 L 86.769531 19.054688 L 86.792969 19.007812 L 86.832031 18.90625 L 86.851562 18.851562 L 86.867188 18.796875 L 86.878906 18.742188 L 86.894531 18.683594 L 86.902344 18.625 L 86.917969 18.5 L 86.921875 18.4375 L 86.925781 18.371094 L 86.925781 18.25 L 86.914062 18.085938 L 86.90625 18.035156 L 86.894531 17.984375 L 86.882812 17.9375 L 86.867188 17.886719 L 86.855469 17.839844 L 86.796875 17.699219 L 86.777344 17.65625 L 86.753906 17.613281 L 86.644531 17.457031 L 86.613281 17.421875 L 86.578125 17.386719 L 86.472656 17.292969 L 86.433594 17.261719 L 86.390625 17.234375 L 86.351562 17.210938 L 86.304688 17.1875 L 86.261719 17.164062 L 86.214844 17.140625 L 86.167969 17.121094 L 86.015625 17.074219 L 85.960938 17.0625 L 85.910156 17.050781 L 85.851562 17.042969 L 85.796875 17.035156 L 85.738281 17.03125 L 85.675781 17.027344 L 85.539062 17.027344 L 85.503906 17.03125 L 85.464844 17.03125 L 85.359375 17.042969 L 85.328125 17.050781 L 85.292969 17.054688 L 85.257812 17.0625 L 85.101562 17.101562 L 85.070312 17.113281 L 85.042969 17.121094 L 85.011719 17.132812 L 84.984375 17.144531 L 84.953125 17.15625 L 84.925781 17.167969 L 84.902344 17.179688 L 84.875 17.195312 L 84.847656 17.207031 L 84.824219 17.222656 L 84.796875 17.238281 L 84.773438 17.25 L 84.75 17.265625 L 84.722656 17.28125 L 84.699219 17.296875 L 84.679688 17.3125 L 84.65625 17.328125 L 84.636719 17.34375 L 84.613281 17.363281 L 84.59375 17.378906 L 84.570312 17.394531 L 84.53125 17.425781 L 84.511719 17.445312 L 84.492188 17.460938 L 83.734375 17.460938 L 83.9375 14.203125 L 87.378906 14.203125 L 87.378906 14.863281 L 84.640625 14.863281 L 84.523438 16.78125 L 84.566406 16.75 L 84.613281 16.722656 L 84.65625 16.691406 L 84.808594 16.609375 L 84.863281 16.582031 L 85.039062 16.511719 L 85.105469 16.488281 L 85.167969 16.46875 L 85.238281 16.453125 L 85.304688 16.4375 L 85.453125 16.414062 L 85.53125 16.40625 L 85.609375 16.402344 L 85.773438 16.394531 L 85.953125 16.402344 L 86.039062 16.410156 L 86.121094 16.417969 L 86.203125 16.429688 L 86.285156 16.445312 L 86.363281 16.464844 L 86.4375 16.484375 L 86.515625 16.507812 L 86.585938 16.535156 L 86.660156 16.5625 L 86.792969 16.625 L 86.859375 16.660156 L 86.921875 16.699219 L 86.980469 16.738281 L 87.039062 16.78125 L 87.097656 16.828125 L 87.148438 16.875 L 87.203125 16.925781 L 87.296875 17.027344 L 87.34375 17.082031 L 87.386719 17.140625 L 87.464844 17.257812 L 87.5 17.320312 L 87.535156 17.386719 L 87.5625 17.453125 L 87.59375 17.523438 L 87.640625 17.664062 L 87.664062 17.738281 L 87.695312 17.886719 L 87.71875 18.042969 L 87.726562 18.121094 L 87.730469 18.203125 Z M 87.730469 18.285156 "/>
<path style="fill:none;stroke-width:1.422638;stroke-linecap:butt;stroke-linejoin:round;stroke:rgb(20%,20%,20%);stroke-opacity:1;stroke-miterlimit:10;" d="M 90.292969 340.394531 L 93.03125 340.394531 "/>
<path style="fill:none;stroke-width:1.422638;stroke-linecap:butt;stroke-linejoin:round;stroke:rgb(20%,20%,20%);stroke-opacity:1;stroke-miterlimit:10;" d="M 90.292969 286.535156 L 93.03125 286.535156 "/>
<path style="fill:none;stroke-width:1.422638;stroke-linecap:butt;stroke-linejoin:round;stroke:rgb(20%,20%,20%);stroke-opacity:1;stroke-miterlimit:10;" d="M 90.292969 232.671875 L 93.03125 232.671875 "/>
<path style="fill:none;stroke-width:1.422638;stroke-linecap:butt;stroke-linejoin:round;stroke:rgb(20%,20%,20%);stroke-opacity:1;stroke-miterlimit:10;" d="M 90.292969 178.8125 L 93.03125 178.8125 "/>
<path style="fill:none;stroke-width:1.422638;stroke-linecap:butt;stroke-linejoin:round;stroke:rgb(20%,20%,20%);stroke-opacity:1;stroke-miterlimit:10;" d="M 90.292969 124.953125 L 93.03125 124.953125 "/>
<path style="fill:none;stroke-width:1.422638;stroke-linecap:butt;stroke-linejoin:round;stroke:rgb(20%,20%,20%);stroke-opacity:1;stroke-miterlimit:10;" d="M 90.292969 71.09375 L 93.03125 71.09375 "/>
<path style="fill:none;stroke-width:1.422638;stroke-linecap:butt;stroke-linejoin:round;stroke:rgb(20%,20%,20%);stroke-opacity:1;stroke-miterlimit:10;" d="M 90.292969 17.230469 L 93.03125 17.230469 "/>
<path style="fill:none;stroke-width:1.422638;stroke-linecap:butt;stroke-linejoin:round;stroke:rgb(20%,20%,20%);stroke-opacity:1;stroke-miterlimit:10;" d="M 107.179688 344.449219 L 107.179688 341.707031 "/>
<path style="fill:none;stroke-width:1.422638;stroke-linecap:butt;stroke-linejoin:round;stroke:rgb(20%,20%,20%);stroke-opacity:1;stroke-miterlimit:10;" d="M 161.039062 344.449219 L 161.039062 341.707031 "/>
<path style="fill:none;stroke-width:1.422638;stroke-linecap:butt;stroke-linejoin:round;stroke:rgb(20%,20%,20%);stroke-opacity:1;stroke-miterlimit:10;" d="M 214.898438 344.449219 L 214.898438 341.707031 "/>
<path style="fill:none;stroke-width:1.422638;stroke-linecap:butt;stroke-linejoin:round;stroke:rgb(20%,20%,20%);stroke-opacity:1;stroke-miterlimit:10;" d="M 268.757812 344.449219 L 268.757812 341.707031 "/>
<path style="fill:none;stroke-width:1.422638;stroke-linecap:butt;stroke-linejoin:round;stroke:rgb(20%,20%,20%);stroke-opacity:1;stroke-miterlimit:10;" d="M 322.621094 344.449219 L 322.621094 341.707031 "/>
<path style="fill:none;stroke-width:1.422638;stroke-linecap:butt;stroke-linejoin:round;stroke:rgb(20%,20%,20%);stroke-opacity:1;stroke-miterlimit:10;" d="M 376.480469 344.449219 L 376.480469 341.707031 "/>
<path style=" stroke:none;fill-rule:evenodd;fill:rgb(30.196078%,30.196078%,30.196078%);fill-opacity:1;" d="M 103.65625 350.699219 L 103.65625 350.011719 L 105.804688 350.011719 L 105.804688 350.699219 Z M 103.65625 350.699219 "/>
<path style=" stroke:none;fill-rule:evenodd;fill:rgb(30.196078%,30.196078%,30.196078%);fill-opacity:1;" d="M 106.636719 352.695312 L 106.636719 352.148438 L 106.730469 351.953125 L 106.777344 351.859375 L 106.828125 351.765625 L 106.882812 351.675781 L 106.933594 351.589844 L 106.992188 351.503906 L 107.109375 351.339844 L 107.171875 351.261719 L 107.234375 351.1875 L 107.300781 351.113281 L 107.363281 351.039062 L 107.429688 350.964844 L 107.496094 350.894531 L 107.5625 350.828125 L 107.632812 350.761719 L 107.699219 350.695312 L 107.769531 350.628906 L 107.835938 350.566406 L 107.90625 350.503906 L 107.976562 350.445312 L 108.046875 350.382812 L 108.113281 350.324219 L 108.183594 350.265625 L 108.25 350.207031 L 108.390625 350.097656 L 108.523438 349.988281 L 108.59375 349.933594 L 108.660156 349.878906 L 108.726562 349.828125 L 108.789062 349.773438 L 108.851562 349.722656 L 108.914062 349.667969 L 108.972656 349.613281 L 109.03125 349.5625 L 109.089844 349.507812 L 109.144531 349.453125 L 109.199219 349.402344 L 109.300781 349.292969 L 109.347656 349.238281 L 109.390625 349.183594 L 109.433594 349.125 L 109.476562 349.070312 L 109.515625 349.011719 L 109.585938 348.894531 L 109.648438 348.777344 L 109.671875 348.714844 L 109.695312 348.648438 L 109.714844 348.585938 L 109.730469 348.515625 L 109.742188 348.449219 L 109.757812 348.308594 L 109.757812 348.183594 L 109.753906 348.132812 L 109.746094 348.039062 L 109.738281 347.992188 L 109.730469 347.949219 L 109.707031 347.863281 L 109.695312 347.824219 L 109.679688 347.78125 L 109.664062 347.746094 L 109.648438 347.707031 L 109.609375 347.636719 L 109.585938 347.601562 L 109.539062 347.539062 L 109.511719 347.507812 L 109.457031 347.453125 L 109.425781 347.425781 L 109.332031 347.355469 L 109.261719 347.316406 L 109.222656 347.300781 L 109.183594 347.28125 L 109.144531 347.269531 L 109.105469 347.253906 L 109.0625 347.242188 L 109.023438 347.230469 L 108.980469 347.21875 L 108.9375 347.210938 L 108.84375 347.195312 L 108.800781 347.191406 L 108.75 347.1875 L 108.5625 347.1875 L 108.515625 347.191406 L 108.472656 347.195312 L 108.429688 347.203125 L 108.382812 347.210938 L 108.339844 347.21875 L 108.300781 347.226562 L 108.214844 347.25 L 108.175781 347.265625 L 108.136719 347.277344 L 108.097656 347.292969 L 108.0625 347.3125 L 108.023438 347.332031 L 107.953125 347.371094 L 107.917969 347.394531 L 107.886719 347.417969 L 107.855469 347.445312 L 107.824219 347.46875 L 107.792969 347.496094 L 107.765625 347.527344 L 107.734375 347.558594 L 107.710938 347.589844 L 107.683594 347.621094 L 107.613281 347.726562 L 107.554688 347.84375 L 107.539062 347.886719 L 107.523438 347.925781 L 107.511719 347.972656 L 107.5 348.015625 L 107.476562 348.109375 L 107.46875 348.160156 L 107.464844 348.207031 L 106.671875 348.136719 L 106.683594 348.070312 L 106.691406 348.007812 L 106.707031 347.941406 L 106.71875 347.878906 L 106.738281 347.820312 L 106.777344 347.695312 L 106.824219 347.578125 L 106.851562 347.519531 L 106.914062 347.410156 L 106.984375 347.300781 L 107.023438 347.25 L 107.0625 347.203125 L 107.105469 347.152344 L 107.148438 347.105469 L 107.195312 347.0625 L 107.347656 346.933594 L 107.402344 346.894531 L 107.578125 346.789062 L 107.640625 346.757812 L 107.707031 346.726562 L 107.773438 346.699219 L 107.839844 346.675781 L 107.988281 346.628906 L 108.0625 346.609375 L 108.140625 346.59375 L 108.304688 346.570312 L 108.386719 346.5625 L 108.472656 346.554688 L 108.5625 346.550781 L 108.742188 346.550781 L 108.832031 346.554688 L 108.914062 346.558594 L 109 346.566406 L 109.082031 346.578125 L 109.238281 346.601562 L 109.3125 346.617188 L 109.386719 346.636719 L 109.457031 346.65625 L 109.527344 346.679688 L 109.59375 346.703125 L 109.660156 346.730469 L 109.722656 346.757812 L 109.78125 346.789062 L 109.839844 346.824219 L 109.949219 346.894531 L 110 346.933594 L 110.050781 346.976562 L 110.144531 347.0625 L 110.1875 347.109375 L 110.265625 347.210938 L 110.300781 347.261719 L 110.335938 347.320312 L 110.367188 347.375 L 110.398438 347.433594 L 110.425781 347.496094 L 110.449219 347.558594 L 110.46875 347.621094 L 110.488281 347.6875 L 110.507812 347.757812 L 110.519531 347.828125 L 110.53125 347.902344 L 110.542969 347.972656 L 110.554688 348.207031 L 110.550781 348.269531 L 110.546875 348.328125 L 110.542969 348.390625 L 110.535156 348.449219 L 110.523438 348.507812 L 110.511719 348.5625 L 110.5 348.621094 L 110.480469 348.675781 L 110.460938 348.734375 L 110.441406 348.789062 L 110.371094 348.953125 L 110.34375 349.003906 L 110.316406 349.058594 L 110.253906 349.160156 L 110.113281 349.363281 L 110.074219 349.410156 L 110.035156 349.460938 L 109.996094 349.507812 L 109.953125 349.558594 L 109.867188 349.652344 L 109.820312 349.699219 L 109.777344 349.746094 L 109.726562 349.792969 L 109.679688 349.839844 L 109.628906 349.886719 L 109.582031 349.933594 L 109.53125 349.976562 L 109.429688 350.070312 L 109.378906 350.113281 L 109.328125 350.160156 L 109.277344 350.203125 L 109.226562 350.25 L 109.171875 350.292969 L 109.121094 350.335938 L 109.066406 350.382812 L 109.015625 350.425781 L 108.960938 350.46875 L 108.910156 350.511719 L 108.855469 350.554688 L 108.804688 350.601562 L 108.695312 350.6875 L 108.644531 350.730469 L 108.589844 350.773438 L 108.386719 350.945312 L 108.339844 350.992188 L 108.289062 351.035156 L 108.148438 351.164062 L 108.015625 351.296875 L 107.972656 351.34375 L 107.933594 351.386719 L 107.890625 351.433594 L 107.851562 351.476562 L 107.816406 351.523438 L 107.777344 351.570312 L 107.742188 351.613281 L 107.707031 351.660156 L 107.671875 351.703125 L 107.640625 351.75 L 107.558594 351.890625 L 107.535156 351.941406 L 107.488281 352.035156 L 110.648438 352.035156 L 110.648438 352.695312 Z M 106.636719 352.695312 "/>
<path style=" stroke:none;fill-rule:evenodd;fill:rgb(30.196078%,30.196078%,30.196078%);fill-opacity:1;" d="M 157.515625 350.699219 L 157.515625 350.011719 L 159.664062 350.011719 L 159.664062 350.699219 Z M 157.515625 350.699219 "/>
<path style=" stroke:none;fill-rule:evenodd;fill:rgb(30.196078%,30.196078%,30.196078%);fill-opacity:1;" d="M 160.726562 352.695312 L 160.726562 352.035156 L 162.269531 352.035156 L 162.269531 347.378906 L 160.902344 348.355469 L 160.902344 347.625 L 162.332031 346.640625 L 163.046875 346.640625 L 163.046875 352.035156 L 164.519531 352.035156 L 164.519531 352.695312 Z M 160.726562 352.695312 "/>
<path style=" stroke:none;fill-rule:evenodd;fill:rgb(30.196078%,30.196078%,30.196078%);fill-opacity:1;" d="M 218.226562 349.664062 L 218.222656 349.835938 L 218.21875 350.003906 L 218.210938 350.164062 L 218.199219 350.320312 L 218.183594 350.46875 L 218.164062 350.613281 L 218.140625 350.75 L 218.117188 350.882812 L 218.089844 351.011719 L 218.058594 351.132812 L 218.023438 351.25 L 217.988281 351.363281 L 217.949219 351.46875 L 217.90625 351.574219 L 217.863281 351.671875 L 217.816406 351.765625 L 217.765625 351.855469 L 217.714844 351.941406 L 217.664062 352.019531 L 217.605469 352.097656 L 217.546875 352.167969 L 217.488281 352.234375 L 217.425781 352.296875 L 217.363281 352.355469 L 217.296875 352.410156 L 217.226562 352.460938 L 217.160156 352.507812 L 217.085938 352.550781 L 216.9375 352.621094 L 216.859375 352.652344 L 216.777344 352.679688 L 216.699219 352.703125 L 216.535156 352.742188 L 216.453125 352.753906 L 216.367188 352.765625 L 216.285156 352.773438 L 216.199219 352.777344 L 216.109375 352.78125 L 215.9375 352.773438 L 215.851562 352.765625 L 215.765625 352.753906 L 215.683594 352.742188 L 215.519531 352.703125 L 215.441406 352.679688 L 215.363281 352.652344 L 215.285156 352.621094 L 215.136719 352.550781 L 215.066406 352.507812 L 214.996094 352.460938 L 214.929688 352.410156 L 214.863281 352.355469 L 214.796875 352.296875 L 214.738281 352.234375 L 214.675781 352.167969 L 214.621094 352.097656 L 214.566406 352.023438 L 214.511719 351.941406 L 214.460938 351.859375 L 214.414062 351.769531 L 214.371094 351.675781 L 214.324219 351.578125 L 214.246094 351.367188 L 214.175781 351.140625 L 214.121094 350.890625 L 214.074219 350.617188 L 214.058594 350.472656 L 214.042969 350.320312 L 214.03125 350.164062 L 214.023438 350.003906 L 214.019531 349.835938 L 214.019531 349.484375 L 214.023438 349.3125 L 214.03125 349.144531 L 214.042969 348.984375 L 214.058594 348.828125 L 214.074219 348.679688 L 214.097656 348.539062 L 214.121094 348.402344 L 214.148438 348.273438 L 214.175781 348.152344 L 214.210938 348.035156 L 214.246094 347.921875 L 214.285156 347.8125 L 214.328125 347.710938 L 214.371094 347.613281 L 214.417969 347.519531 L 214.464844 347.429688 L 214.515625 347.347656 L 214.566406 347.269531 L 214.625 347.195312 L 214.679688 347.125 L 214.742188 347.058594 L 214.804688 347 L 214.867188 346.945312 L 214.933594 346.890625 L 215 346.84375 L 215.070312 346.800781 L 215.144531 346.761719 L 215.21875 346.726562 L 215.292969 346.695312 L 215.371094 346.667969 L 215.453125 346.644531 L 215.53125 346.621094 L 215.613281 346.601562 L 215.699219 346.585938 L 215.78125 346.574219 L 215.871094 346.5625 L 215.957031 346.554688 L 216.046875 346.550781 L 216.222656 346.550781 L 216.308594 346.554688 L 216.390625 346.5625 L 216.554688 346.585938 L 216.636719 346.601562 L 216.714844 346.621094 L 216.796875 346.644531 L 216.871094 346.667969 L 216.949219 346.695312 L 217.023438 346.726562 L 217.097656 346.761719 L 217.167969 346.800781 L 217.238281 346.84375 L 217.304688 346.890625 L 217.371094 346.945312 L 217.433594 347 L 217.496094 347.058594 L 217.558594 347.125 L 217.613281 347.195312 L 217.671875 347.269531 L 217.722656 347.347656 L 217.773438 347.429688 L 217.820312 347.519531 L 217.867188 347.613281 L 217.910156 347.710938 L 217.953125 347.8125 L 217.992188 347.921875 L 218.027344 348.035156 L 218.0625 348.152344 L 218.09375 348.273438 L 218.121094 348.402344 L 218.144531 348.539062 L 218.164062 348.679688 L 218.183594 348.828125 L 218.199219 348.984375 L 218.210938 349.144531 L 218.21875 349.3125 L 218.222656 349.484375 Z M 217.4375 349.664062 L 217.4375 349.523438 L 217.433594 349.386719 L 217.429688 349.253906 L 217.425781 349.125 L 217.417969 349.003906 L 217.40625 348.886719 L 217.394531 348.773438 L 217.382812 348.667969 L 217.367188 348.5625 L 217.351562 348.464844 L 217.335938 348.371094 L 217.316406 348.28125 L 217.292969 348.195312 L 217.269531 348.113281 L 217.246094 348.035156 L 217.21875 347.960938 L 217.191406 347.890625 L 217.164062 347.824219 L 217.132812 347.761719 L 217.097656 347.703125 L 217.066406 347.644531 L 217.027344 347.59375 L 216.992188 347.542969 L 216.953125 347.5 L 216.871094 347.417969 L 216.828125 347.382812 L 216.78125 347.351562 L 216.6875 347.296875 L 216.636719 347.273438 L 216.535156 347.234375 L 216.484375 347.21875 L 216.429688 347.207031 L 216.371094 347.195312 L 216.316406 347.1875 L 216.199219 347.179688 L 216.136719 347.175781 L 216.070312 347.179688 L 216.007812 347.183594 L 215.949219 347.1875 L 215.886719 347.195312 L 215.828125 347.207031 L 215.773438 347.21875 L 215.71875 347.234375 L 215.609375 347.273438 L 215.5625 347.296875 L 215.511719 347.324219 L 215.464844 347.351562 L 215.417969 347.386719 L 215.375 347.421875 L 215.332031 347.460938 L 215.289062 347.503906 L 215.25 347.546875 L 215.210938 347.597656 L 215.175781 347.648438 L 215.105469 347.765625 L 215.074219 347.828125 L 215.046875 347.894531 L 215.019531 347.964844 L 214.992188 348.039062 L 214.96875 348.117188 L 214.945312 348.199219 L 214.921875 348.285156 L 214.902344 348.375 L 214.886719 348.46875 L 214.871094 348.566406 L 214.855469 348.671875 L 214.84375 348.777344 L 214.832031 348.890625 L 214.820312 349.007812 L 214.8125 349.128906 L 214.804688 349.386719 L 214.800781 349.523438 L 214.800781 349.800781 L 214.804688 349.933594 L 214.808594 350.0625 L 214.8125 350.1875 L 214.820312 350.304688 L 214.832031 350.421875 L 214.84375 350.53125 L 214.855469 350.636719 L 214.871094 350.742188 L 214.886719 350.839844 L 214.90625 350.933594 L 214.925781 351.023438 L 214.945312 351.109375 L 214.96875 351.191406 L 214.996094 351.269531 L 215.023438 351.34375 L 215.078125 351.484375 L 215.109375 351.546875 L 215.179688 351.664062 L 215.214844 351.714844 L 215.253906 351.765625 L 215.292969 351.8125 L 215.332031 351.855469 L 215.375 351.894531 L 215.421875 351.933594 L 215.464844 351.964844 L 215.511719 351.996094 L 215.5625 352.023438 L 215.609375 352.046875 L 215.660156 352.070312 L 215.714844 352.085938 L 215.765625 352.105469 L 215.824219 352.117188 L 215.878906 352.128906 L 215.996094 352.144531 L 216.058594 352.148438 L 216.179688 352.148438 L 216.238281 352.144531 L 216.355469 352.128906 L 216.464844 352.105469 L 216.515625 352.085938 L 216.570312 352.070312 L 216.621094 352.046875 L 216.667969 352.023438 L 216.71875 351.996094 L 216.765625 351.964844 L 216.808594 351.933594 L 216.894531 351.855469 L 216.933594 351.8125 L 216.972656 351.765625 L 217.011719 351.714844 L 217.046875 351.664062 L 217.082031 351.605469 L 217.113281 351.546875 L 217.148438 351.484375 L 217.175781 351.414062 L 217.207031 351.34375 L 217.234375 351.269531 L 217.257812 351.191406 L 217.28125 351.109375 L 217.304688 351.023438 L 217.324219 350.933594 L 217.34375 350.839844 L 217.363281 350.742188 L 217.378906 350.636719 L 217.390625 350.53125 L 217.402344 350.421875 L 217.414062 350.304688 L 217.421875 350.1875 L 217.429688 350.0625 L 217.433594 349.933594 L 217.4375 349.800781 Z M 217.4375 349.664062 "/>
<path style=" stroke:none;fill-rule:evenodd;fill:rgb(30.196078%,30.196078%,30.196078%);fill-opacity:1;" d="M 268.207031 352.695312 L 268.207031 352.035156 L 269.746094 352.035156 L 269.746094 347.378906 L 268.382812 348.355469 L 268.382812 347.625 L 269.8125 346.640625 L 270.527344 346.640625 L 270.527344 352.035156 L 272 352.035156 L 272 352.695312 Z M 268.207031 352.695312 "/>
<path style=" stroke:none;fill-rule:evenodd;fill:rgb(30.196078%,30.196078%,30.196078%);fill-opacity:1;" d="M 321.839844 352.695312 L 321.839844 352.148438 L 321.882812 352.050781 L 321.929688 351.953125 L 321.976562 351.859375 L 322.027344 351.765625 L 322.082031 351.675781 L 322.191406 351.503906 L 322.308594 351.339844 L 322.371094 351.261719 L 322.433594 351.1875 L 322.5 351.113281 L 322.5625 351.039062 L 322.628906 350.964844 L 322.695312 350.894531 L 322.761719 350.828125 L 322.832031 350.761719 L 322.898438 350.695312 L 322.96875 350.628906 L 323.035156 350.566406 L 323.105469 350.503906 L 323.175781 350.445312 L 323.246094 350.382812 L 323.3125 350.324219 L 323.453125 350.207031 L 323.519531 350.152344 L 323.589844 350.097656 L 323.722656 349.988281 L 323.792969 349.933594 L 323.859375 349.878906 L 323.925781 349.828125 L 323.988281 349.773438 L 324.050781 349.722656 L 324.113281 349.667969 L 324.171875 349.613281 L 324.230469 349.5625 L 324.289062 349.507812 L 324.34375 349.453125 L 324.398438 349.402344 L 324.5 349.292969 L 324.546875 349.238281 L 324.589844 349.183594 L 324.632812 349.125 L 324.675781 349.070312 L 324.714844 349.011719 L 324.785156 348.894531 L 324.847656 348.777344 L 324.875 348.714844 L 324.894531 348.648438 L 324.914062 348.585938 L 324.929688 348.515625 L 324.941406 348.449219 L 324.957031 348.308594 L 324.957031 348.183594 L 324.953125 348.132812 L 324.945312 348.039062 L 324.9375 347.992188 L 324.929688 347.949219 L 324.90625 347.863281 L 324.894531 347.824219 L 324.878906 347.78125 L 324.863281 347.746094 L 324.847656 347.707031 L 324.808594 347.636719 L 324.785156 347.601562 L 324.738281 347.539062 L 324.710938 347.507812 L 324.65625 347.453125 L 324.625 347.425781 L 324.597656 347.402344 L 324.5625 347.378906 L 324.53125 347.355469 L 324.460938 347.316406 L 324.421875 347.300781 L 324.382812 347.28125 L 324.34375 347.269531 L 324.304688 347.253906 L 324.261719 347.242188 L 324.222656 347.230469 L 324.179688 347.21875 L 324.136719 347.210938 L 324.089844 347.203125 L 324.046875 347.195312 L 324 347.191406 L 323.949219 347.1875 L 323.761719 347.1875 L 323.714844 347.191406 L 323.671875 347.195312 L 323.628906 347.203125 L 323.582031 347.210938 L 323.539062 347.21875 L 323.5 347.226562 L 323.414062 347.25 L 323.375 347.265625 L 323.335938 347.277344 L 323.296875 347.292969 L 323.261719 347.3125 L 323.222656 347.332031 L 323.152344 347.371094 L 323.121094 347.394531 L 323.085938 347.417969 L 323.054688 347.445312 L 323.023438 347.46875 L 322.992188 347.496094 L 322.882812 347.621094 L 322.8125 347.726562 L 322.753906 347.84375 L 322.738281 347.886719 L 322.722656 347.925781 L 322.710938 347.972656 L 322.699219 348.015625 L 322.675781 348.109375 L 322.667969 348.160156 L 322.664062 348.207031 L 321.871094 348.136719 L 321.882812 348.070312 L 321.890625 348.007812 L 321.90625 347.941406 L 321.917969 347.878906 L 321.9375 347.820312 L 321.976562 347.695312 L 322 347.636719 L 322.054688 347.519531 L 322.082031 347.464844 L 322.113281 347.410156 L 322.183594 347.300781 L 322.222656 347.25 L 322.261719 347.203125 L 322.304688 347.152344 L 322.347656 347.105469 L 322.394531 347.0625 L 322.546875 346.933594 L 322.601562 346.894531 L 322.777344 346.789062 L 322.839844 346.757812 L 322.90625 346.726562 L 322.972656 346.699219 L 323.113281 346.652344 L 323.1875 346.628906 L 323.261719 346.609375 L 323.339844 346.59375 L 323.503906 346.570312 L 323.585938 346.5625 L 323.671875 346.554688 L 323.761719 346.550781 L 323.941406 346.550781 L 324.03125 346.554688 L 324.113281 346.558594 L 324.199219 346.566406 L 324.28125 346.578125 L 324.4375 346.601562 L 324.511719 346.617188 L 324.585938 346.636719 L 324.65625 346.65625 L 324.726562 346.679688 L 324.792969 346.703125 L 324.859375 346.730469 L 324.921875 346.757812 L 324.980469 346.789062 L 325.039062 346.824219 L 325.148438 346.894531 L 325.199219 346.933594 L 325.25 346.976562 L 325.34375 347.0625 L 325.386719 347.109375 L 325.464844 347.210938 L 325.5 347.261719 L 325.535156 347.320312 L 325.566406 347.375 L 325.597656 347.433594 L 325.625 347.496094 L 325.648438 347.558594 L 325.667969 347.621094 L 325.6875 347.6875 L 325.707031 347.757812 L 325.71875 347.828125 L 325.730469 347.902344 L 325.742188 347.972656 L 325.753906 348.207031 L 325.75 348.269531 L 325.746094 348.328125 L 325.742188 348.390625 L 325.734375 348.449219 L 325.722656 348.507812 L 325.710938 348.5625 L 325.699219 348.621094 L 325.679688 348.675781 L 325.660156 348.734375 L 325.640625 348.789062 L 325.570312 348.953125 L 325.542969 349.003906 L 325.515625 349.058594 L 325.453125 349.160156 L 325.3125 349.363281 L 325.273438 349.410156 L 325.234375 349.460938 L 325.195312 349.507812 L 325.152344 349.558594 L 325.066406 349.652344 L 325.019531 349.699219 L 324.976562 349.746094 L 324.925781 349.792969 L 324.832031 349.886719 L 324.78125 349.933594 L 324.730469 349.976562 L 324.679688 350.023438 L 324.632812 350.070312 L 324.578125 350.113281 L 324.527344 350.160156 L 324.476562 350.203125 L 324.425781 350.25 L 324.371094 350.292969 L 324.320312 350.335938 L 324.265625 350.382812 L 324.214844 350.425781 L 324.160156 350.46875 L 324.109375 350.511719 L 324.054688 350.554688 L 324.003906 350.601562 L 323.894531 350.6875 L 323.84375 350.730469 L 323.789062 350.773438 L 323.585938 350.945312 L 323.539062 350.992188 L 323.488281 351.035156 L 323.347656 351.164062 L 323.214844 351.296875 L 323.171875 351.34375 L 323.132812 351.386719 L 323.089844 351.433594 L 323.050781 351.476562 L 323.015625 351.523438 L 322.976562 351.570312 L 322.941406 351.613281 L 322.90625 351.660156 L 322.875 351.703125 L 322.8125 351.796875 L 322.757812 351.890625 L 322.734375 351.941406 L 322.6875 352.035156 L 325.847656 352.035156 L 325.847656 352.695312 Z M 321.839844 352.695312 "/>
<path style=" stroke:none;fill-rule:evenodd;fill:rgb(30.196078%,30.196078%,30.196078%);fill-opacity:1;" d="M 379.761719 351.023438 L 379.761719 351.105469 L 379.757812 351.1875 L 379.742188 351.34375 L 379.730469 351.417969 L 379.714844 351.492188 L 379.675781 351.632812 L 379.652344 351.699219 L 379.597656 351.832031 L 379.566406 351.894531 L 379.535156 351.953125 L 379.5 352.011719 L 379.460938 352.066406 L 379.375 352.175781 L 379.332031 352.226562 L 379.230469 352.320312 L 379.121094 352.40625 L 379.003906 352.484375 L 378.941406 352.519531 L 378.875 352.550781 L 378.734375 352.613281 L 378.660156 352.640625 L 378.585938 352.664062 L 378.507812 352.6875 L 378.429688 352.707031 L 378.347656 352.722656 L 378.261719 352.738281 L 378.175781 352.75 L 378.085938 352.761719 L 377.996094 352.769531 L 377.902344 352.777344 L 377.808594 352.777344 L 377.710938 352.78125 L 377.597656 352.777344 L 377.386719 352.769531 L 377.191406 352.746094 L 377.097656 352.730469 L 377.007812 352.714844 L 376.921875 352.691406 L 376.839844 352.667969 L 376.761719 352.644531 L 376.683594 352.613281 L 376.542969 352.550781 L 376.410156 352.480469 L 376.347656 352.441406 L 376.289062 352.402344 L 376.179688 352.316406 L 376.128906 352.273438 L 376.078125 352.226562 L 376.035156 352.179688 L 375.988281 352.128906 L 375.910156 352.027344 L 375.839844 351.917969 L 375.808594 351.863281 L 375.78125 351.808594 L 375.753906 351.75 L 375.730469 351.691406 L 375.707031 351.628906 L 375.6875 351.570312 L 375.667969 351.507812 L 375.652344 351.449219 L 375.621094 351.324219 L 375.609375 351.265625 L 375.601562 351.203125 L 375.589844 351.140625 L 376.390625 351.066406 L 376.414062 351.207031 L 376.425781 351.25 L 376.4375 351.296875 L 376.453125 351.339844 L 376.464844 351.382812 L 376.480469 351.421875 L 376.496094 351.464844 L 376.554688 351.582031 L 376.625 351.6875 L 376.652344 351.722656 L 376.707031 351.785156 L 376.738281 351.816406 L 376.800781 351.871094 L 376.835938 351.898438 L 376.90625 351.945312 L 376.984375 351.992188 L 377.027344 352.011719 L 377.070312 352.027344 L 377.113281 352.046875 L 377.207031 352.078125 L 377.253906 352.089844 L 377.304688 352.101562 L 377.359375 352.113281 L 377.46875 352.128906 L 377.585938 352.136719 L 377.648438 352.140625 L 377.710938 352.140625 L 377.824219 352.136719 L 377.933594 352.128906 L 378.039062 352.113281 L 378.136719 352.09375 L 378.230469 352.066406 L 378.320312 352.035156 L 378.402344 352 L 378.480469 351.957031 L 378.554688 351.90625 L 378.625 351.851562 L 378.6875 351.792969 L 378.746094 351.726562 L 378.796875 351.65625 L 378.839844 351.578125 L 378.875 351.496094 L 378.90625 351.40625 L 378.929688 351.3125 L 378.945312 351.210938 L 378.957031 351.109375 L 378.960938 350.996094 L 378.957031 350.929688 L 378.953125 350.867188 L 378.9375 350.75 L 378.921875 350.695312 L 378.90625 350.644531 L 378.886719 350.59375 L 378.839844 350.5 L 378.808594 350.460938 L 378.78125 350.417969 L 378.746094 350.382812 L 378.714844 350.34375 L 378.679688 350.308594 L 378.644531 350.277344 L 378.605469 350.246094 L 378.527344 350.191406 L 378.484375 350.164062 L 378.441406 350.140625 L 378.394531 350.121094 L 378.351562 350.097656 L 378.304688 350.078125 L 378.210938 350.046875 L 378.160156 350.03125 L 378.113281 350.015625 L 378.0625 350.007812 L 378.011719 349.996094 L 377.957031 349.988281 L 377.855469 349.972656 L 377.808594 349.96875 L 377.757812 349.960938 L 377.664062 349.953125 L 377.617188 349.953125 L 377.570312 349.949219 L 377.042969 349.949219 L 377.042969 349.277344 L 377.554688 349.277344 L 377.597656 349.273438 L 377.640625 349.273438 L 377.6875 349.269531 L 377.734375 349.261719 L 377.78125 349.257812 L 377.824219 349.25 L 377.871094 349.242188 L 377.921875 349.234375 L 377.964844 349.226562 L 378.011719 349.214844 L 378.058594 349.199219 L 378.101562 349.1875 L 378.144531 349.171875 L 378.1875 349.152344 L 378.230469 349.136719 L 378.269531 349.117188 L 378.308594 349.09375 L 378.351562 349.070312 L 378.386719 349.046875 L 378.425781 349.019531 L 378.460938 348.992188 L 378.496094 348.960938 L 378.558594 348.898438 L 378.589844 348.863281 L 378.617188 348.828125 L 378.671875 348.75 L 378.71875 348.664062 L 378.738281 348.617188 L 378.753906 348.570312 L 378.769531 348.519531 L 378.78125 348.46875 L 378.789062 348.414062 L 378.796875 348.355469 L 378.800781 348.296875 L 378.800781 348.234375 L 378.796875 348.140625 L 378.789062 348.046875 L 378.773438 347.960938 L 378.753906 347.878906 L 378.730469 347.800781 L 378.695312 347.726562 L 378.660156 347.65625 L 378.617188 347.589844 L 378.566406 347.527344 L 378.511719 347.46875 L 378.453125 347.414062 L 378.386719 347.367188 L 378.316406 347.324219 L 378.242188 347.289062 L 378.160156 347.257812 L 378.070312 347.230469 L 377.980469 347.210938 L 377.878906 347.195312 L 377.777344 347.1875 L 377.566406 347.1875 L 377.46875 347.195312 L 377.289062 347.226562 L 377.203125 347.25 L 377.121094 347.28125 L 377.046875 347.3125 L 376.972656 347.355469 L 376.902344 347.398438 L 376.835938 347.449219 L 376.777344 347.503906 L 376.722656 347.5625 L 376.671875 347.625 L 376.628906 347.691406 L 376.589844 347.765625 L 376.554688 347.839844 L 376.527344 347.921875 L 376.503906 348.003906 L 376.484375 348.09375 L 376.472656 348.1875 L 375.695312 348.125 L 375.703125 348.046875 L 375.71875 347.972656 L 375.734375 347.894531 L 375.75 347.824219 L 375.796875 347.683594 L 375.820312 347.617188 L 375.847656 347.554688 L 375.878906 347.492188 L 375.914062 347.429688 L 375.949219 347.371094 L 375.984375 347.316406 L 376.023438 347.261719 L 376.109375 347.160156 L 376.152344 347.113281 L 376.199219 347.066406 L 376.246094 347.023438 L 376.296875 346.980469 L 376.347656 346.941406 L 376.402344 346.902344 L 376.457031 346.867188 L 376.515625 346.832031 L 376.570312 346.800781 L 376.632812 346.769531 L 376.691406 346.742188 L 376.757812 346.714844 L 376.820312 346.691406 L 376.886719 346.667969 L 377.019531 346.628906 L 377.160156 346.597656 L 377.230469 346.585938 L 377.304688 346.574219 L 377.375 346.566406 L 377.449219 346.558594 L 377.597656 346.550781 L 377.773438 346.550781 L 377.871094 346.554688 L 378.058594 346.570312 L 378.148438 346.582031 L 378.230469 346.597656 L 378.316406 346.613281 L 378.472656 346.652344 L 378.546875 346.679688 L 378.617188 346.703125 L 378.6875 346.730469 L 378.753906 346.761719 L 378.816406 346.792969 L 378.878906 346.828125 L 378.9375 346.863281 L 378.992188 346.898438 L 379.046875 346.9375 L 379.097656 346.980469 L 379.191406 347.066406 L 379.230469 347.113281 L 379.273438 347.160156 L 379.308594 347.207031 L 379.378906 347.308594 L 379.410156 347.359375 L 379.4375 347.414062 L 379.484375 347.53125 L 379.523438 347.648438 L 379.539062 347.707031 L 379.554688 347.769531 L 379.578125 347.894531 L 379.585938 347.957031 L 379.589844 348.023438 L 379.59375 348.085938 L 379.597656 348.152344 L 379.59375 348.207031 L 379.59375 348.257812 L 379.585938 348.359375 L 379.570312 348.460938 L 379.558594 348.507812 L 379.550781 348.558594 L 379.535156 348.605469 L 379.523438 348.652344 L 379.507812 348.695312 L 379.488281 348.742188 L 379.472656 348.785156 L 379.449219 348.828125 L 379.429688 348.871094 L 379.40625 348.914062 L 379.378906 348.953125 L 379.355469 348.992188 L 379.324219 349.03125 L 379.296875 349.066406 L 379.261719 349.105469 L 379.230469 349.140625 L 379.195312 349.175781 L 379.078125 349.269531 L 378.992188 349.332031 L 378.898438 349.386719 L 378.851562 349.410156 L 378.800781 349.4375 L 378.75 349.460938 L 378.695312 349.480469 L 378.636719 349.503906 L 378.582031 349.523438 L 378.519531 349.539062 L 378.457031 349.558594 L 378.394531 349.574219 L 378.328125 349.585938 L 378.328125 349.605469 L 378.398438 349.613281 L 378.539062 349.636719 L 378.605469 349.648438 L 378.667969 349.667969 L 378.730469 349.683594 L 378.792969 349.703125 L 378.851562 349.722656 L 378.910156 349.746094 L 378.964844 349.773438 L 379.015625 349.796875 L 379.070312 349.824219 L 379.117188 349.851562 L 379.210938 349.914062 L 379.253906 349.945312 L 379.296875 349.980469 L 379.335938 350.011719 L 379.410156 350.085938 L 379.445312 350.125 L 379.507812 350.203125 L 379.539062 350.246094 L 379.566406 350.289062 L 379.613281 350.375 L 379.636719 350.421875 L 379.65625 350.46875 L 379.671875 350.515625 L 379.691406 350.5625 L 379.707031 350.613281 L 379.71875 350.664062 L 379.730469 350.710938 L 379.742188 350.761719 L 379.75 350.8125 L 379.753906 350.867188 L 379.761719 350.96875 Z M 379.761719 351.023438 "/>
</g>
</svg>
